<svg width="70" height="70" viewBox="0 0 70 70" fill="none" xmlns="http://www.w3.org/2000/svg">
<g clip-path="url(#clip0_1208_334)">
<path d="M41.2343 54.9712V41.4473H35.0707V45.6936H21.238C19.7582 45.7065 18.5615 46.9031 18.5615 48.3829V54.984C18.5615 58.5741 21.4696 61.4822 25.0597 61.4822H25.0726H34.749C38.3391 61.4693 41.2472 58.5612 41.2343 54.9712Z" fill="#1F315F"/>
<path d="M35.0834 61.8937C34.9804 59.436 32.9731 57.5059 30.5154 57.5059H29.2929C26.8352 57.5059 24.8279 59.4489 24.7378 61.9066L35.0834 61.8937Z" fill="#EFCDB1"/>
<path d="M29.898 57.4408C29.4734 57.428 29.1388 57.0934 29.126 56.6688V51.3287C29.126 50.9041 29.4734 50.5566 29.898 50.5566C30.3227 50.5566 30.6701 50.9041 30.6701 51.3287V56.6688C30.683 57.0934 30.3484 57.428 29.9238 57.4408H29.9109H29.898Z" fill="#414042"/>
<path d="M35.0963 65.4203V61.8945H24.7379V65.4203C24.725 67.9423 26.7709 69.9883 29.293 70.0011H29.3059H30.5283C33.0504 69.9883 35.0963 67.9423 35.0963 65.4203Z" fill="#8A5D3B"/>
<path d="M35.0836 52.7969C34.6589 52.7969 34.3115 52.4494 34.3115 52.0248V46.3502C34.3115 45.9256 34.6589 45.5781 35.0836 45.5781C35.5082 45.5781 35.8556 45.9256 35.8556 46.3502V52.0248C35.8556 52.4494 35.5082 52.7969 35.0836 52.7969Z" fill="#192A4F"/>
<path d="M41.2215 41.4471V38.0758C41.2215 37.2394 40.5524 36.5703 39.716 36.5703H36.5763C35.7399 36.5703 35.0708 37.2394 35.0708 38.0758V41.4471H41.2215Z" fill="#EFCDB1"/>
<path d="M57.8335 37.0719L45.0945 32.5039L43.0099 38.3072L47.0118 39.7355L42.3408 52.7704C41.839 54.1602 42.5596 55.6914 43.9493 56.1932L50.1643 58.4193C53.5485 59.6289 57.2673 57.8789 58.4768 54.4947L61.7452 45.3844C62.9548 42.0131 61.2048 38.2943 57.8335 37.0719Z" fill="#89C45E"/>
<path d="M62.247 45.2172C59.9051 44.4709 57.3959 45.7062 56.5724 48.0224L56.1606 49.1676C55.3371 51.4838 56.4823 54.0316 58.7599 54.9581L62.247 45.2172Z" fill="#EFCDB1"/>
<path d="M55.5816 49.0899C55.4916 49.0899 55.4015 49.0771 55.3243 49.0385L50.293 47.237C49.8941 47.0954 49.6883 46.6451 49.8298 46.2462C49.9714 45.8473 50.396 45.6414 50.7949 45.7829H50.8078L55.839 47.5844C56.2379 47.7131 56.4695 48.1506 56.328 48.5623C56.225 48.884 55.9162 49.1028 55.5816 49.0899Z" fill="#414042"/>
<path d="M65.5796 46.4006L62.427 45.2683L62.2469 45.2168L58.7598 54.9576L58.927 55.0219L62.0796 56.1543C64.4601 57.0036 67.0723 55.7683 67.9215 53.3878L68.3333 52.2425C69.1826 49.8749 67.9473 47.2628 65.5796 46.4006Z" fill="#8A5D3B"/>
<path d="M52.9564 42.6421L52.699 42.6035L47.359 40.6862C46.9601 40.5447 46.7542 40.0943 46.8957 39.6954C47.0373 39.2965 47.4876 39.0906 47.8865 39.2322L53.2266 41.1494C53.6255 41.291 53.8314 41.7156 53.6898 42.1145V42.1274C53.574 42.4362 53.2909 42.6421 52.9564 42.6421Z" fill="#75AA4D"/>
<path d="M45.0945 32.5032L41.9162 31.3708C41.1312 31.0877 40.2691 31.4995 39.986 32.2715V32.2844L38.9309 35.2311C38.6478 36.016 39.0595 36.8782 39.8316 37.1612H39.8445L43.0099 38.3065L45.0945 32.5032Z" fill="#EFCDB1"/>
<path d="M46.6516 16.3811L38.6479 27.2929L43.6149 30.9344L46.1241 27.5116L57.2803 35.6954C58.477 36.5704 60.1498 36.3131 61.0248 35.1164L64.9366 29.7892C67.0597 26.894 66.4292 22.8278 63.534 20.7046L55.7233 14.9785C52.8281 12.8682 48.7748 13.4988 46.6516 16.3811Z" fill="#FDC00F"/>
<path d="M55.7104 14.4512C54.3336 16.4843 54.8097 19.2379 56.7913 20.692L57.7693 21.4126C59.7509 22.8537 62.5174 22.4935 64.0487 20.5762L55.7104 14.4512Z" fill="#EFCDB1"/>
<path d="M53.626 26.8039C53.4587 26.8039 53.3043 26.7524 53.1756 26.6623C52.8282 26.405 52.751 25.9289 53.0083 25.5815L56.1609 21.2708C56.4182 20.9234 56.8943 20.8462 57.2418 21.1035C57.5892 21.3609 57.6664 21.837 57.409 22.1844L54.2436 26.4951C54.1021 26.6881 53.8704 26.8039 53.626 26.8039Z" fill="#414042"/>
<path d="M57.7821 11.6074L55.8005 14.3096L55.7104 14.4511L64.0487 20.5761L64.1645 20.4346L66.1461 17.7195C67.6388 15.6864 67.1884 12.8298 65.1553 11.3372L64.1774 10.6166C62.1443 9.12394 59.2877 9.56144 57.795 11.5945C57.7821 11.5945 57.7821 11.6074 57.7821 11.6074Z" fill="#8A5D3B"/>
<path d="M46.51 27.7558C46.3427 27.7558 46.1883 27.7043 46.0467 27.6142C45.6993 27.3569 45.635 26.8808 45.8923 26.5333L49.2379 21.9524C49.4953 21.605 49.9714 21.5278 50.3188 21.7852C50.6662 22.0425 50.7434 22.5186 50.4861 22.866L47.1276 27.4469C46.9861 27.6399 46.7545 27.7558 46.51 27.7558Z" fill="#E5A60A"/>
<path d="M38.648 27.293L36.6535 30.008C36.1645 30.6772 36.3061 31.6165 36.9752 32.1183L39.5101 33.9713C40.1792 34.4602 41.1186 34.3187 41.6204 33.6496L43.6149 30.9345L38.648 27.293Z" fill="#EFCDB1"/>
<path d="M20.1057 44.1236L32.6645 39.0795L30.3741 33.3662L26.4237 34.949L21.2638 22.107C20.7233 20.7431 19.1792 20.0611 17.8024 20.6015C17.8024 20.6015 17.7895 20.6015 17.7895 20.6144L11.6517 23.085C8.3318 24.4232 6.72335 28.2063 8.04872 31.5262L11.6645 40.5078C12.9899 43.8405 16.7601 45.4618 20.0928 44.1236H20.1057Z" fill="#02648E"/>
<path d="M11.3943 40.9842C13.6333 39.9805 14.6884 37.3812 13.7748 35.1037L13.3116 33.9713C12.398 31.6937 9.85018 30.5485 7.54688 31.372L11.3943 40.9842Z" fill="#EFCDB1"/>
<path d="M14.3154 35.0012C14.0066 35.0012 13.7235 34.8082 13.6077 34.5122C13.4533 34.1133 13.6334 33.663 14.0323 33.5086L18.9864 31.5141C19.3853 31.3597 19.8356 31.5527 20.0029 31.9516C20.1573 32.3505 19.9643 32.8008 19.5654 32.9553L14.6114 34.9497C14.5213 34.9883 14.4184 35.0012 14.3154 35.0012Z" fill="#414042"/>
<path d="M8.12588 42.2957L11.2398 41.0476L11.3943 40.9832L7.54683 31.3711L7.36668 31.4354L4.26558 32.6836C1.92367 33.6229 0.791318 36.2865 1.73066 38.6284L2.18102 39.7608C3.12036 42.1027 5.78396 43.2351 8.12588 42.2957Z" fill="#8A5D3B"/>
<path d="M20.5687 38.0759C20.1441 38.0887 19.7838 37.7542 19.7838 37.3296C19.7709 37.0079 19.9768 36.7119 20.2727 36.5832L25.5356 34.4729C25.9345 34.3185 26.3849 34.4987 26.5393 34.8976C26.7066 35.2836 26.5264 35.734 26.1404 35.8884C26.1275 35.8884 26.1275 35.8884 26.1147 35.9012L20.8518 38.0244C20.7617 38.063 20.6716 38.0759 20.5687 38.0759Z" fill="#345493"/>
<path d="M32.6645 39.0788L35.7913 37.8178C36.5634 37.5089 36.9365 36.6339 36.6277 35.8619L35.4567 32.9409C35.1479 32.1689 34.2729 31.7957 33.5009 32.1045L30.374 33.3655L32.6645 39.0788Z" fill="#EFCDB1"/>
<path d="M22.3317 19.8811L29.8335 31.1403L34.9548 27.7303L32.6 24.2046L44.1294 16.5355C45.3519 15.712 45.6864 14.052 44.8629 12.8167L41.2085 7.32226C39.214 4.33696 35.1864 3.5263 32.2011 5.50792L24.146 10.8737C21.1607 12.8553 20.35 16.8958 22.3317 19.8811Z" fill="#BE1E2D"/>
<path d="M23.6313 10.7194C25.0725 12.7011 27.8133 13.2029 29.8593 11.8389L30.8758 11.1698C32.9218 9.8187 33.5394 7.0779 32.2527 4.98047L23.6313 10.7194Z" fill="#EFCDB1"/>
<path d="M33.7967 17.4224C33.5393 17.4224 33.2948 17.2937 33.1533 17.0749L30.1937 12.6227C29.9364 12.2753 30.0136 11.7992 30.3481 11.5419C30.6956 11.2845 31.1717 11.3617 31.429 11.6963C31.4419 11.722 31.4676 11.7477 31.4805 11.7735L34.44 16.2128C34.6717 16.5731 34.5816 17.0492 34.2213 17.2937C34.0926 17.3709 33.9511 17.4224 33.7967 17.4224Z" fill="#414042"/>
<path d="M21.6755 7.77242L23.5284 10.5647L23.6313 10.7191L32.2527 4.98014L32.1497 4.82573L30.2968 2.03345C28.8942 -0.0639792 26.0505 -0.630156 23.953 0.772418L22.9494 1.44154C20.8519 2.83124 20.2729 5.64926 21.6626 7.75955L21.6755 7.77242Z" fill="#8A5D3B"/>
<path d="M32.2396 24.4358C31.9822 24.4358 31.7377 24.3072 31.5962 24.0884L28.4565 19.366C28.212 19.0057 28.315 18.5296 28.6752 18.298C29.0355 18.0535 29.5116 18.1564 29.7433 18.5039L32.883 23.2263C33.1146 23.5737 33.0245 24.0498 32.69 24.2814C32.6771 24.2814 32.6771 24.2943 32.6642 24.2943C32.5355 24.3844 32.394 24.4358 32.2396 24.4358Z" fill="#AA1729"/>
<path d="M29.8335 31.1404L31.6993 33.9455C32.1497 34.6404 33.0761 34.8334 33.7581 34.383C33.771 34.383 33.771 34.3702 33.7839 34.3702L36.4089 32.633C37.1037 32.1698 37.2839 31.2305 36.8206 30.5356L34.9548 27.7305L29.8335 31.1404Z" fill="#EFCDB1"/>
</g>
<defs>
<clipPath id="clip0_1208_334">
<rect width="70" height="70" fill="white"/>
</clipPath>
</defs>
</svg>
