<svg width="130" height="130" viewBox="0 0 130 130" fill="none" xmlns="http://www.w3.org/2000/svg">
<g clip-path="url(#clip0_1090_2675)">
<path d="M127.251 89.8471L40.1529 2.74933C38.3805 0.975952 36.0229 0 33.5156 0C31.0083 0 28.6507 0.975952 26.8784 2.74933L2.74933 26.8784C0.975952 28.6507 0 31.0083 0 33.5156C0 36.0229 0.975952 38.3805 2.74933 40.1529L89.8471 127.251C91.6195 129.024 93.9771 130 96.4844 130C98.9917 130 101.349 129.024 103.122 127.251L127.251 103.122C129.024 101.349 130 98.9917 130 96.4844C130 93.9771 129.024 91.6195 127.251 89.8471Z" fill="#FFCD5F"/>
<path d="M123.169 6.83067C120.073 3.7352 115.957 2.03125 111.577 2.03125C107.196 2.03125 103.079 3.7352 99.9847 6.83067L10.3792 96.4362L2.10976 125.379C1.90643 126.089 2.1048 126.852 2.6265 127.374C3.01231 127.76 3.53104 127.969 4.06265 127.969C4.24912 127.969 4.43657 127.943 4.62105 127.89L33.564 119.621L123.169 30.0155C126.265 26.921 127.969 22.804 127.969 18.4231C127.969 14.0432 126.265 9.92714 123.169 6.83067Z" fill="#64C4FF"/>
<path d="M80.3979 26.4141L93.4248 13.3873L116.606 36.5687L103.579 49.5955L80.3979 26.4141Z" fill="#45A9F4"/>
<path d="M34.5312 18.2812C35.6531 18.2812 36.5625 17.3718 36.5625 16.25C36.5625 15.1282 35.6531 14.2188 34.5312 14.2188C33.4094 14.2188 32.5 15.1282 32.5 16.25C32.5 17.3718 33.4094 18.2812 34.5312 18.2812Z" fill="#F9A93E"/>
<path d="M34.5532 118.632C34.1288 112.571 31.622 106.866 27.1979 102.513C22.8776 98.2616 17.2885 95.8622 11.3679 95.4473L10.3792 96.436L2.10976 125.379C1.90643 126.089 2.1048 126.852 2.6265 127.373C3.01231 127.76 3.53104 127.969 4.06265 127.969C4.24912 127.969 4.43657 127.943 4.62105 127.89L33.564 119.621L34.5532 118.632Z" fill="#45A9F4"/>
<path d="M12.6965 112.183C10.9624 111.093 8.85848 110.272 6.52907 109.912L2.10976 125.38C1.90643 126.09 2.1048 126.852 2.6265 127.374C3.01231 127.761 3.53104 127.969 4.06265 127.969C4.24912 127.969 4.43657 127.943 4.62105 127.891L20.0513 123.482C19.3454 118.898 16.7816 114.752 12.6965 112.183Z" fill="#2B93E0"/>
<path d="M16.839 39.1828L9.3031 46.7188L6.43896 43.8548L13.9749 36.3188C14.7672 35.5266 16.0469 35.5266 16.839 36.3188C17.6312 37.111 17.6312 38.3907 16.839 39.1828Z" fill="#F9A93E"/>
<path d="M31.0577 45.2765L19.4593 56.875L16.5952 54.011L28.1937 42.4125C28.9859 41.6203 30.2656 41.6203 31.0577 42.4125C31.8499 43.2047 31.8499 44.4844 31.0577 45.2765Z" fill="#F9A93E"/>
<path d="M37.1515 59.4953L29.6156 67.0313L26.7515 64.1673L34.2874 56.6313C35.0797 55.8391 36.3594 55.8391 37.1515 56.6313C37.9437 57.4235 37.9437 58.7032 37.1515 59.4953Z" fill="#F9A93E"/>
<path d="M93.6812 116.025L86.1453 123.561L83.2812 120.696L90.8172 113.161C91.6093 112.368 92.889 112.368 93.6812 113.161C94.4735 113.953 94.4735 115.232 93.6812 116.025Z" fill="#F9A93E"/>
<path d="M87.5875 101.806L75.989 113.404L73.125 110.54L84.7235 98.9418C85.5156 98.1496 86.7953 98.1496 87.5875 98.9418C88.3797 99.7339 88.3797 101.014 87.5875 101.806Z" fill="#F9A93E"/>
<path d="M73.3687 95.7121L65.8328 103.248L62.9688 100.384L70.5047 92.8481C71.2968 92.0559 72.5765 92.0559 73.3687 92.8481C74.161 93.6402 74.161 94.9199 73.3687 95.7121Z" fill="#F9A93E"/>
</g>
<defs>
<clipPath id="clip0_1090_2675">
<rect width="130" height="130" fill="white"/>
</clipPath>
</defs>
</svg>
