<svg width="70" height="70" viewBox="0 0 70 70" fill="none" xmlns="http://www.w3.org/2000/svg">
<g clip-path="url(#clip0_1208_758)">
<path d="M44.0415 21.2916H25.6665L16.479 0H34.854L44.0415 21.2916Z" fill="#F1543F"/>
<path d="M44.6249 31.0619H25.3749C22.8958 31.0619 20.854 29.0203 20.854 26.541V21.8744C20.854 19.3953 22.8956 17.3535 25.3749 17.3535H44.7708C47.2499 17.3535 49.2916 19.3951 49.2916 21.8744V26.541C49.1458 29.0203 47.104 31.0619 44.6249 31.0619ZM25.3749 21.291C25.0833 21.291 24.7915 21.5826 24.7915 21.8744V26.541C24.7915 26.8326 25.0831 27.1244 25.3749 27.1244H44.7708C45.0624 27.1244 45.3541 26.8328 45.3541 26.541V21.8744C45.3541 21.5828 45.0625 21.291 44.7708 21.291H25.3749Z" fill="#F8B64C"/>
<path d="M34.9999 70.0008C47.6449 70.0008 57.8958 59.7499 57.8958 47.1049C57.8958 34.4598 47.6449 24.209 34.9999 24.209C22.3548 24.209 12.104 34.4598 12.104 47.1049C12.104 59.7499 22.3548 70.0008 34.9999 70.0008Z" fill="#FFD15C"/>
<path d="M35 66.3547C24.3541 66.3547 15.75 57.7506 15.75 47.1047C15.75 36.4588 24.3541 27.709 35 27.709C45.6459 27.709 54.25 36.459 54.25 47.1049C54.25 57.7507 45.6459 66.3547 35 66.3547ZM35 30.334C25.8125 30.334 18.2291 37.9174 18.2291 47.1049C18.2291 56.2924 25.8125 63.8756 35 63.8756C44.1875 63.8756 51.7709 56.2922 51.7709 47.1047C51.7709 37.7715 44.1875 30.334 35 30.334Z" fill="#F8B64C"/>
<path d="M25.9585 21.2916H44.3335L53.521 0H35.146L25.9585 21.2916Z" fill="#FF7058"/>
<path d="M46.0835 44.4797C46.9585 43.8963 46.521 42.5838 45.5002 42.5838H38.9377C38.5002 42.5838 38.0627 42.2922 37.9168 41.8547L35.8752 35.584C35.5835 34.709 34.271 34.709 33.9793 35.584L31.9377 41.8547C31.7918 42.2922 31.3543 42.5838 30.9168 42.5838H24.3543C23.3334 42.5838 22.8959 43.8963 23.7709 44.4797L29.0209 48.2714C29.3125 48.563 29.6043 49.0005 29.4584 49.438L27.4168 55.7089C27.1252 56.5839 28.1459 57.4588 29.0209 56.8755L34.2709 53.0838C34.5625 52.7922 35.1459 52.7922 35.4375 53.0838L40.8335 56.8756C41.7085 57.459 42.7294 56.7297 42.4377 55.709L40.396 49.4381C40.2502 49.0006 40.396 48.5631 40.8335 48.2715L46.0835 44.4797Z" fill="white"/>
</g>
<defs>
<clipPath id="clip0_1208_758">
<rect width="70" height="70" fill="white"/>
</clipPath>
</defs>
</svg>
