<svg width="130" height="130" viewBox="0 0 130 130" fill="none" xmlns="http://www.w3.org/2000/svg">
<path d="M69.5767 112.092H39.8281L42.53 96.9219H66.8664L69.5767 112.092Z" fill="#CCCBCA"/>
<path d="M77.5434 114.322H31.8633V113.49C31.8633 113.137 31.9982 112.774 32.2715 112.501C32.5422 112.23 32.8981 112.092 33.2528 112.092H76.1487C76.5092 112.092 76.8641 112.23 77.1328 112.501C77.4053 112.774 77.5431 113.137 77.5431 113.49V114.322H77.5434Z" fill="#DFDFDF"/>
<path d="M108.28 87.1191V94.3218C108.28 95.7582 107.1 96.9221 105.669 96.9221H3.74384C2.32253 96.9221 1.14355 95.7582 1.14355 94.3218V87.1191H108.28Z" fill="#DFDFDF"/>
<path d="M108.28 87.1183V18.7155C108.28 17.2866 107.1 16.1016 105.669 16.1016H3.74154C2.31849 16.1016 1.14502 17.2866 1.14502 18.7155V87.1183H108.28Z" fill="#353F49"/>
<path d="M102.857 21.5234H6.54883V81.714H102.857V21.5234Z" fill="white"/>
<path d="M98.8549 25.5215H10.5513V37.9832H98.8549V25.5215Z" fill="#0663F6"/>
<path d="M38.1631 70.377H10.5513V72.6703H38.1631V70.377Z" fill="#CDE0FD"/>
<path d="M38.1631 65.3477H10.5513V67.6448H38.1631V65.3477Z" fill="#CDE0FD"/>
<path d="M38.1631 60.3145H10.5513V62.6165H38.1631V60.3145Z" fill="#CDE0FD"/>
<path d="M38.1631 75.4062H10.5513V77.7092H38.1631V75.4062Z" fill="#CDE0FD"/>
<path d="M38.1631 40.709H10.5513V57.5826H38.1631V40.709Z" fill="#CDE0FD"/>
<path d="M68.5122 70.377H40.9004V72.6703H68.5122V70.377Z" fill="#CDE0FD"/>
<path d="M68.5122 65.3477H40.9004V67.6448H68.5122V65.3477Z" fill="#CDE0FD"/>
<path d="M68.5122 60.3145H40.9004V62.6165H68.5122V60.3145Z" fill="#CDE0FD"/>
<path d="M68.5122 75.4062H40.9004V77.7092H68.5122V75.4062Z" fill="#CDE0FD"/>
<path d="M68.5122 40.709H40.9004V57.5826H68.5122V40.709Z" fill="#CDE0FD"/>
<path d="M98.8512 70.377H71.2373V72.6703H98.8512V70.377Z" fill="#CDE0FD"/>
<path d="M98.8512 65.3477H71.2373V67.6448H98.8512V65.3477Z" fill="#CDE0FD"/>
<path d="M98.8512 60.3145H71.2373V62.6165H98.8512V60.3145Z" fill="#CDE0FD"/>
<path d="M98.8512 75.4062H71.2373V77.7092H98.8512V75.4062Z" fill="#CDE0FD"/>
<path d="M98.8512 40.709H71.2373V57.5826H98.8512V40.709Z" fill="#CDE0FD"/>
<path d="M81.979 48.4343C81.979 47.0208 83.1189 45.8711 84.5547 45.8711H126.575C128.003 45.8711 129.148 47.0205 129.148 48.4343V111.764C129.148 113.171 128.003 114.322 126.575 114.322H84.5547C83.1192 114.322 81.979 113.171 81.979 111.764V48.4343Z" fill="#353F49"/>
<path d="M102.964 111.462C102.338 111.462 101.824 110.96 101.824 110.318V110.04C101.824 109.396 102.338 108.9 102.964 108.9H108.162C108.787 108.9 109.308 109.397 109.308 110.04V110.318C109.308 110.96 108.787 111.462 108.162 111.462H102.964Z" fill="#474F59"/>
<path d="M105.562 50.3974C104.903 50.3974 104.382 49.8725 104.382 49.2181C104.382 48.5638 104.903 48.0293 105.562 48.0293C106.216 48.0293 106.743 48.5638 106.743 49.2181C106.743 49.8725 106.215 50.3974 105.562 50.3974Z" fill="#474F59"/>
<path d="M105.567 49.6993C105.293 49.6993 105.083 49.4871 105.083 49.2164C105.083 48.9457 105.293 48.7285 105.567 48.7285C105.838 48.7285 106.047 48.9457 106.047 49.2164C106.047 49.4871 105.838 49.6993 105.567 49.6993Z" fill="#353F49"/>
<path d="M126.468 52.5586H84.6455V106.039H126.468V52.5586Z" fill="white"/>
<path d="M123.408 96.3242H87.7061V98.4054H123.408V96.3242Z" fill="#CDE0FD"/>
<path d="M123.408 91.7617H87.7061V93.8458H123.408V91.7617Z" fill="#CDE0FD"/>
<path d="M123.408 87.1895H87.7061V89.2819H123.408V87.1895Z" fill="#CDE0FD"/>
<path d="M123.408 100.885H87.7061V102.977H123.408V100.885Z" fill="#CDE0FD"/>
<path d="M123.408 55.6211H87.7061V66.9285H123.408V55.6211Z" fill="#0663F6"/>
<path d="M104.07 69.4102H87.7061V84.7221H104.07V69.4102Z" fill="#CDE0FD"/>
<path d="M123.408 69.4102H107.044V84.7221H123.408V69.4102Z" fill="#CDE0FD"/>
<path d="M75.2861 70.9316H57.7314C56.0643 70.9316 54.7026 72.2924 54.7026 73.9625V111.294C54.7026 112.964 56.0646 114.323 57.7314 114.323H75.2849C76.9529 114.323 78.3108 112.964 78.3108 111.294V73.9613C78.3123 72.2916 76.9541 70.9316 75.2861 70.9316Z" fill="#353F49"/>
<path d="M76.5927 77.4902H56.4033V107.762H76.5927V77.4902Z" fill="white"/>
<path d="M75.0495 103.008H57.9653V104.013H75.0495V103.008Z" fill="#CDE0FD"/>
<path d="M75.0495 100.789H57.9653V101.795H75.0495V100.789Z" fill="#CDE0FD"/>
<path d="M75.0495 98.5801H57.9653V99.5949H75.0495V98.5801Z" fill="#CDE0FD"/>
<path d="M75.0495 105.209H57.9653V106.22H75.0495V105.209Z" fill="#CDE0FD"/>
<path d="M75.0495 79.041H57.9653V91.7793H75.0495V79.041Z" fill="#0663F6"/>
<path d="M75.0495 92.8027H57.9653V97.5647H75.0495V92.8027Z" fill="#CDE0FD"/>
<path d="M64.6375 111.975C64.189 111.975 63.8257 111.613 63.8257 111.162V110.917C63.8257 110.466 64.189 110.107 64.6375 110.107H68.378C68.8236 110.107 69.189 110.466 69.189 110.917V111.162C69.189 111.613 68.8236 111.975 68.378 111.975H64.6375Z" fill="#474F59"/>
<path d="M67.2677 74.2116C67.2677 74.6351 66.9322 74.9739 66.5103 74.9739C66.0905 74.9739 65.75 74.6354 65.75 74.2116C65.75 73.7917 66.0896 73.4492 66.5103 73.4492C66.9322 73.4492 67.2677 73.7914 67.2677 74.2116Z" fill="#474F59"/>
<path d="M66.8157 74.2124C66.8157 74.3788 66.6799 74.5146 66.5105 74.5146C66.3394 74.5146 66.2036 74.378 66.2036 74.2124C66.2036 74.0412 66.3403 73.9043 66.5105 73.9043C66.6799 73.9043 66.8157 74.041 66.8157 74.2124Z" fill="#353F49"/>
</svg>
