<svg width="130" height="130" viewBox="0 0 130 130" fill="none" xmlns="http://www.w3.org/2000/svg">
<path d="M99.6667 127.833H125.667C126.241 127.833 126.792 127.605 127.199 127.199C127.605 126.792 127.833 126.241 127.833 125.667V56.3333C127.833 55.1841 127.377 54.0819 126.564 53.2692C125.751 52.4565 124.649 52 123.5 52H97.5L99.6667 127.833Z" fill="#B0CCDD"/>
<path d="M30.3332 127.833H4.33317C3.75853 127.833 3.20743 127.605 2.80111 127.199C2.39478 126.792 2.1665 126.241 2.1665 125.667V56.3333C2.1665 55.1841 2.62305 54.0819 3.43571 53.2692C4.24837 52.4565 5.35057 52 6.49984 52H32.4998L30.3332 127.833Z" fill="#B0CCDD"/>
<path d="M30.3335 8.66602H99.6668V127.833H30.3335V8.66602Z" fill="#D3E4F4"/>
<path d="M56.3335 127.834V104.001C56.3335 103.426 56.5618 102.875 56.9681 102.469C57.3744 102.062 57.9255 101.834 58.5002 101.834H71.5002C72.0748 101.834 72.6259 102.062 73.0322 102.469C73.4386 102.875 73.6668 103.426 73.6668 104.001V127.834H56.3335Z" fill="#5E7D84"/>
<path d="M99.667 2.16602H30.3337C29.137 2.16602 28.167 3.13607 28.167 4.33268V8.66602C28.167 9.86263 29.137 10.8327 30.3337 10.8327H99.667C100.864 10.8327 101.834 9.86263 101.834 8.66602V4.33268C101.834 3.13607 100.864 2.16602 99.667 2.16602Z" fill="#4184A9"/>
<path d="M13.0002 69.3333C12.4255 69.3333 11.8744 69.1051 11.4681 68.6987C11.0618 68.2924 10.8335 67.7413 10.8335 67.1667V60.6667C10.8335 60.092 11.0618 59.5409 11.4681 59.1346C11.8744 58.7283 12.4255 58.5 13.0002 58.5C13.5748 58.5 14.1259 58.7283 14.5322 59.1346C14.9386 59.5409 15.1668 60.092 15.1668 60.6667V67.1667C15.1668 67.7413 14.9386 68.2924 14.5322 68.6987C14.1259 69.1051 13.5748 69.3333 13.0002 69.3333Z" fill="#4184A9"/>
<path d="M21.6667 69.3333C21.092 69.3333 20.5409 69.1051 20.1346 68.6987C19.7283 68.2924 19.5 67.7413 19.5 67.1667V60.6667C19.5 60.092 19.7283 59.5409 20.1346 59.1346C20.5409 58.7283 21.092 58.5 21.6667 58.5C22.2413 58.5 22.7924 58.7283 23.1987 59.1346C23.6051 59.5409 23.8333 60.092 23.8333 60.6667V67.1667C23.8333 67.7413 23.6051 68.2924 23.1987 68.6987C22.7924 69.1051 22.2413 69.3333 21.6667 69.3333Z" fill="#4184A9"/>
<path d="M13.0002 84.4993C12.4255 84.4993 11.8744 84.2711 11.4681 83.8647C11.0618 83.4584 10.8335 82.9073 10.8335 82.3327V75.8327C10.8335 75.258 11.0618 74.7069 11.4681 74.3006C11.8744 73.8943 12.4255 73.666 13.0002 73.666C13.5748 73.666 14.1259 73.8943 14.5322 74.3006C14.9386 74.7069 15.1668 75.258 15.1668 75.8327V82.3327C15.1668 82.9073 14.9386 83.4584 14.5322 83.8647C14.1259 84.2711 13.5748 84.4993 13.0002 84.4993Z" fill="#4184A9"/>
<path d="M21.6667 84.4993C21.092 84.4993 20.5409 84.2711 20.1346 83.8647C19.7283 83.4584 19.5 82.9073 19.5 82.3327V75.8327C19.5 75.258 19.7283 74.7069 20.1346 74.3006C20.5409 73.8943 21.092 73.666 21.6667 73.666C22.2413 73.666 22.7924 73.8943 23.1987 74.3006C23.6051 74.7069 23.8333 75.258 23.8333 75.8327V82.3327C23.8333 82.9073 23.6051 83.4584 23.1987 83.8647C22.7924 84.2711 22.2413 84.4993 21.6667 84.4993Z" fill="#4184A9"/>
<path d="M13.0002 99.6654C12.4255 99.6654 11.8744 99.4371 11.4681 99.0308C11.0618 98.6244 10.8335 98.0733 10.8335 97.4987V90.9987C10.8335 90.4241 11.0618 89.873 11.4681 89.4666C11.8744 89.0603 12.4255 88.832 13.0002 88.832C13.5748 88.832 14.1259 89.0603 14.5322 89.4666C14.9386 89.873 15.1668 90.4241 15.1668 90.9987V97.4987C15.1668 98.0733 14.9386 98.6244 14.5322 99.0308C14.1259 99.4371 13.5748 99.6654 13.0002 99.6654Z" fill="#4184A9"/>
<path d="M21.6667 99.6654C21.092 99.6654 20.5409 99.4371 20.1346 99.0308C19.7283 98.6244 19.5 98.0733 19.5 97.4987V90.9987C19.5 90.4241 19.7283 89.873 20.1346 89.4666C20.5409 89.0603 21.092 88.832 21.6667 88.832C22.2413 88.832 22.7924 89.0603 23.1987 89.4666C23.6051 89.873 23.8333 90.4241 23.8333 90.9987V97.4987C23.8333 98.0733 23.6051 98.6244 23.1987 99.0308C22.7924 99.4371 22.2413 99.6654 21.6667 99.6654Z" fill="#4184A9"/>
<path d="M13.0002 114.833C12.4255 114.833 11.8744 114.605 11.4681 114.199C11.0618 113.792 10.8335 113.241 10.8335 112.667V106.167C10.8335 105.592 11.0618 105.041 11.4681 104.635C11.8744 104.228 12.4255 104 13.0002 104C13.5748 104 14.1259 104.228 14.5322 104.635C14.9386 105.041 15.1668 105.592 15.1668 106.167V112.667C15.1668 113.241 14.9386 113.792 14.5322 114.199C14.1259 114.605 13.5748 114.833 13.0002 114.833Z" fill="#4184A9"/>
<path d="M21.6667 114.833C21.092 114.833 20.5409 114.605 20.1346 114.199C19.7283 113.792 19.5 113.241 19.5 112.667V106.167C19.5 105.592 19.7283 105.041 20.1346 104.635C20.5409 104.228 21.092 104 21.6667 104C22.2413 104 22.7924 104.228 23.1987 104.635C23.6051 105.041 23.8333 105.592 23.8333 106.167V112.667C23.8333 113.241 23.6051 113.792 23.1987 114.199C22.7924 114.605 22.2413 114.833 21.6667 114.833Z" fill="#4184A9"/>
<path d="M39.0002 114.833C38.4255 114.833 37.8744 114.605 37.4681 114.199C37.0618 113.792 36.8335 113.241 36.8335 112.667V106.167C36.8335 105.592 37.0618 105.041 37.4681 104.635C37.8744 104.228 38.4255 104 39.0002 104C39.5748 104 40.1259 104.228 40.5322 104.635C40.9386 105.041 41.1668 105.592 41.1668 106.167V112.667C41.1668 113.241 40.9386 113.792 40.5322 114.199C40.1259 114.605 39.5748 114.833 39.0002 114.833Z" fill="#4184A9"/>
<path d="M47.6667 114.833C47.092 114.833 46.5409 114.605 46.1346 114.199C45.7283 113.792 45.5 113.241 45.5 112.667V106.167C45.5 105.592 45.7283 105.041 46.1346 104.635C46.5409 104.228 47.092 104 47.6667 104C48.2413 104 48.7924 104.228 49.1987 104.635C49.6051 105.041 49.8333 105.592 49.8333 106.167V112.667C49.8333 113.241 49.6051 113.792 49.1987 114.199C48.7924 114.605 48.2413 114.833 47.6667 114.833Z" fill="#4184A9"/>
<path d="M82.3337 114.833C81.759 114.833 81.2079 114.605 80.8016 114.199C80.3953 113.792 80.167 113.241 80.167 112.667V106.167C80.167 105.592 80.3953 105.041 80.8016 104.635C81.2079 104.228 81.759 104 82.3337 104C82.9083 104 83.4594 104.228 83.8657 104.635C84.2721 105.041 84.5003 105.592 84.5003 106.167V112.667C84.5003 113.241 84.2721 113.792 83.8657 114.199C83.4594 114.605 82.9083 114.833 82.3337 114.833Z" fill="#4184A9"/>
<path d="M91.0002 114.833C90.4255 114.833 89.8744 114.605 89.4681 114.199C89.0618 113.792 88.8335 113.241 88.8335 112.667V106.167C88.8335 105.592 89.0618 105.041 89.4681 104.635C89.8744 104.228 90.4255 104 91.0002 104C91.5748 104 92.1259 104.228 92.5322 104.635C92.9386 105.041 93.1668 105.592 93.1668 106.167V112.667C93.1668 113.241 92.9386 113.792 92.5322 114.199C92.1259 114.605 91.5748 114.833 91.0002 114.833Z" fill="#4184A9"/>
<path d="M117 69.3333C116.426 69.3333 115.874 69.1051 115.468 68.6987C115.062 68.2924 114.833 67.7413 114.833 67.1667V60.6667C114.833 60.092 115.062 59.5409 115.468 59.1346C115.874 58.7283 116.426 58.5 117 58.5C117.575 58.5 118.126 58.7283 118.532 59.1346C118.939 59.5409 119.167 60.092 119.167 60.6667V67.1667C119.167 67.7413 118.939 68.2924 118.532 68.6987C118.126 69.1051 117.575 69.3333 117 69.3333Z" fill="#4184A9"/>
<path d="M108.334 69.3333C107.759 69.3333 107.208 69.1051 106.802 68.6987C106.395 68.2924 106.167 67.7413 106.167 67.1667V60.6667C106.167 60.092 106.395 59.5409 106.802 59.1346C107.208 58.7283 107.759 58.5 108.334 58.5C108.908 58.5 109.459 58.7283 109.866 59.1346C110.272 59.5409 110.5 60.092 110.5 60.6667V67.1667C110.5 67.7413 110.272 68.2924 109.866 68.6987C109.459 69.1051 108.908 69.3333 108.334 69.3333Z" fill="#4184A9"/>
<path d="M117 84.4993C116.426 84.4993 115.874 84.2711 115.468 83.8647C115.062 83.4584 114.833 82.9073 114.833 82.3327V75.8327C114.833 75.258 115.062 74.7069 115.468 74.3006C115.874 73.8943 116.426 73.666 117 73.666C117.575 73.666 118.126 73.8943 118.532 74.3006C118.939 74.7069 119.167 75.258 119.167 75.8327V82.3327C119.167 82.9073 118.939 83.4584 118.532 83.8647C118.126 84.2711 117.575 84.4993 117 84.4993Z" fill="#4184A9"/>
<path d="M108.334 84.4993C107.759 84.4993 107.208 84.2711 106.802 83.8647C106.395 83.4584 106.167 82.9073 106.167 82.3327V75.8327C106.167 75.258 106.395 74.7069 106.802 74.3006C107.208 73.8943 107.759 73.666 108.334 73.666C108.908 73.666 109.459 73.8943 109.866 74.3006C110.272 74.7069 110.5 75.258 110.5 75.8327V82.3327C110.5 82.9073 110.272 83.4584 109.866 83.8647C109.459 84.2711 108.908 84.4993 108.334 84.4993Z" fill="#4184A9"/>
<path d="M117 99.6654C116.426 99.6654 115.874 99.4371 115.468 99.0308C115.062 98.6244 114.833 98.0733 114.833 97.4987V90.9987C114.833 90.4241 115.062 89.873 115.468 89.4666C115.874 89.0603 116.426 88.832 117 88.832C117.575 88.832 118.126 89.0603 118.532 89.4666C118.939 89.873 119.167 90.4241 119.167 90.9987V97.4987C119.167 98.0733 118.939 98.6244 118.532 99.0308C118.126 99.4371 117.575 99.6654 117 99.6654Z" fill="#4184A9"/>
<path d="M108.334 99.6654C107.759 99.6654 107.208 99.4371 106.802 99.0308C106.395 98.6244 106.167 98.0733 106.167 97.4987V90.9987C106.167 90.4241 106.395 89.873 106.802 89.4666C107.208 89.0603 107.759 88.832 108.334 88.832C108.908 88.832 109.459 89.0603 109.866 89.4666C110.272 89.873 110.5 90.4241 110.5 90.9987V97.4987C110.5 98.0733 110.272 98.6244 109.866 99.0308C109.459 99.4371 108.908 99.6654 108.334 99.6654Z" fill="#4184A9"/>
<path d="M117 114.833C116.426 114.833 115.874 114.605 115.468 114.199C115.062 113.792 114.833 113.241 114.833 112.667V106.167C114.833 105.592 115.062 105.041 115.468 104.635C115.874 104.228 116.426 104 117 104C117.575 104 118.126 104.228 118.532 104.635C118.939 105.041 119.167 105.592 119.167 106.167V112.667C119.167 113.241 118.939 113.792 118.532 114.199C118.126 114.605 117.575 114.833 117 114.833Z" fill="#4184A9"/>
<path d="M108.334 114.833C107.759 114.833 107.208 114.605 106.802 114.199C106.395 113.792 106.167 113.241 106.167 112.667V106.167C106.167 105.592 106.395 105.041 106.802 104.635C107.208 104.228 107.759 104 108.334 104C108.908 104 109.459 104.228 109.866 104.635C110.272 105.041 110.5 105.592 110.5 106.167V112.667C110.5 113.241 110.272 113.792 109.866 114.199C109.459 114.605 108.908 114.833 108.334 114.833Z" fill="#4184A9"/>
<path d="M62.8335 73.666H67.1668V84.4993H62.8335V73.666Z" fill="#9EBBCE"/>
<path d="M80.1667 84.5H67.1667C66.592 84.5 66.0409 84.7283 65.6346 85.1346C65.2283 85.5409 65 86.092 65 86.6667C65 87.2413 65.2283 87.7924 65.6346 88.1987C66.0409 88.6051 66.592 88.8333 67.1667 88.8333H80.1667C80.7413 88.8333 81.2924 88.6051 81.6987 88.1987C82.1051 87.7924 82.3333 87.2413 82.3333 86.6667C82.3333 86.092 82.1051 85.5409 81.6987 85.1346C81.2924 84.7283 80.7413 84.5 80.1667 84.5Z" fill="#9EBBCE"/>
<path d="M62.8332 84.5H49.8332C49.2585 84.5 48.7074 84.7283 48.3011 85.1346C47.8948 85.5409 47.6665 86.092 47.6665 86.6667C47.6665 87.2413 47.8948 87.7924 48.3011 88.1987C48.7074 88.6051 49.2585 88.8333 49.8332 88.8333H62.8332C63.4078 88.8333 63.9589 88.6051 64.3652 88.1987C64.7716 87.7924 64.9998 87.2413 64.9998 86.6667C64.9998 86.092 64.7716 85.5409 64.3652 85.1346C63.9589 84.7283 63.4078 84.5 62.8332 84.5Z" fill="#9EBBCE"/>
<path d="M64.9998 91.0007C67.3931 91.0007 69.3332 89.0606 69.3332 86.6673C69.3332 84.2741 67.3931 82.334 64.9998 82.334C62.6066 82.334 60.6665 84.2741 60.6665 86.6673C60.6665 89.0606 62.6066 91.0007 64.9998 91.0007Z" fill="#5E7D84"/>
<path d="M86.6667 58.5H43.3333C40.9401 58.5 39 60.4401 39 62.8333V71.5C39 73.8932 40.9401 75.8333 43.3333 75.8333H86.6667C89.0599 75.8333 91 73.8932 91 71.5V62.8333C91 60.4401 89.0599 58.5 86.6667 58.5Z" fill="#5E7D84"/>
<path d="M86.6667 41.166H43.3333C40.9401 41.166 39 43.1061 39 45.4993V54.166C39 56.5592 40.9401 58.4993 43.3333 58.4993H86.6667C89.0599 58.4993 91 56.5592 91 54.166V45.4993C91 43.1061 89.0599 41.166 86.6667 41.166Z" fill="#4E696D"/>
<path d="M86.6667 23.834H43.3333C40.9401 23.834 39 25.7741 39 28.1673V36.834C39 39.2272 40.9401 41.1673 43.3333 41.1673H86.6667C89.0599 41.1673 91 39.2272 91 36.834V28.1673C91 25.7741 89.0599 23.834 86.6667 23.834Z" fill="#5E7D84"/>
<path d="M82.3333 69.3333H73.6667C73.092 69.3333 72.5409 69.1051 72.1346 68.6987C71.7283 68.2924 71.5 67.7413 71.5 67.1667C71.5 66.592 71.7283 66.0409 72.1346 65.6346C72.5409 65.2283 73.092 65 73.6667 65H82.3333C82.908 65 83.4591 65.2283 83.8654 65.6346C84.2717 66.0409 84.5 66.592 84.5 67.1667C84.5 67.7413 84.2717 68.2924 83.8654 68.6987C83.4591 69.1051 82.908 69.3333 82.3333 69.3333Z" fill="#425C5E"/>
<path d="M82.3333 51.9993H73.6667C73.092 51.9993 72.5409 51.7711 72.1346 51.3647C71.7283 50.9584 71.5 50.4073 71.5 49.8327C71.5 49.258 71.7283 48.7069 72.1346 48.3006C72.5409 47.8943 73.092 47.666 73.6667 47.666H82.3333C82.908 47.666 83.4591 47.8943 83.8654 48.3006C84.2717 48.7069 84.5 49.258 84.5 49.8327C84.5 50.4073 84.2717 50.9584 83.8654 51.3647C83.4591 51.7711 82.908 51.9993 82.3333 51.9993Z" fill="#395254"/>
<path d="M49.8333 34.6673H47.6667C47.092 34.6673 46.5409 34.439 46.1346 34.0327C45.7283 33.6264 45.5 33.0753 45.5 32.5007C45.5 31.926 45.7283 31.3749 46.1346 30.9686C46.5409 30.5623 47.092 30.334 47.6667 30.334H49.8333C50.408 30.334 50.9591 30.5623 51.3654 30.9686C51.7717 31.3749 52 31.926 52 32.5007C52 33.0753 51.7717 33.6264 51.3654 34.0327C50.9591 34.439 50.408 34.6673 49.8333 34.6673Z" fill="#78EDFD"/>
<path d="M60.6668 34.6673H58.5002C57.9255 34.6673 57.3744 34.439 56.9681 34.0327C56.5618 33.6264 56.3335 33.0753 56.3335 32.5007C56.3335 31.926 56.5618 31.3749 56.9681 30.9686C57.3744 30.5623 57.9255 30.334 58.5002 30.334H60.6668C61.2415 30.334 61.7926 30.5623 62.1989 30.9686C62.6052 31.3749 62.8335 31.926 62.8335 32.5007C62.8335 33.0753 62.6052 33.6264 62.1989 34.0327C61.7926 34.439 61.2415 34.6673 60.6668 34.6673Z" fill="#FDE05E"/>
<path d="M49.8333 51.9993H47.6667C47.092 51.9993 46.5409 51.7711 46.1346 51.3647C45.7283 50.9584 45.5 50.4073 45.5 49.8327C45.5 49.258 45.7283 48.7069 46.1346 48.3006C46.5409 47.8943 47.092 47.666 47.6667 47.666H49.8333C50.408 47.666 50.9591 47.8943 51.3654 48.3006C51.7717 48.7069 52 49.258 52 49.8327C52 50.4073 51.7717 50.9584 51.3654 51.3647C50.9591 51.7711 50.408 51.9993 49.8333 51.9993Z" fill="#78EDFD"/>
<path d="M60.6668 51.9993H58.5002C57.9255 51.9993 57.3744 51.7711 56.9681 51.3647C56.5618 50.9584 56.3335 50.4073 56.3335 49.8327C56.3335 49.258 56.5618 48.7069 56.9681 48.3006C57.3744 47.8943 57.9255 47.666 58.5002 47.666H60.6668C61.2415 47.666 61.7926 47.8943 62.1989 48.3006C62.6052 48.7069 62.8335 49.258 62.8335 49.8327C62.8335 50.4073 62.6052 50.9584 62.1989 51.3647C61.7926 51.7711 61.2415 51.9993 60.6668 51.9993Z" fill="#FDE05E"/>
<path d="M49.8333 69.3333H47.6667C47.092 69.3333 46.5409 69.1051 46.1346 68.6987C45.7283 68.2924 45.5 67.7413 45.5 67.1667C45.5 66.592 45.7283 66.0409 46.1346 65.6346C46.5409 65.2283 47.092 65 47.6667 65H49.8333C50.408 65 50.9591 65.2283 51.3654 65.6346C51.7717 66.0409 52 66.592 52 67.1667C52 67.7413 51.7717 68.2924 51.3654 68.6987C50.9591 69.1051 50.408 69.3333 49.8333 69.3333Z" fill="#78EDFD"/>
<path d="M60.6668 69.3333H58.5002C57.9255 69.3333 57.3744 69.1051 56.9681 68.6987C56.5618 68.2924 56.3335 67.7413 56.3335 67.1667C56.3335 66.592 56.5618 66.0409 56.9681 65.6346C57.3744 65.2283 57.9255 65 58.5002 65H60.6668C61.2415 65 61.7926 65.2283 62.1989 65.6346C62.6052 66.0409 62.8335 66.592 62.8335 67.1667C62.8335 67.7413 62.6052 68.2924 62.1989 68.6987C61.7926 69.1051 61.2415 69.3333 60.6668 69.3333Z" fill="#FDE05E"/>
<path d="M82.3333 34.6673H73.6667C73.092 34.6673 72.5409 34.439 72.1346 34.0327C71.7283 33.6264 71.5 33.0753 71.5 32.5007C71.5 31.926 71.7283 31.3749 72.1346 30.9686C72.5409 30.5623 73.092 30.334 73.6667 30.334H82.3333C82.908 30.334 83.4591 30.5623 83.8654 30.9686C84.2717 31.3749 84.5 31.926 84.5 32.5007C84.5 33.0753 84.2717 33.6264 83.8654 34.0327C83.4591 34.439 82.908 34.6673 82.3333 34.6673Z" fill="#425C5E"/>
</svg>
