<svg width="70" height="70" viewBox="0 0 70 70" fill="none" xmlns="http://www.w3.org/2000/svg">
<path d="M35.0001 64.5312C62.3439 59.0625 61.2501 25.1562 61.2501 25.1562V17.5C61.2501 17.5 49.2189 18.5938 44.8439 8.75H25.1564C20.7814 18.5938 8.75014 17.5 8.75014 17.5V25.1562C8.75014 25.1562 7.65639 59.0625 35.0001 64.5312Z" fill="#2981BD"/>
<path d="M39.3805 57.9679L39.3783 57.9668L39.375 57.9679H39.3805Z" fill="#662D91"/>
<path d="M61.25 25.1562V17.5C61.25 17.5 49.2188 18.5938 44.8438 8.75H25.1563C22.5007 14.7263 17.0254 16.6687 13.1305 17.2747V18.5938C13.1305 18.5938 12.0368 52.5 39.3805 57.9688C45.8468 56.7832 51.7089 53.4104 55.9836 48.4159C61.6307 37.4412 61.25 25.1562 61.25 25.1562Z" fill="#5499C9"/>
<path d="M45.9375 30.625H24.0625C22.8544 30.625 21.875 31.6044 21.875 32.8125V51.4062C21.875 52.6144 22.8544 53.5938 24.0625 53.5938H45.9375C47.1456 53.5938 48.125 52.6144 48.125 51.4062V32.8125C48.125 31.6044 47.1456 30.625 45.9375 30.625Z" fill="#FFB127"/>
<path d="M45.9375 30.625H25.1562V44.1066C25.1563 45.7525 25.8101 47.331 26.9739 48.4948C28.1378 49.6587 29.7163 50.3125 31.3622 50.3125H48.125V32.8125C48.125 32.2323 47.8945 31.6759 47.4843 31.2657C47.0741 30.8555 46.5177 30.625 45.9375 30.625Z" fill="#FFC239"/>
<path d="M35 43.75C37.4162 43.75 39.375 41.7912 39.375 39.375C39.375 36.9588 37.4162 35 35 35C32.5838 35 30.625 36.9588 30.625 39.375C30.625 41.7912 32.5838 43.75 35 43.75Z" fill="#E5E5E5"/>
<path d="M40.4688 30.625V24.0625C40.4688 22.9022 40.0078 21.7894 39.1873 20.9689C38.3669 20.1484 37.2541 19.6875 36.0938 19.6875H33.9062C32.7459 19.6875 31.6331 20.1484 30.8127 20.9689C29.9922 21.7894 29.5312 22.9022 29.5312 24.0625V30.625H25.1562V24.0625C25.1562 21.7419 26.0781 19.5163 27.7191 17.8753C29.36 16.2344 31.5856 15.3125 33.9062 15.3125H36.0938C38.4144 15.3125 40.64 16.2344 42.2809 17.8753C43.9219 19.5163 44.8438 21.7419 44.8438 24.0625V30.625H40.4688Z" fill="#BDBDBE"/>
<path d="M34.9999 35C34.1072 35 33.2362 35.2745 32.505 35.7864C31.9183 36.6279 31.6463 37.6489 31.7367 38.6707C31.8272 39.6925 32.2742 40.65 32.9995 41.3753C33.7249 42.1007 34.6823 42.5477 35.7041 42.6381C36.7259 42.7285 37.747 42.4566 38.5884 41.8698C39.0457 41.2144 39.3145 40.4462 39.3656 39.6486C39.4166 38.8511 39.248 38.0548 38.8779 37.3464C38.5079 36.6381 37.9507 36.0447 37.2669 35.631C36.5832 35.2173 35.799 34.9991 34.9999 35Z" fill="#F2F2F2"/>
<path d="M36.0937 15.3125H33.9062C31.9547 15.3115 30.0595 15.9664 28.5249 17.1719C28.643 17.5802 28.89 17.9393 29.2291 18.1956C29.5682 18.4519 29.9811 18.5916 30.4062 18.5938H37.2662C37.9737 18.5933 38.6745 18.7323 39.3283 19.0027C39.9822 19.2732 40.5763 19.6698 41.0769 20.1699C41.5774 20.6701 41.9745 21.2639 42.2455 21.9175C42.5165 22.5712 42.656 23.2718 42.6562 23.9794V26.6186C42.6564 27.1009 42.8482 27.5634 43.1892 27.9044C43.5303 28.2455 43.9927 28.4372 44.4751 28.4375H44.8437V24.0625C44.8437 21.7419 43.9218 19.5163 42.2808 17.8753C40.6399 16.2344 38.4143 15.3125 36.0937 15.3125Z" fill="#D7D7D8"/>
<path d="M44.8438 24.0625C44.8438 23.4584 44.3541 22.9688 43.75 22.9688C43.1459 22.9688 42.6562 23.4584 42.6562 24.0625V26.25C42.6562 26.8541 43.1459 27.3438 43.75 27.3438C44.3541 27.3438 44.8438 26.8541 44.8438 26.25V24.0625Z" fill="#F2F2F2"/>
<path d="M40.4688 39.3758C40.4685 38.3411 40.1748 37.3277 39.6216 36.4533C39.0684 35.5788 38.2785 34.8793 37.3436 34.4358C36.4087 33.9924 35.3672 33.8233 34.3401 33.9482C33.3129 34.073 32.3423 34.4867 31.5408 35.1412C30.7394 35.7957 30.1401 36.6642 29.8125 37.6457C29.485 38.6272 29.4426 39.6815 29.6903 40.6861C29.938 41.6907 30.4656 42.6045 31.2119 43.3212C31.9581 44.038 32.8924 44.5283 33.9062 44.7352V50.3133H36.0937V44.7352C37.3281 44.4814 38.4373 43.8097 39.2342 42.8335C40.0311 41.8572 40.4672 40.6361 40.4688 39.3758ZM35 42.6571C34.351 42.6571 33.7166 42.4646 33.177 42.1041C32.6374 41.7435 32.2169 41.2311 31.9685 40.6315C31.7202 40.0319 31.6552 39.3722 31.7818 38.7357C31.9084 38.0992 32.2209 37.5145 32.6798 37.0556C33.1387 36.5968 33.7234 36.2842 34.3599 36.1576C34.9964 36.031 35.6561 36.096 36.2557 36.3444C36.8552 36.5927 37.3677 37.0133 37.7283 37.5529C38.0888 38.0925 38.2812 38.7269 38.2812 39.3758C38.2812 40.2461 37.9355 41.0807 37.3202 41.696C36.7048 42.3114 35.8702 42.6571 35 42.6571Z" fill="#FFB127"/>
<path d="M65.625 60.1562C64.9488 60.1591 64.2899 60.3707 63.7386 60.7623C63.1873 61.1539 62.7704 61.7062 62.545 62.3438H54.6875V57.9688H52.5V63.4375C52.5 63.7276 52.6152 64.0058 52.8204 64.2109C53.0255 64.416 53.3037 64.5312 53.5938 64.5312H62.545C62.7465 65.0969 63.0996 65.5963 63.5657 65.9749C64.0318 66.3534 64.593 66.5966 65.188 66.6777C65.783 66.7589 66.3888 66.675 66.9393 66.4351C67.4898 66.1953 67.9638 65.8088 68.3094 65.3177C68.6551 64.8267 68.8592 64.2502 68.8993 63.651C68.9394 63.0519 68.8141 62.4533 68.5371 61.9205C68.26 61.3878 67.8418 60.9415 67.3283 60.6303C66.8147 60.3192 66.2255 60.1552 65.625 60.1562ZM65.625 64.5312C65.4087 64.5312 65.1972 64.4671 65.0173 64.3469C64.8375 64.2267 64.6973 64.0559 64.6145 63.8561C64.5317 63.6562 64.5101 63.4363 64.5523 63.2241C64.5945 63.012 64.6986 62.8171 64.8516 62.6641C65.0046 62.5111 65.1995 62.407 65.4116 62.3648C65.6238 62.3226 65.8437 62.3442 66.0436 62.427C66.2434 62.5098 66.4142 62.65 66.5344 62.8298C66.6546 63.0097 66.7188 63.2212 66.7188 63.4375C66.7188 63.7276 66.6035 64.0058 66.3984 64.2109C66.1933 64.416 65.9151 64.5312 65.625 64.5312Z" fill="#07DBD9"/>
<path d="M65.625 43.75C64.9488 43.7528 64.2899 43.9645 63.7386 44.356C63.1873 44.7476 62.7704 45.2999 62.545 45.9375H60.1562C59.8662 45.9375 59.588 46.0527 59.3829 46.2579C59.1777 46.463 59.0625 46.7412 59.0625 47.0313V52.5H56.875V54.6875H60.1562C60.4463 54.6875 60.7245 54.5723 60.9296 54.3672C61.1348 54.162 61.25 53.8838 61.25 53.5938V48.125H62.545C62.7465 48.6907 63.0996 49.1901 63.5657 49.5686C64.0318 49.9472 64.593 50.1903 65.188 50.2715C65.783 50.3527 66.3888 50.2687 66.9393 50.0289C67.4898 49.7891 67.9638 49.4025 68.3094 48.9115C68.6551 48.4205 68.8592 47.8439 68.8993 47.2448C68.9394 46.6457 68.8141 46.047 68.5371 45.5143C68.26 44.9816 67.8418 44.5352 67.3283 44.2241C66.8147 43.9129 66.2255 43.7489 65.625 43.75ZM65.625 48.125C65.4087 48.125 65.1972 48.0609 65.0173 47.9407C64.8375 47.8205 64.6973 47.6497 64.6145 47.4498C64.5317 47.25 64.5101 47.03 64.5523 46.8179C64.5945 46.6057 64.6986 46.4108 64.8516 46.2579C65.0046 46.1049 65.1995 46.0007 65.4116 45.9585C65.6238 45.9163 65.8437 45.938 66.0436 46.0208C66.2434 46.1035 66.4142 46.2437 66.5344 46.4236C66.6546 46.6035 66.7188 46.8149 66.7188 47.0313C66.7188 47.3213 66.6035 47.5995 66.3984 47.8047C66.1933 48.0098 65.9151 48.125 65.625 48.125Z" fill="#07DBD9"/>
<path d="M49.2188 1.09376C48.5425 1.09656 47.8837 1.30822 47.3324 1.69979C46.781 2.09136 46.3642 2.6437 46.1387 3.28126H39.375C39.0849 3.28126 38.8067 3.39649 38.6016 3.60161C38.3965 3.80673 38.2812 4.08492 38.2812 4.37501V6.56251H40.4688V5.46876H46.1387C46.3402 6.03441 46.6933 6.53381 47.1595 6.91236C47.6256 7.29091 48.1868 7.53406 48.7818 7.61524C49.3767 7.69642 49.9825 7.6125 50.533 7.37265C51.0835 7.1328 51.5575 6.74626 51.9032 6.25525C52.2488 5.76425 52.4529 5.18768 52.493 4.58855C52.5332 3.98941 52.4079 3.39077 52.1308 2.85804C51.8538 2.32531 51.4356 1.87898 50.922 1.56783C50.4084 1.25668 49.8192 1.09268 49.2188 1.09376ZM49.2188 5.46876C49.0024 5.46876 48.791 5.40461 48.6111 5.28442C48.4312 5.16424 48.291 4.99342 48.2083 4.79357C48.1255 4.59371 48.1038 4.37379 48.146 4.16163C48.1882 3.94946 48.2924 3.75457 48.4454 3.60161C48.5983 3.44864 48.7932 3.34447 49.0054 3.30227C49.2175 3.26007 49.4375 3.28173 49.6373 3.36451C49.8372 3.4473 50.008 3.58748 50.1282 3.76735C50.2484 3.94722 50.3125 4.15868 50.3125 4.37501C50.3125 4.66509 50.1973 4.94329 49.9921 5.1484C49.787 5.35352 49.5088 5.46876 49.2188 5.46876Z" fill="#07DBD9"/>
<path d="M65.625 2.18751C64.9488 2.19031 64.2899 2.40197 63.7386 2.79354C63.1873 3.18511 62.7704 3.73745 62.545 4.37501H60.1562C59.8662 4.37501 59.588 4.49024 59.3829 4.69536C59.1777 4.90048 59.0625 5.17867 59.0625 5.46876V9.84376H53.5938V12.0313H60.1562C60.4463 12.0313 60.7245 11.916 60.9296 11.7109C61.1348 11.5058 61.25 11.2276 61.25 10.9375V6.56251H62.545C62.7465 7.12816 63.0996 7.62756 63.5657 8.00611C64.0318 8.38466 64.593 8.62781 65.188 8.70899C65.783 8.79017 66.3888 8.70625 66.9393 8.4664C67.4898 8.22655 67.9638 7.84001 68.3094 7.349C68.6551 6.858 68.8592 6.28143 68.8993 5.6823C68.9394 5.08316 68.8141 4.48452 68.5371 3.95179C68.26 3.41906 67.8418 2.97273 67.3283 2.66158C66.8147 2.35043 66.2255 2.18643 65.625 2.18751ZM65.625 6.56251C65.4087 6.56251 65.1972 6.49836 65.0173 6.37817C64.8375 6.25799 64.6973 6.08717 64.6145 5.88732C64.5317 5.68746 64.5101 5.46754 64.5523 5.25538C64.5945 5.04321 64.6986 4.84832 64.8516 4.69536C65.0046 4.54239 65.1995 4.43822 65.4116 4.39602C65.6238 4.35382 65.8437 4.37548 66.0436 4.45826C66.2434 4.54105 66.4142 4.68123 66.5344 4.8611C66.6546 5.04097 66.7188 5.25243 66.7188 5.46876C66.7188 5.75884 66.6035 6.03704 66.3984 6.24215C66.1933 6.44727 65.9151 6.56251 65.625 6.56251Z" fill="#07DBD9"/>
<path d="M65.625 60.1562C64.9488 60.1591 64.2899 60.3707 63.7386 60.7623C63.1873 61.1539 62.7704 61.7062 62.545 62.3438H54.6875V57.9688H53.5938V62.3438C53.5938 62.6338 53.709 62.912 53.9141 63.1171C54.1192 63.3223 54.3974 63.4375 54.6875 63.4375H64.5312C64.5312 63.1474 64.6465 62.8692 64.8516 62.6641C65.0567 62.459 65.3349 62.3438 65.625 62.3438C65.9151 62.3438 66.1933 62.459 66.3984 62.6641C66.6035 62.8692 66.7188 63.1474 66.7188 63.4375H68.9062C68.9062 62.5673 68.5605 61.7327 67.9452 61.1173C67.3298 60.502 66.4952 60.1562 65.625 60.1562Z" fill="#90FFE7"/>
<path d="M65.625 65.625C66.8331 65.625 67.8125 64.6456 67.8125 63.4375C67.8125 62.2294 66.8331 61.25 65.625 61.25C64.4169 61.25 63.4375 62.2294 63.4375 63.4375C63.4375 64.6456 64.4169 65.625 65.625 65.625Z" fill="#FFC239"/>
<path d="M65.625 43.75C64.9488 43.7528 64.2899 43.9645 63.7386 44.356C63.1873 44.7476 62.7704 45.2999 62.545 45.9375H60.1562C59.8662 45.9375 59.588 46.0527 59.3829 46.2579C59.1777 46.463 59.0625 46.7412 59.0625 47.0312V52.5H56.875V53.5938H59.0625C59.3526 53.5938 59.6308 53.4785 59.8359 53.2734C60.041 53.0683 60.1562 52.7901 60.1562 52.5V48.125C60.1562 47.8349 60.2715 47.5567 60.4766 47.3516C60.6817 47.1465 60.9599 47.0312 61.25 47.0312H64.5312C64.5312 46.7412 64.6465 46.463 64.8516 46.2579C65.0567 46.0527 65.3349 45.9375 65.625 45.9375C65.9151 45.9375 66.1933 46.0527 66.3984 46.2579C66.6035 46.463 66.7188 46.7412 66.7188 47.0312H68.9062C68.9062 46.161 68.5605 45.3264 67.9452 44.7111C67.3298 44.0957 66.4952 43.75 65.625 43.75Z" fill="#90FFE7"/>
<path d="M65.625 49.2188C66.8331 49.2188 67.8125 48.2394 67.8125 47.0312C67.8125 45.8231 66.8331 44.8438 65.625 44.8438C64.4169 44.8438 63.4375 45.8231 63.4375 47.0312C63.4375 48.2394 64.4169 49.2188 65.625 49.2188Z" fill="#FFC239"/>
<path d="M65.625 2.1875C64.9488 2.1903 64.2899 2.40197 63.7386 2.79353C63.1873 3.1851 62.7704 3.73744 62.545 4.375H60.1562C59.8662 4.375 59.588 4.49023 59.3829 4.69535C59.1777 4.90047 59.0625 5.17867 59.0625 5.46875V9.84375H53.5938V10.9375H59.0625C59.3526 10.9375 59.6308 10.8223 59.8359 10.6171C60.041 10.412 60.1562 10.1338 60.1562 9.84375V6.5625C60.1562 6.27242 60.2715 5.99422 60.4766 5.7891C60.6817 5.58398 60.9599 5.46875 61.25 5.46875H64.5312C64.5312 5.17867 64.6465 4.90047 64.8516 4.69535C65.0567 4.49023 65.3349 4.375 65.625 4.375C65.9151 4.375 66.1933 4.49023 66.3984 4.69535C66.6035 4.90047 66.7188 5.17867 66.7188 5.46875H68.9062C68.9062 4.59851 68.5605 3.76391 67.9452 3.14856C67.3298 2.5332 66.4952 2.1875 65.625 2.1875Z" fill="#90FFE7"/>
<path d="M65.625 7.65625C66.8331 7.65625 67.8125 6.67687 67.8125 5.46875C67.8125 4.26063 66.8331 3.28125 65.625 3.28125C64.4169 3.28125 63.4375 4.26063 63.4375 5.46875C63.4375 6.67687 64.4169 7.65625 65.625 7.65625Z" fill="#FFC239"/>
<path d="M49.2188 1.09375C48.5425 1.09655 47.8837 1.30822 47.3324 1.69978C46.781 2.09135 46.3642 2.64369 46.1387 3.28125H39.375C39.0849 3.28125 38.8067 3.39648 38.6016 3.6016C38.3965 3.80672 38.2812 4.08492 38.2812 4.375V6.5625H39.375V5.46875C39.375 5.17867 39.4902 4.90047 39.6954 4.69535C39.9005 4.49023 40.1787 4.375 40.4688 4.375H48.125C48.125 4.08492 48.2402 3.80672 48.4454 3.6016C48.6505 3.39648 48.9287 3.28125 49.2188 3.28125C49.5088 3.28125 49.787 3.39648 49.9921 3.6016C50.1973 3.80672 50.3125 4.08492 50.3125 4.375H52.5C52.5 3.50476 52.1543 2.67016 51.5389 2.05481C50.9236 1.43945 50.089 1.09375 49.2188 1.09375Z" fill="#90FFE7"/>
<path d="M49.2188 6.5625C50.4269 6.5625 51.4062 5.58312 51.4062 4.375C51.4062 3.16688 50.4269 2.1875 49.2188 2.1875C48.0106 2.1875 47.0312 3.16688 47.0312 4.375C47.0312 5.58312 48.0106 6.5625 49.2188 6.5625Z" fill="#FFC239"/>
<path d="M1.09376 63.4375C1.09229 64.2106 1.36448 64.9593 1.86211 65.5509C2.35975 66.1425 3.05071 66.539 3.81262 66.67C4.57454 66.801 5.35823 66.6581 6.02489 66.2666C6.69156 65.8752 7.19817 65.2604 7.45501 64.5312H16.4063C16.6963 64.5312 16.9745 64.416 17.1797 64.2109C17.3848 64.0058 17.5 63.7276 17.5 63.4375V57.9688H15.3125V62.3438H7.45501C7.19817 61.6146 6.69156 60.9998 6.02489 60.6084C5.35823 60.2169 4.57454 60.074 3.81262 60.205C3.05071 60.336 2.35975 60.7325 1.86211 61.3241C1.36448 61.9157 1.09229 62.6644 1.09376 63.4375ZM3.28126 63.4375C3.28126 63.2212 3.3454 63.0097 3.46559 62.8298C3.58577 62.65 3.75659 62.5098 3.95645 62.427C4.1563 62.3442 4.37622 62.3226 4.58839 62.3648C4.80055 62.407 4.99544 62.5111 5.1484 62.6641C5.30137 62.8171 5.40554 63.012 5.44774 63.2241C5.48994 63.4363 5.46828 63.6562 5.3855 63.8561C5.30272 64.0559 5.16253 64.2267 4.98266 64.3469C4.80279 64.4671 4.59133 64.5312 4.37501 64.5312C4.08493 64.5312 3.80673 64.416 3.60161 64.2109C3.39649 64.0058 3.28126 63.7276 3.28126 63.4375Z" fill="#07DBD9"/>
<path d="M1.09376 47.0318C1.09229 47.8048 1.36448 48.5535 1.86211 49.1451C2.35975 49.7368 3.05071 50.1332 3.81262 50.2642C4.57454 50.3952 5.35823 50.2523 6.02489 49.8609C6.69156 49.4694 7.19817 48.8547 7.45501 48.1255H8.75001V53.5943C8.75001 53.8843 8.86524 54.1625 9.07036 54.3677C9.27548 54.5728 9.55368 54.688 9.84376 54.688H13.125V52.5005H10.9375V47.0318C10.9375 46.7417 10.8223 46.4635 10.6172 46.2584C10.412 46.0532 10.1338 45.938 9.84376 45.938H7.45501C7.19817 45.2088 6.69156 44.5941 6.02489 44.2026C5.35823 43.8112 4.57454 43.6683 3.81262 43.7993C3.05071 43.9303 2.35975 44.3267 1.86211 44.9184C1.36448 45.51 1.09229 46.2587 1.09376 47.0318ZM3.28126 47.0318C3.28126 46.8154 3.3454 46.604 3.46559 46.4241C3.58577 46.2442 3.75659 46.104 3.95645 46.0213C4.1563 45.9385 4.37622 45.9168 4.58839 45.959C4.80055 46.0012 4.99544 46.1054 5.1484 46.2584C5.30137 46.4113 5.40554 46.6062 5.44774 46.8184C5.48994 47.0305 5.46828 47.2505 5.3855 47.4503C5.30272 47.6502 5.16253 47.821 4.98266 47.9412C4.80279 48.0614 4.59133 48.1255 4.37501 48.1255C4.08493 48.1255 3.80673 48.0103 3.60161 47.8052C3.39649 47.6 3.28126 47.3218 3.28126 47.0318Z" fill="#07DBD9"/>
<path d="M17.5 4.37551C17.4985 5.1486 17.7707 5.89726 18.2684 6.4889C18.766 7.08053 19.457 7.47696 20.2189 7.60796C20.9808 7.73896 21.7645 7.59609 22.4311 7.20464C23.0978 6.8132 23.6044 6.19844 23.8613 5.46926H29.5313V6.56301H31.7188V4.37551C31.7188 4.08543 31.6035 3.80723 31.3984 3.60211C31.1933 3.39699 30.9151 3.28176 30.625 3.28176H23.8613C23.6044 2.55257 23.0978 1.93782 22.4311 1.54637C21.7645 1.15492 20.9808 1.01205 20.2189 1.14305C19.457 1.27405 18.766 1.67048 18.2684 2.26212C17.7707 2.85375 17.4985 3.60242 17.5 4.37551ZM19.6875 4.37551C19.6875 4.15918 19.7517 3.94772 19.8718 3.76785C19.992 3.58799 20.1628 3.4478 20.3627 3.36501C20.5626 3.28223 20.7825 3.26057 20.9946 3.30277C21.2068 3.34498 21.4017 3.44914 21.5547 3.60211C21.7076 3.75507 21.8118 3.94996 21.854 4.16213C21.8962 4.37429 21.8745 4.59421 21.7917 4.79407C21.709 4.99392 21.5688 5.16474 21.3889 5.28493C21.209 5.40511 20.9976 5.46926 20.7813 5.46926C20.4912 5.46926 20.213 5.35402 20.0079 5.1489C19.8027 4.94379 19.6875 4.66559 19.6875 4.37551Z" fill="#07DBD9"/>
<path d="M1.09376 5.46926C1.09229 6.24235 1.36448 6.99101 1.86211 7.58265C2.35975 8.17428 3.05071 8.57071 3.81262 8.70171C4.57454 8.83271 5.35823 8.68984 6.02489 8.29839C6.69156 7.90695 7.19817 7.29219 7.45501 6.56301H8.75001V10.938C8.75001 11.2281 8.86524 11.5063 9.07036 11.7114C9.27548 11.9165 9.55368 12.0318 9.84376 12.0318H16.4063V9.84426H10.9375V5.46926C10.9375 5.17918 10.8223 4.90098 10.6172 4.69586C10.412 4.49074 10.1338 4.37551 9.84376 4.37551H7.45501C7.19817 3.64632 6.69156 3.03157 6.02489 2.64012C5.35823 2.24867 4.57454 2.1058 3.81262 2.2368C3.05071 2.3678 2.35975 2.76423 1.86211 3.35587C1.36448 3.9475 1.09229 4.69617 1.09376 5.46926ZM3.28126 5.46926C3.28126 5.25293 3.3454 5.04147 3.46559 4.8616C3.58577 4.68174 3.75659 4.54155 3.95645 4.45876C4.1563 4.37598 4.37622 4.35432 4.58839 4.39652C4.80055 4.43873 4.99544 4.5429 5.1484 4.69586C5.30137 4.84882 5.40554 5.04371 5.44774 5.25588C5.48994 5.46804 5.46828 5.68796 5.3855 5.88782C5.30272 6.08767 5.16253 6.25849 4.98266 6.37868C4.80279 6.49886 4.59133 6.56301 4.37501 6.56301C4.08493 6.56301 3.80673 6.44777 3.60161 6.24265C3.39649 6.03754 3.28126 5.75934 3.28126 5.46926Z" fill="#07DBD9"/>
<path d="M4.375 60.1562C5.05122 60.1591 5.71006 60.3707 6.26139 60.7623C6.81272 61.1539 7.2296 61.7062 7.455 62.3438H15.3125V57.9688H16.4062V62.3438C16.4062 62.6338 16.291 62.912 16.0859 63.1171C15.8808 63.3223 15.6026 63.4375 15.3125 63.4375H5.46875C5.46875 63.1474 5.35352 62.8692 5.1484 62.6641C4.94328 62.459 4.66508 62.3438 4.375 62.3438C4.08492 62.3438 3.80672 62.459 3.6016 62.6641C3.39648 62.8692 3.28125 63.1474 3.28125 63.4375H1.09375C1.09375 62.5673 1.43945 61.7327 2.05481 61.1173C2.67016 60.502 3.50476 60.1562 4.375 60.1562Z" fill="#90FFE7"/>
<path d="M4.375 65.625C5.58312 65.625 6.5625 64.6456 6.5625 63.4375C6.5625 62.2294 5.58312 61.25 4.375 61.25C3.16688 61.25 2.1875 62.2294 2.1875 63.4375C2.1875 64.6456 3.16688 65.625 4.375 65.625Z" fill="#FFC239"/>
<path d="M4.375 43.75C5.05122 43.7528 5.71006 43.9645 6.26139 44.356C6.81272 44.7476 7.2296 45.2999 7.455 45.9375H9.84375C10.1338 45.9375 10.412 46.0527 10.6171 46.2579C10.8223 46.463 10.9375 46.7412 10.9375 47.0312V52.5H13.125V53.5938H10.9375C10.6474 53.5938 10.3692 53.4785 10.1641 53.2734C9.95898 53.0683 9.84375 52.7901 9.84375 52.5V48.125C9.84375 47.8349 9.72852 47.5567 9.5234 47.3516C9.31828 47.1465 9.04008 47.0312 8.75 47.0312H5.46875C5.46875 46.7412 5.35352 46.463 5.1484 46.2579C4.94328 46.0527 4.66508 45.9375 4.375 45.9375C4.08492 45.9375 3.80672 46.0527 3.6016 46.2579C3.39648 46.463 3.28125 46.7412 3.28125 47.0312H1.09375C1.09375 46.161 1.43945 45.3264 2.05481 44.7111C2.67016 44.0957 3.50476 43.75 4.375 43.75Z" fill="#90FFE7"/>
<path d="M4.375 49.2188C5.58312 49.2188 6.5625 48.2394 6.5625 47.0312C6.5625 45.8231 5.58312 44.8438 4.375 44.8438C3.16688 44.8438 2.1875 45.8231 2.1875 47.0312C2.1875 48.2394 3.16688 49.2188 4.375 49.2188Z" fill="#FFC239"/>
<path d="M4.375 2.1875C5.05122 2.1903 5.71006 2.40197 6.26139 2.79353C6.81272 3.1851 7.2296 3.73744 7.455 4.375H9.84375C10.1338 4.375 10.412 4.49023 10.6171 4.69535C10.8223 4.90047 10.9375 5.17867 10.9375 5.46875V9.84375H16.4062V10.9375H10.9375C10.6474 10.9375 10.3692 10.8223 10.1641 10.6171C9.95898 10.412 9.84375 10.1338 9.84375 9.84375V6.5625C9.84375 6.27242 9.72852 5.99422 9.5234 5.7891C9.31828 5.58398 9.04008 5.46875 8.75 5.46875H5.46875C5.46875 5.17867 5.35352 4.90047 5.1484 4.69535C4.94328 4.49023 4.66508 4.375 4.375 4.375C4.08492 4.375 3.80672 4.49023 3.6016 4.69535C3.39648 4.90047 3.28125 5.17867 3.28125 5.46875H1.09375C1.09375 4.59851 1.43945 3.76391 2.05481 3.14856C2.67016 2.5332 3.50476 2.1875 4.375 2.1875Z" fill="#90FFE7"/>
<path d="M4.375 7.65625C5.58312 7.65625 6.5625 6.67687 6.5625 5.46875C6.5625 4.26063 5.58312 3.28125 4.375 3.28125C3.16688 3.28125 2.1875 4.26063 2.1875 5.46875C2.1875 6.67687 3.16688 7.65625 4.375 7.65625Z" fill="#FFC239"/>
<path d="M20.7812 1.09375C21.4575 1.09655 22.1163 1.30822 22.6676 1.69978C23.219 2.09135 23.6358 2.64369 23.8612 3.28125H30.625C30.9151 3.28125 31.1933 3.39648 31.3984 3.6016C31.6035 3.80672 31.7188 4.08492 31.7188 4.375V6.5625H30.625V5.46875C30.625 5.17867 30.5098 4.90047 30.3046 4.69535C30.0995 4.49023 29.8213 4.375 29.5312 4.375H21.875C21.875 4.08492 21.7598 3.80672 21.5546 3.6016C21.3495 3.39648 21.0713 3.28125 20.7812 3.28125C20.4912 3.28125 20.213 3.39648 20.0079 3.6016C19.8027 3.80672 19.6875 4.08492 19.6875 4.375H17.5C17.5 3.50476 17.8457 2.67016 18.4611 2.05481C19.0764 1.43945 19.911 1.09375 20.7812 1.09375Z" fill="#90FFE7"/>
<path d="M20.7812 6.5625C21.9894 6.5625 22.9688 5.58312 22.9688 4.375C22.9688 3.16688 21.9894 2.1875 20.7812 2.1875C19.5731 2.1875 18.5938 3.16688 18.5938 4.375C18.5938 5.58312 19.5731 6.5625 20.7812 6.5625Z" fill="#FFC239"/>
</svg>
