<svg width="130" height="130" viewBox="0 0 130 130" fill="none" xmlns="http://www.w3.org/2000/svg">
<path d="M86.1453 62.8332C94.2803 62.3685 100.498 55.3971 100.034 47.2621C99.5692 39.127 92.5978 32.9089 84.4627 33.3736C76.3277 33.8382 70.1096 40.8096 70.5742 48.9446C71.0388 57.0797 78.0102 63.2978 86.1453 62.8332Z" fill="#FFD54F"/>
<path fill-rule="evenodd" clip-rule="evenodd" d="M35.3496 98.9253L59.3879 122.964C60.6699 124.246 62.7613 124.246 64.0433 122.964L68.8825 118.124C70.1645 116.842 70.1645 114.751 68.8825 113.469L45.2921 89.8789L35.3496 98.9253Z" fill="#C8C9CD"/>
<path fill-rule="evenodd" clip-rule="evenodd" d="M42.0812 73.0904C45.3307 78.7185 43.3845 85.982 37.7565 89.2315L23.2536 97.6048C17.6255 100.854 10.362 98.9079 7.11251 93.2798C3.86302 87.6517 5.80947 80.3882 11.4376 77.1387L25.9404 68.7654C31.5685 65.5159 38.8317 67.4621 42.0812 73.0904Z" fill="#C8C9CD"/>
<path fill-rule="evenodd" clip-rule="evenodd" d="M31.3842 54.5632L14.4164 64.3597C11.1598 66.2398 10.0373 70.4293 11.9175 73.6859L26.4846 98.9166C28.3648 102.173 32.5542 103.296 35.8106 101.416L52.7784 91.619L105.789 79.9208L68.0206 14.5039L31.3842 54.5632Z" fill="#FFD54F"/>
<path fill-rule="evenodd" clip-rule="evenodd" d="M61.0727 12.9207C63.7017 11.4031 67.0941 12.3118 68.6119 14.9408L105.706 79.1889C107.223 81.8179 106.314 85.2103 103.686 86.7282C101.057 88.246 97.6642 87.3368 96.1466 84.7081L59.0526 20.4599C57.5348 17.831 58.4438 14.4385 61.0727 12.9207Z" fill="#FFB700"/>
<path fill-rule="evenodd" clip-rule="evenodd" d="M26.4845 98.9156C28.3647 102.172 32.5542 103.295 35.8105 101.415L52.7783 91.6181C45.6468 79.2661 38.5156 66.914 31.3842 54.5625L14.4164 64.3587C11.16 66.2389 10.0373 70.4281 11.9174 73.6847L26.4845 98.9156Z" fill="#FFB700"/>
<path fill-rule="evenodd" clip-rule="evenodd" d="M109.701 36.2437C108.794 36.7695 107.631 36.4598 107.105 35.5518C106.579 34.6438 106.889 33.4814 107.797 32.9556L120.064 25.8731C120.972 25.3473 122.135 25.6571 122.661 26.565C123.186 27.473 122.877 28.6354 121.969 29.1612L109.701 36.2437ZM89.0551 21.1424C89.0551 22.19 88.2058 23.0393 87.1582 23.0393C86.1105 23.0393 85.2612 22.19 85.2612 21.1424V7.9692C85.2612 6.92158 86.1105 6.07227 87.1582 6.07227C88.2058 6.07227 89.0551 6.92158 89.0551 7.9692V21.1424ZM101.4 26.19L108.35 14.1521C108.872 13.2441 108.559 12.0853 107.651 11.5635C106.743 11.0417 105.584 11.3548 105.063 12.2628L98.1124 24.3004C97.5907 25.2084 97.9037 26.3672 98.8117 26.889C99.7197 27.4108 100.879 27.0977 101.4 26.19ZM108.664 61.6709C107.756 61.1491 107.443 59.99 107.965 59.0823C108.486 58.1743 109.645 57.8613 110.553 58.383L121.961 64.9694C122.869 65.4911 123.182 66.6502 122.661 67.5579C122.139 68.4659 120.98 68.779 120.072 68.2572L108.664 61.6709ZM112.354 48.9697C111.303 48.9697 110.45 48.1171 110.45 47.0654C110.45 46.0137 111.303 45.1611 112.354 45.1611H126.255C127.306 45.1611 128.159 46.0137 128.159 47.0654C128.159 48.1171 127.306 48.9697 126.255 48.9697H112.354Z" fill="#FFD54F"/>
<path d="M52.9433 68.6045C62.1676 59.3801 62.1676 44.4245 52.9433 35.2002C43.719 25.9759 28.7634 25.9759 19.539 35.2002C10.3147 44.4245 10.3147 59.3801 19.539 68.6045C28.7634 77.8288 43.719 77.8288 52.9433 68.6045Z" fill="#FF6372"/>
<path d="M51.2183 54.1286C52.4479 45.8563 46.7384 38.1534 38.466 36.9238C30.1935 35.6943 22.4905 41.4035 21.261 49.6759C20.0314 57.9482 25.7408 65.6511 34.0133 66.8806C42.2858 68.1102 49.9887 62.4009 51.2183 54.1286Z" fill="#F0F0F0"/>
<path d="M36.2505 58.7275C40.0191 58.7275 43.0742 55.6725 43.0742 51.9038C43.0742 48.1352 40.0191 45.0801 36.2505 45.0801C32.4818 45.0801 29.4268 48.1352 29.4268 51.9038C29.4268 55.6725 32.4818 58.7275 36.2505 58.7275Z" fill="#FF6372"/>
<path fill-rule="evenodd" clip-rule="evenodd" d="M19.2778 34.9312L10.6161 34.6846L1.84082 25.9091L10.5026 26.1559L10.2558 17.4941L19.0313 26.2694L19.2778 34.9312Z" fill="#8F8B81"/>
<path fill-rule="evenodd" clip-rule="evenodd" d="M11.4709 29.8169C10.7272 29.0735 10.7272 27.8677 11.4709 27.124C12.2143 26.3805 13.4201 26.3805 14.1635 27.124L37.5968 50.5572C38.3402 51.3007 38.3402 52.5065 37.5968 53.2502C36.8534 53.9936 35.6476 53.9936 34.9039 53.2502L11.4709 29.8169Z" fill="#8F8B81"/>
</svg>
