<svg width="130" height="130" viewBox="0 0 130 130" fill="none" xmlns="http://www.w3.org/2000/svg">
<path d="M69.951 29.5242L58.6662 0C47.4011 0 37.029 3.81773 28.7685 10.2268V12.5549L23.9077 14.5432C15.2154 23.3576 9.84863 35.46 9.84863 48.8175C9.89586 49.0275 9.58762 54.5655 11.6806 62.0222L14.5357 63.7805L13.1075 66.3386C14.7531 70.6443 17.2332 75.3177 20.9679 79.8401L27.8869 81.7444L24.9931 84.1565C26.5409 85.6299 27.7917 86.9941 28.9223 90.5889C30.622 95.9931 29.2829 101.896 25.5116 106.124L20.7267 111.487C29.3768 120.251 40.6104 126.455 53.1907 128.874L53.1927 128.875L53.1937 128.875L55.6048 126.876L57.89 129.593C60.2241 129.859 62.5954 130 65.0001 130C68.0366 130 71.021 129.778 73.9412 129.358C73.9518 124.676 73.9584 119.24 73.961 119.166C74.0491 116.463 75.2297 115.886 78.0867 110.594C78.4328 110.005 79.0675 109.609 79.7632 109.554L69.951 29.5242Z" fill="#1D2E79"/>
<path d="M54.4416 38.5597C53.0423 36.4447 53.2087 34.2761 53.6652 32.7191C54.1694 30.9989 55.0939 29.7243 55.3646 29.3749L57.8907 26.9852V12.385C57.8907 11.3852 57.2062 10.5442 56.2817 10.3005C53.8414 5.33736 57.1434 1.11033 58.1372 0.00558594C58.3137 0.00380859 58.4896 0 58.6664 0C66.9328 0 74.9156 1.8591 82.0115 5.2132V40.2853L54.4416 38.5597Z" fill="#2A428B"/>
<path d="M109.644 57.7298C108.069 55.8278 107.519 53.2801 108.165 50.8972C108.413 49.7081 109.28 47.6452 109.39 44.6381L75.8756 39.1738L55.7325 41.7129L55.0081 67.8624C53.6568 69.7566 49.9482 76.0255 55.3516 81.5635V91.3538L55.375 91.4173C55.4197 91.5389 56.5084 94.437 60.0583 98.1857C65.7671 104.215 73.4475 107.769 79.0825 109.725C79.5494 109.523 80.0925 109.481 80.6194 109.665C85.1559 111.041 88.2993 113.001 93.578 112.768C96.1498 112.654 98.5317 111.406 100.049 109.326C103.484 104.616 102.563 100.132 102.715 98.6823C102.715 94.6209 105.916 92.91 107.012 91.5791C108.691 89.9558 107.65 87.9281 107.626 87.5293C107.539 87.1872 107.658 86.8264 107.931 86.6028L110.963 84.117C111.231 83.8969 111.387 83.5683 111.387 83.2212V78.8685C111.387 78.5567 111.584 78.2802 111.878 78.1781C113.726 77.5375 120.152 75.1209 120.152 72.5C120.152 70.8037 114.597 63.7139 109.644 57.7298Z" fill="#2A428B"/>
<path d="M84.1699 62.4609C82.7679 62.4609 81.6309 63.5979 81.6309 65V79.4592H55.7324C54.3301 79.4592 53.1934 80.5962 53.1934 81.9983V96.4265C53.1934 97.8286 54.3301 98.9655 55.7324 98.9655C57.1345 98.9655 58.2715 97.8286 58.2715 96.4265V84.5373H84.1699C85.572 84.5373 86.709 83.4003 86.709 81.9983V65C86.709 63.5979 85.5722 62.4609 84.1699 62.4609Z" fill="#02C0FC"/>
<path d="M28.108 24.2767C28.108 25.6788 29.245 26.8158 30.647 26.8158C32.0491 26.8158 33.1861 25.6788 33.1861 24.2767V14.9238H53.1934V26.9849C53.1934 28.387 54.3301 29.5239 55.7325 29.5239C57.1345 29.5239 58.2715 28.387 58.2715 26.9849V12.3848C58.2715 10.9827 57.1345 9.8457 55.7325 9.8457H29.2655C27.2246 11.3877 25.3092 13.0866 23.5361 14.9238H28.108V24.2767Z" fill="#95DB76"/>
<path d="M80.7394 39.1728L77.4993 37.7461H55.7324C54.3301 37.7461 53.1934 38.8831 53.1934 40.2852V64.9999C53.1934 66.402 54.3301 67.5389 55.7324 67.5389C57.1345 67.5389 58.2715 66.402 58.2715 64.9999V42.824H79.3589C80.0589 41.6001 80.7394 39.1728 80.7394 39.1728Z" fill="#FEF156"/>
<path d="M39.549 79.459H20.6543C22.0475 81.1812 23.6222 82.8832 25.3983 84.5371H37.0099V111.197C37.0099 112.599 38.1467 113.736 39.549 113.736H53.1931V128.875C54.8633 129.196 56.5564 129.452 58.2713 129.637V111.197C58.2713 109.795 57.1343 108.658 55.7322 108.658H42.088V81.998C42.088 80.596 40.9511 79.459 39.549 79.459Z" fill="#9957BC"/>
<path d="M33.1857 64.1805V40.2852C33.1857 38.8831 32.0487 37.7461 30.6466 37.7461C29.2446 37.7461 28.1076 38.8831 28.1076 40.2852V61.6415H11.5747C12.0132 63.252 12.5634 64.9562 13.2543 66.7196H30.6469C32.0489 66.7196 33.1857 65.5826 33.1857 64.1805Z" fill="#1D8DF2"/>
<path d="M55.7324 69.3223C58.5721 69.3223 60.874 67.0203 60.874 64.1807C60.874 61.341 58.5721 59.0391 55.7324 59.0391C52.8928 59.0391 50.5908 61.341 50.5908 64.1807C50.5908 67.0203 52.8928 69.3223 55.7324 69.3223Z" fill="#FFFBB3"/>
<path d="M30.647 45.4277C33.4866 45.4277 35.7886 43.1258 35.7886 40.2861C35.7886 37.4465 33.4866 35.1445 30.647 35.1445C27.8073 35.1445 25.5054 37.4465 25.5054 40.2861C25.5054 43.1258 27.8073 45.4277 30.647 45.4277Z" fill="#27A6FF"/>
<path d="M55.7324 32.127C58.5721 32.127 60.874 29.825 60.874 26.9854C60.874 24.1457 58.5721 21.8438 55.7324 21.8438C52.8928 21.8438 50.5908 24.1457 50.5908 26.9854C50.5908 29.825 52.8928 32.127 55.7324 32.127Z" fill="#BAEE63"/>
<path d="M39.7573 116.543C42.597 116.543 44.8989 114.241 44.8989 111.401C44.8989 108.562 42.597 106.26 39.7573 106.26C36.9177 106.26 34.6157 108.562 34.6157 111.401C34.6157 114.241 36.9177 116.543 39.7573 116.543Z" fill="#BB81E3"/>
<path d="M55.7324 101.568C58.5721 101.568 60.874 99.2664 60.874 96.4268C60.874 93.5871 58.5721 91.2852 55.7324 91.2852C52.8928 91.2852 50.5908 93.5871 50.5908 96.4268C50.5908 99.2664 52.8928 101.568 55.7324 101.568Z" fill="#64F9EA"/>
<path d="M84.1699 69.3223C87.0096 69.3223 89.3115 67.0203 89.3115 64.1807C89.3115 61.341 87.0096 59.0391 84.1699 59.0391C81.3303 59.0391 79.0283 61.341 79.0283 64.1807C79.0283 67.0203 81.3303 69.3223 84.1699 69.3223Z" fill="#64F9EA"/>
<path d="M97.5137 45.0181H83.7601C80.1074 45.0181 77.1187 42.0294 77.1187 38.3767V11.4461C77.1187 7.79342 80.1074 4.80469 83.7601 4.80469H97.2255L102.775 21.0608L97.5137 45.0181Z" fill="#FE3D97"/>
<path d="M110.691 4.80469H96.7173C96.7173 4.80469 91.5122 7.87746 93.7339 13.6533C95.9556 19.4292 98.1772 35.9966 98.1772 35.9966C98.1772 35.9966 92.639 39.8846 97.0057 45.0181H110.691C114.343 45.0181 117.332 42.0294 117.332 38.3767V11.4461C117.332 7.79316 114.343 4.80469 110.691 4.80469Z" fill="#FD77A6"/>
<path d="M97.8911 33.4021H86.9369C85.4911 33.4021 84.3188 32.2298 84.3188 30.784C84.3188 29.3383 85.4909 28.166 86.9369 28.166H97.8911C99.3369 28.166 100.509 29.338 100.509 30.784C100.509 32.23 99.3369 33.4021 97.8911 33.4021Z" fill="#ADE9F7"/>
<path d="M100.157 37.2146C99.0989 37.2146 98.1031 36.5687 97.7075 35.5203L92.4199 21.5103L87.0813 35.5279C86.5669 36.8787 85.0541 37.5571 83.7031 37.0425C82.352 36.5281 81.6736 35.0153 82.1883 33.6643L89.5703 14.2816C89.5779 14.2615 89.5856 14.242 89.5937 14.2221C90.0662 13.0669 91.1781 12.3196 92.426 12.3184H92.4293C93.6762 12.3184 94.7878 13.0631 95.2624 14.2166C95.272 14.2402 95.2817 14.264 95.2906 14.2882L102.606 33.6716C103.116 35.0244 102.433 36.5349 101.081 37.0453C100.776 37.1603 100.464 37.2146 100.157 37.2146Z" fill="#E8F8FC"/>
<path d="M108.191 37.2139C106.746 37.2139 105.573 36.0416 105.573 34.5958V14.9364C105.573 13.4906 106.746 12.3184 108.191 12.3184C109.637 12.3184 110.809 13.4904 110.809 14.9364V34.5961C110.809 36.0418 109.637 37.2139 108.191 37.2139Z" fill="#E8F8FC"/>
</svg>
