<svg width="70" height="70" viewBox="0 0 70 70" fill="none" xmlns="http://www.w3.org/2000/svg">
<path d="M24.0625 30.8984L25.5664 48.6719L24.0625 66.4453C22.1498 66.4453 20.5064 66.4453 18.5938 66.4453L17.876 47.9541L18.5938 30.8984H24.0625Z" fill="#80AAFF"/>
<path d="M35 37.7344L36.2988 52.0898L35 66.4453C33.0873 66.4453 31.4439 66.4453 29.5312 66.4453L28.3691 52.0898L29.5312 37.7344H32.2656H35Z" fill="#3355FF"/>
<path d="M56.875 43.2031L57.832 54.8242L56.875 66.4453C54.9623 66.4453 53.3189 66.4453 51.4062 66.4453L50.1758 54.8242L51.4062 43.2031H56.875Z" fill="#FFDD33"/>
<path d="M3.55469 60.9766C2.79959 60.9766 2.1875 61.5888 2.1875 62.3438C2.1875 63.0987 2.79959 63.7109 3.55469 63.7109H7.65625V60.9766H3.55469Z" fill="#363671"/>
<path d="M3.55469 54.1406C2.79959 54.1406 2.1875 54.7529 2.1875 55.5078C2.1875 56.2628 2.79959 56.875 3.55469 56.875H7.65625V54.1406H3.55469Z" fill="#363671"/>
<path d="M3.55469 47.3047C2.79959 47.3047 2.1875 47.9169 2.1875 48.6719C2.1875 49.4268 2.79959 50.0391 3.55469 50.0391H7.65625V47.3047H3.55469Z" fill="#363671"/>
<path d="M3.55469 40.4688C2.79959 40.4688 2.1875 41.081 2.1875 41.8359C2.1875 42.5909 2.79959 43.2031 3.55469 43.2031H7.65625V40.4688H3.55469Z" fill="#363671"/>
<path d="M3.55469 33.6328C2.79959 33.6328 2.1875 34.2449 2.1875 35C2.1875 35.7551 2.79959 36.3672 3.55469 36.3672H7.65625V33.6328H3.55469Z" fill="#363671"/>
<path d="M3.55469 26.7969C2.79959 26.7969 2.1875 27.409 2.1875 28.1641C2.1875 28.9192 2.79959 29.5312 3.55469 29.5312H7.65625V26.7969H3.55469Z" fill="#363671"/>
<path d="M3.55469 19.9609C2.79959 19.9609 2.1875 20.573 2.1875 21.3281C2.1875 22.0832 2.79959 22.6953 3.55469 22.6953H7.65625V19.9609H3.55469Z" fill="#363671"/>
<path d="M3.55469 13.125C2.79959 13.125 2.1875 13.7371 2.1875 14.4922C2.1875 15.2473 2.79959 15.8594 3.55469 15.8594H7.65625V13.125H3.55469Z" fill="#363671"/>
<path d="M3.55469 6.28906C2.79959 6.28906 2.1875 6.90115 2.1875 7.65625C2.1875 8.41135 2.79959 9.02344 3.55469 9.02344H7.65625V6.28906H3.55469Z" fill="#363671"/>
<path d="M62.3438 26.7969V66.4453C60.4311 66.4453 58.7877 66.4453 56.875 66.4453C56.875 64.2428 56.875 29.1208 56.875 26.7969H62.3438Z" fill="#FFBB33"/>
<path d="M51.4062 66.4453C49.4936 66.4453 47.8502 66.4453 45.9375 66.4453L44.5703 50.7227L45.9375 35H51.4062V66.4453Z" fill="#CC295F"/>
<path d="M45.9375 66.4453C44.0248 66.4453 42.3814 66.4453 40.4688 66.4453L39.4434 47.3047L40.4688 28.1641H45.9375V66.4453Z" fill="#FF415B"/>
<path d="M40.4688 66.4453C38.5561 66.4453 36.9127 66.4453 35 66.4453C35 65.0804 35 21.3263 35 19.9609H40.4688V66.4453Z" fill="#FF884D"/>
<path d="M29.5312 37.7344V66.4453C27.6186 66.4453 25.9752 66.4453 24.0625 66.4453V48.6719C24.0625 44.2988 24.0625 32.0577 24.0625 27.4805V24.0625H26.7969H29.5312V30.8984V37.7344Z" fill="#6680FF"/>
<path d="M18.5938 66.4453C16.6811 66.4453 15.0377 66.4453 13.125 66.4453C13.125 64.8642 13.125 11.9718 13.125 10.3906H18.5938V66.4453Z" fill="#76E7FC"/>
<path d="M48.6719 6.28906H47.3047C46.5496 6.28906 45.9375 5.67697 45.9375 4.92188C45.9375 4.16678 46.5496 3.55469 47.3047 3.55469H48.6719C49.4268 3.55469 50.0391 4.16678 50.0391 4.92188C50.0391 5.67697 49.4268 6.28906 48.6719 6.28906Z" fill="#FF884D"/>
<path d="M65.0781 6.28906H54.1406C53.3855 6.28906 52.7734 5.67697 52.7734 4.92188C52.7734 4.16678 53.3855 3.55469 54.1406 3.55469H65.0781C65.8331 3.55469 66.4453 4.16678 66.4453 4.92188C66.4453 5.67697 65.8331 6.28906 65.0781 6.28906Z" fill="#76E7FC"/>
<path d="M48.6719 11.7578H47.3047C46.5496 11.7578 45.9375 11.1457 45.9375 10.3906C45.9375 9.63553 46.5496 9.02344 47.3047 9.02344H48.6719C49.4268 9.02344 50.0391 9.63553 50.0391 10.3906C50.0391 11.1457 49.4268 11.7578 48.6719 11.7578Z" fill="#FFDD33"/>
<path d="M65.0781 11.7578H54.1406C53.3855 11.7578 52.7734 11.1457 52.7734 10.3906C52.7734 9.63553 53.3855 9.02344 54.1406 9.02344H65.0781C65.8331 9.02344 66.4453 9.63553 66.4453 10.3906C66.4453 11.1457 65.8331 11.7578 65.0781 11.7578Z" fill="#76E7FC"/>
<path d="M48.6719 17.2266H47.3047C46.5496 17.2266 45.9375 16.6145 45.9375 15.8594C45.9375 15.1043 46.5496 14.4922 47.3047 14.4922H48.6719C49.4268 14.4922 50.0391 15.1043 50.0391 15.8594C50.0391 16.6145 49.4268 17.2266 48.6719 17.2266Z" fill="#80AAFF"/>
<path d="M65.0781 17.2266H54.1406C53.3855 17.2266 52.7734 16.6145 52.7734 15.8594C52.7734 15.1043 53.3855 14.4922 54.1406 14.4922H65.0781C65.8331 14.4922 66.4453 15.1043 66.4453 15.8594C66.4453 16.6145 65.8331 17.2266 65.0781 17.2266Z" fill="#76E7FC"/>
<path d="M66.4453 67.8125H7.65625C6.90115 67.8125 6.28906 67.2003 6.28906 66.4453V3.55469C6.28906 2.79959 6.90115 2.1875 7.65625 2.1875C8.41135 2.1875 9.02344 2.79959 9.02344 3.55469V65.0781H66.4453C67.2003 65.0781 67.8125 65.6904 67.8125 66.4453C67.8125 67.2003 67.2003 67.8125 66.4453 67.8125Z" fill="#4E4E88"/>
</svg>
