<svg width="130" height="130" viewBox="0 0 130 130" fill="none" xmlns="http://www.w3.org/2000/svg">
<g clip-path="url(#clip0_1079_2411)">
<path d="M13.8523 29.8359H9.59002C7.32916 29.8359 5.1609 30.7341 3.56222 32.3327C1.96355 33.9314 1.06543 36.0997 1.06543 38.3605L1.06543 106.557C1.06543 108.818 1.96355 110.986 3.56222 112.585C5.1609 114.184 7.32916 115.082 9.59002 115.082H120.41C122.671 115.082 124.839 114.184 126.437 112.585C128.036 110.986 128.934 108.818 128.934 106.557V38.3605C128.934 36.0997 128.036 33.9314 126.437 32.3327C124.839 30.7341 122.671 29.8359 120.41 29.8359H13.8523Z" fill="#8C95A4"/>
<path d="M9.59002 29.8359H120.41C122.671 29.8359 124.839 30.7341 126.437 32.3327C128.036 33.9314 128.934 36.0997 128.934 38.3605V102.295H1.06543V38.3605C1.06543 36.0997 1.96355 33.9314 3.56222 32.3327C5.1609 30.7341 7.32916 29.8359 9.59002 29.8359Z" fill="#39C3FC"/>
<path d="M1.06543 98.0332H128.934V102.295H1.06543V98.0332Z" fill="#148CE0"/>
<path d="M41.5571 115.082H88.4424V127.869H41.5571V115.082Z" fill="#798699"/>
<path d="M13.8525 0H116.148V93.7705H13.8525V0Z" fill="#ECECEC"/>
<path d="M91.426 85.4161C90.947 83.8841 90.3263 82.4001 89.5719 80.9833L93.6423 74.1424L84.585 65.085L77.7866 69.1981C76.3835 68.4461 74.9138 67.8254 73.3964 67.344L71.3932 59.6719H58.6063L56.6456 67.344C55.1282 67.8254 53.6586 68.4461 52.2555 69.1981L45.4145 65.1276L36.3571 74.185L40.4276 80.9833C39.6756 82.3865 39.0549 83.8561 38.5735 85.3735L30.9014 87.3768V93.7702H52.2128C52.2128 90.3789 53.56 87.1265 55.958 84.7285C58.356 82.3305 61.6084 80.9833 64.9997 80.9833C68.391 80.9833 71.6434 82.3305 74.0414 84.7285C76.4394 87.1265 77.7866 90.3789 77.7866 93.7702H99.0981V87.3768L91.426 85.4161Z" fill="#FEA82F"/>
<path d="M65 72.459C59.3478 72.459 53.9271 74.7043 49.9305 78.701C45.9338 82.6976 43.6885 88.1183 43.6885 93.7705H52.2131C52.2131 90.3792 53.5603 87.1268 55.9583 84.7288C58.3563 82.3308 61.6087 80.9836 65 80.9836C68.3912 80.9836 71.6436 82.3308 74.0416 84.7288C76.4397 87.1268 77.7868 90.3792 77.7868 93.7705H86.3114C86.3114 88.1183 84.0661 82.6976 80.0694 78.701C76.0728 74.7043 70.6521 72.459 65 72.459Z" fill="#FFC729"/>
<path d="M13.8525 0H116.148V17.0492H13.8525V0Z" fill="#FB5968"/>
<path d="M13.8525 10.6562H116.148V17.0497H13.8525V10.6562Z" fill="#CD2C5A"/>
<path d="M22.3768 10.6549C23.5538 10.6549 24.5079 9.70073 24.5079 8.52373C24.5079 7.34673 23.5538 6.39258 22.3768 6.39258C21.1998 6.39258 20.2456 7.34673 20.2456 8.52373C20.2456 9.70073 21.1998 10.6549 22.3768 10.6549Z" fill="#31353D"/>
<path d="M30.9012 10.6549C32.0782 10.6549 33.0323 9.70073 33.0323 8.52373C33.0323 7.34673 32.0782 6.39258 30.9012 6.39258C29.7242 6.39258 28.77 7.34673 28.77 8.52373C28.77 9.70073 29.7242 10.6549 30.9012 10.6549Z" fill="#31353D"/>
<path d="M39.4261 10.6549C40.6031 10.6549 41.5572 9.70073 41.5572 8.52373C41.5572 7.34673 40.6031 6.39258 39.4261 6.39258C38.2491 6.39258 37.2949 7.34673 37.2949 8.52373C37.2949 9.70073 38.2491 10.6549 39.4261 10.6549Z" fill="#31353D"/>
<path d="M75.6552 49.0148C75.1999 49.0113 74.7577 48.862 74.3934 48.5889C74.029 48.3158 73.7618 47.9332 73.6307 47.4971C73.4997 47.0611 73.5117 46.5945 73.6651 46.1658C73.8185 45.7371 74.1052 45.3688 74.4831 45.1148L84.606 38.3591L74.4831 31.6033C74.0696 31.2702 73.7953 30.7948 73.714 30.27C73.6326 29.7453 73.7502 29.2091 74.0435 28.7664C74.3368 28.3238 74.7848 28.0066 75.2997 27.877C75.8146 27.7474 76.3594 27.8146 76.8274 28.0656L89.6142 36.5902C89.9043 36.7852 90.142 37.0485 90.3064 37.3569C90.4707 37.6654 90.5567 38.0096 90.5567 38.3591C90.5567 38.7086 90.4707 39.0527 90.3064 39.3612C90.142 39.6697 89.9043 39.933 89.6142 40.1279L76.8274 48.6525C76.4841 48.8929 76.0742 49.0196 75.6552 49.0148Z" fill="#31353D"/>
<path d="M54.3439 49.0148C53.9249 49.0196 53.5149 48.8929 53.1717 48.6525L40.3849 40.1279C40.0948 39.933 39.8571 39.6697 39.6927 39.3612C39.5283 39.0527 39.4424 38.7086 39.4424 38.3591C39.4424 38.0096 39.5283 37.6654 39.6927 37.3569C39.8571 37.0485 40.0948 36.7852 40.3849 36.5902L53.1717 28.0656C53.6397 27.8146 54.1845 27.7474 54.6994 27.877C55.2143 28.0066 55.6623 28.3238 55.9556 28.7664C56.2489 29.2091 56.3665 29.7453 56.2851 30.27C56.2038 30.7948 55.9295 31.2702 55.516 31.6033L45.3931 38.3591L55.516 45.1148C55.8939 45.3688 56.1806 45.7371 56.334 46.1658C56.4874 46.5945 56.4994 47.0611 56.3684 47.4971C56.2373 47.9332 55.9701 48.3158 55.6057 48.5889C55.2414 48.862 54.7992 49.0113 54.3439 49.0148Z" fill="#31353D"/>
<path d="M60.7374 53.2788C60.5064 53.273 60.2771 53.2372 60.0554 53.1722C59.7891 53.0833 59.5431 52.9426 59.3313 52.7582C59.1196 52.5738 58.9464 52.3495 58.8216 52.098C58.6968 51.8465 58.623 51.5728 58.6043 51.2927C58.5857 51.0126 58.6225 50.7315 58.7128 50.4657L67.2374 24.8919C67.4182 24.3549 67.805 23.9118 68.3126 23.66C68.8202 23.4082 69.407 23.3684 69.9439 23.5493C70.4809 23.7301 70.924 24.1169 71.1758 24.6245C71.4276 25.1321 71.4674 25.7189 71.2866 26.2558L62.762 51.8296C62.619 52.2529 62.3466 52.6205 61.9833 52.8806C61.62 53.1406 61.1842 53.2799 60.7374 53.2788Z" fill="#31353D"/>
<path d="M96.9669 130.001H33.0325C32.4673 130.001 31.9252 129.776 31.5256 129.376C31.1259 128.977 30.9014 128.435 30.9014 127.869C30.9014 127.304 31.1259 126.762 31.5256 126.362C31.9252 125.963 32.4673 125.738 33.0325 125.738H96.9669C97.5322 125.738 98.0742 125.963 98.4739 126.362C98.8736 126.762 99.0981 127.304 99.0981 127.869C99.0981 128.435 98.8736 128.977 98.4739 129.376C98.0742 129.776 97.5322 130.001 96.9669 130.001Z" fill="#8C95A4"/>
<path d="M7.45878 42.6236C8.63578 42.6236 9.58993 41.6695 9.58993 40.4925C9.58993 39.3155 8.63578 38.3613 7.45878 38.3613C6.28178 38.3613 5.32764 39.3155 5.32764 40.4925C5.32764 41.6695 6.28178 42.6236 7.45878 42.6236Z" fill="white"/>
<path d="M7.45878 74.5897C6.89357 74.5897 6.3515 74.3652 5.95184 73.9655C5.55217 73.5658 5.32764 73.0238 5.32764 72.4585V49.0159C5.32764 48.4507 5.55217 47.9086 5.95184 47.509C6.3515 47.1093 6.89357 46.8848 7.45878 46.8848C8.024 46.8848 8.56607 47.1093 8.96573 47.509C9.3654 47.9086 9.58993 48.4507 9.58993 49.0159V72.4585C9.58993 73.0238 9.3654 73.5658 8.96573 73.9655C8.56607 74.3652 8.024 74.5897 7.45878 74.5897Z" fill="white"/>
</g>
<defs>
<clipPath id="clip0_1079_2411">
<rect width="130" height="130" fill="white"/>
</clipPath>
</defs>
</svg>
