<svg width="148" height="147" viewBox="0 0 148 147" fill="none" xmlns="http://www.w3.org/2000/svg">
<path fill-rule="evenodd" clip-rule="evenodd" d="M25.9971 5.6404C25.9971 5.2582 26.15 4.89156 26.4222 4.6212C26.6944 4.35112 27.0633 4.19922 27.4481 4.19922H83.4544L98.3502 18.9943V95.2012H25.9971V5.6404Z" fill="#F4F6F8"/>
<path fill-rule="evenodd" clip-rule="evenodd" d="M83.4546 4.19922L98.3504 18.9943H83.4546V4.19922Z" fill="#E4E8EB"/>
<path fill-rule="evenodd" clip-rule="evenodd" d="M50.4584 85.8529H107.147V141.112C107.147 141.494 106.994 141.861 106.722 142.131C106.45 142.402 106.081 142.553 105.696 142.553C94.2905 142.553 19.1993 142.553 7.79375 142.553C7.40895 142.553 7.03982 142.402 6.76762 142.131C6.49571 141.861 6.34277 141.494 6.34277 141.112C6.34277 110.814 6.34277 105.111 6.34277 74.8181C6.34277 74.4359 6.49571 74.0693 6.76762 73.7989C7.03982 73.5289 7.40895 73.377 7.79375 73.377H41.7595C42.2586 73.377 42.7223 73.6315 42.9879 74.0511C44.6312 76.647 50.4584 85.8529 50.4584 85.8529Z" fill="#FDCD56"/>
<path fill-rule="evenodd" clip-rule="evenodd" d="M107.617 111.733L91.5463 104.012C91.5463 104.012 85.4966 114.418 82.5258 119.528C82.2409 120.019 82.2713 120.63 82.6042 121.09C82.9371 121.55 83.5105 121.773 84.0694 121.661C87.5155 120.971 92.5553 119.961 92.5553 119.961C92.5553 119.961 94.192 124.8 95.3119 128.109C95.4936 128.646 95.975 129.028 96.5426 129.084C97.1102 129.14 97.6584 128.861 97.9437 128.371C101.06 123.011 107.617 111.733 107.617 111.733Z" fill="#EB5463"/>
<path fill-rule="evenodd" clip-rule="evenodd" d="M111.086 111.733L127.157 104.012C127.157 104.012 133.206 114.418 136.177 119.528C136.462 120.019 136.432 120.63 136.099 121.09C135.766 121.55 135.193 121.773 134.634 121.661C131.188 120.971 126.148 119.961 126.148 119.961C126.148 119.961 124.511 124.8 123.391 128.109C123.209 128.646 122.728 129.028 122.16 129.084C121.593 129.14 121.045 128.861 120.759 128.371C117.643 123.011 111.086 111.733 111.086 111.733Z" fill="#EB5463"/>
<path fill-rule="evenodd" clip-rule="evenodd" d="M98.6882 54.7534C100.544 55.4426 102.636 54.886 103.896 53.367C105.19 51.7996 107.154 50.7988 109.352 50.7988C111.549 50.7988 113.514 51.7996 114.807 53.3673C116.067 54.886 118.159 55.4426 120.015 54.7531C121.924 54.038 124.129 54.1467 126.033 55.2382C127.936 56.3295 129.133 58.1719 129.464 60.1717C129.791 62.1129 131.322 63.6339 133.277 63.9585C135.29 64.2874 137.145 65.4763 138.244 67.3669C139.343 69.2571 139.452 71.4471 138.732 73.3434C138.038 75.187 138.598 77.2646 140.128 78.5164C141.706 79.8011 142.713 81.7521 142.713 83.9349C142.713 86.1177 141.706 88.0685 140.127 89.3532C138.598 90.605 138.038 92.6829 138.732 94.5261C139.452 96.4224 139.343 98.6124 138.244 100.503C137.145 102.393 135.29 103.582 133.277 103.911C131.322 104.236 129.791 105.757 129.464 107.698C129.133 109.698 127.936 111.54 126.033 112.632C124.129 113.723 121.924 113.832 120.015 113.116C118.159 112.427 116.067 112.984 114.807 114.503C113.514 116.07 111.549 117.071 109.352 117.071C107.154 117.071 105.19 116.07 103.897 114.503C102.636 112.984 100.544 112.427 98.6885 113.116C96.779 113.832 94.5741 113.723 92.671 112.632C90.7676 111.54 89.5705 109.698 89.2397 107.698C88.9127 105.757 87.3813 104.236 85.4268 103.911C83.4135 103.582 81.5585 102.393 80.4598 100.503C79.3609 98.6124 79.2515 96.4224 79.9717 94.5261C80.6659 92.6829 80.1052 90.605 78.5759 89.3535C76.9978 88.0685 75.9902 86.1177 75.9902 83.9349C75.9902 81.7521 76.9978 79.8011 78.5762 78.5164C80.1052 77.2646 80.6656 75.187 79.9714 73.3434C79.2515 71.4471 79.3609 69.2571 80.4598 67.3669C81.5585 65.4763 83.4135 64.2874 85.4268 63.9585C87.3813 63.6339 88.9127 62.1129 89.2394 60.1717C89.5705 58.1719 90.7676 56.3295 92.671 55.2382C94.5741 54.1467 96.779 54.038 98.6882 54.7534Z" fill="#F5B945"/>
<path fill-rule="evenodd" clip-rule="evenodd" d="M109.35 102.709C119.76 102.709 128.253 94.2736 128.253 83.9331C128.253 73.597 119.76 65.1621 109.35 65.1621C98.943 65.1621 90.4507 73.597 90.4507 83.9331C90.4507 94.2736 98.943 102.709 109.35 102.709Z" fill="#F4F6F8"/>
<path fill-rule="evenodd" clip-rule="evenodd" d="M99.7948 84.8607C98.9854 84.0903 98.9581 82.812 99.7338 82.0081C100.51 81.2042 101.797 81.1768 102.606 81.9472L106.739 85.8819L116.17 77.7332C117.016 77.0026 118.3 77.0911 119.036 77.9313C119.772 78.7715 119.682 80.0469 118.837 80.7779L108.006 90.1357C107.214 90.8206 106.026 90.7923 105.268 90.0703L99.7948 84.8607Z" fill="#C6EA94"/>
<path fill-rule="evenodd" clip-rule="evenodd" d="M72.5661 15.3965C72.9509 15.3965 73.32 15.5484 73.5919 15.8185C73.8641 16.0888 74.0171 16.4555 74.0171 16.8377V31.7213C74.0171 32.1035 73.8641 32.4701 73.5919 32.7402C73.32 33.0105 72.9509 33.1624 72.5661 33.1624H47.7859C47.4011 33.1624 47.0323 33.0105 46.7601 32.7402C46.4879 32.4701 46.335 32.1035 46.335 31.7213V16.8377C46.335 16.4555 46.4879 16.0888 46.7601 15.8185C47.0323 15.5484 47.4011 15.3965 47.7859 15.3965H72.5661Z" fill="#66D4F1"/>
<path fill-rule="evenodd" clip-rule="evenodd" d="M55.8408 25.7608C56.7041 26.471 56.8246 27.7441 56.1095 28.6016C55.3942 29.4591 54.1127 29.5787 53.2491 28.8682L49.5645 25.8369C49.0987 25.4535 48.8291 24.8839 48.8291 24.283C48.8291 23.6823 49.0987 23.1125 49.5645 22.7291L53.2491 19.6977C54.1127 18.9872 55.3942 19.1068 56.1095 19.9643C56.8246 20.8221 56.7041 22.095 55.8408 22.8052L54.0448 24.283L55.8408 25.7608ZM67.101 28.8682C66.2377 29.5787 64.9559 29.4591 64.2408 28.6016C63.5255 27.7441 63.6459 26.471 64.5093 25.7608L66.3053 24.283L64.5093 22.8052C63.6459 22.095 63.5255 20.8221 64.2408 19.9643C64.9559 19.1068 66.2377 18.9872 67.101 19.6977L70.7856 22.7291C71.2514 23.1125 71.5213 23.6823 71.5213 24.283C71.5213 24.8839 71.2514 25.4535 70.7856 25.8369L67.101 28.8682ZM61.172 28.3828C60.8821 29.4582 59.7672 30.0975 58.6842 29.8093C57.6011 29.5211 56.9578 28.414 57.2477 27.3383L59.1781 20.1834C59.4683 19.1077 60.5829 18.4684 61.6659 18.7566C62.7489 19.0449 63.3926 20.152 63.1024 21.2277L61.172 28.3828Z" fill="#E4E8EB"/>
<path fill-rule="evenodd" clip-rule="evenodd" d="M36.7881 46.9235C35.9376 46.198 35.8401 44.9231 36.5705 44.0783C37.3006 43.2335 38.5842 43.1366 39.435 43.8618L41.7464 45.8331L45.7903 41.9926C46.6005 41.223 47.8876 41.2516 48.6624 42.0563C49.4372 42.8614 49.4082 44.1394 48.598 44.909L43.2235 50.0134C42.4684 50.7305 41.2888 50.7619 40.4963 50.0857L36.7881 46.9235Z" fill="#C6EA94"/>
<path fill-rule="evenodd" clip-rule="evenodd" d="M36.7881 61.4547C35.9376 60.7295 35.8401 59.4547 36.5705 58.6095C37.3006 57.7647 38.5842 57.6679 39.435 58.3934L41.7464 60.3643L45.7903 56.5239C46.6005 55.7543 47.8876 55.7828 48.6624 56.5876C49.4372 57.3926 49.4082 58.6709 48.598 59.4405L43.2235 64.5446C42.4684 65.2617 41.2888 65.2931 40.4963 64.6172L36.7881 61.4547Z" fill="#C6EA94"/>
<path fill-rule="evenodd" clip-rule="evenodd" d="M53.2277 48.0197C52.1066 48.0197 51.1963 47.1158 51.1963 46.002C51.1963 44.8886 52.1066 43.9844 53.2277 43.9844H80.3297C81.451 43.9844 82.361 44.8886 82.361 46.002C82.361 47.1158 81.451 48.0197 80.3297 48.0197H53.2277Z" fill="#CAD0D7"/>
<path fill-rule="evenodd" clip-rule="evenodd" d="M53.2277 62.5529C52.1066 62.5529 51.1963 61.649 51.1963 60.5352C51.1963 59.4218 52.1066 58.5176 53.2277 58.5176H80.3297C81.451 58.5176 82.361 59.4218 82.361 60.5352C82.361 61.649 81.451 62.5529 80.3297 62.5529H53.2277Z" fill="#CAD0D7"/>
</svg>
