<svg width="148" height="148" viewBox="0 0 148 148" fill="none" xmlns="http://www.w3.org/2000/svg">
<g clip-path="url(#clip0_1090_2737)">
<path d="M123.314 88.559L135.656 81.4163L116.008 47.385L103.126 54.8058C99.3137 57.0058 94.6173 57.0055 90.8058 54.8049L79.5404 48.3007C76.3694 46.4701 72.4627 46.4701 69.292 48.3007L46.6587 61.3681L49.3343 84.0141L123.314 88.559Z" fill="#FFECE4"/>
<path d="M116.008 47.3848L109.649 51.0478L119.642 68.3548C121.908 72.2803 120.566 77.2993 116.643 79.5696L112.199 82.1413L111.676 86.2174L123.314 88.5588L139.259 79.3314L116.008 47.3848Z" fill="#FFDDCE"/>
<path d="M79.4932 74.1542C78.2956 74.1542 77.3252 73.1838 77.3252 71.9863C77.3252 70.7887 79.1983 71.9773 80.3959 71.9773C82.8396 71.9773 84.145 68.6224 85.4877 66.7221C86.0017 65.9946 86.389 65.1641 86.6142 64.2576C86.903 63.0953 88.0777 62.3859 89.2409 62.6764C90.403 62.9649 91.1109 64.1408 90.8221 65.3031C89.5274 70.5143 84.8686 74.1542 79.4932 74.1542Z" fill="#FFDDCE"/>
<path d="M72.0147 127.301L73.027 127.834L81.7913 132.894C84.3941 134.397 87.7235 133.471 89.1766 130.84L91.1353 127.294C92.5499 124.733 91.6539 121.511 89.1199 120.048L84.1423 117.174L96.2494 124.164C98.8521 125.666 102.181 124.741 103.634 122.11L105.593 118.564C107.008 116.003 106.112 112.78 103.578 111.317L96.1901 107.052L107.147 113.378C109.715 114.861 112.999 113.981 114.482 111.413L116.507 107.905C117.99 105.337 117.11 102.053 114.543 100.57L107.843 96.7001L116.243 101.551C118.866 103.066 122.222 102.113 123.657 99.4454L125.576 95.8774C126.952 93.321 126.046 90.1347 123.532 88.683L93.8976 71.5734L85.485 66.7165C83.7463 68.9582 81.0268 70.4012 77.9702 70.4012C75.2285 70.4012 72.7578 69.2401 71.0232 67.3828C69.9473 66.2309 68.2014 66.0066 66.8361 66.7946C66.0441 67.2516 64.9121 67.9052 63.6449 68.6368C58.3481 71.6945 51.5742 69.8803 48.5162 64.5838L47.7881 63.3227C47.1643 62.2421 47.5343 60.8604 48.6151 60.2363L53.6893 57.3067C50.7241 57.2327 47.8074 56.4132 45.2125 54.9156L32.1379 47.3809L13.6732 64.1231L12.3467 81.6602L24.0491 88.404L57.8971 119.863L72.0147 127.301Z" fill="#FFCBBE"/>
<path d="M124.498 40.2578L115.208 45.6211C115.059 45.7069 115.009 45.8968 115.094 46.0451L136.426 82.9922C136.512 83.1408 136.702 83.1917 136.85 83.1058L146.139 77.7426L140.895 61.7025L124.498 40.2578Z" fill="#F1F1F4"/>
<path d="M32.7921 45.6218L0.46568 26.9582C0.258711 26.8385 0 26.9879 0 27.227V76.4899C0 76.6009 0.0592578 76.7032 0.155227 76.7587L11.15 83.1068C11.2986 83.1927 11.4885 83.1418 11.5741 82.9932L32.9054 46.0461C32.9916 45.8972 32.9407 45.7073 32.7921 45.6218Z" fill="#F1F1F4"/>
<path d="M124.498 40.2582L147.421 79.9621C147.579 80.2373 148 80.1246 148 79.8069V27.227C148 26.9879 147.741 26.8385 147.534 26.9582L124.498 40.2582Z" fill="#6BBEF6"/>
<path d="M73.8182 27.0172L71.2019 28.3252C67.7707 30.0408 64.9885 32.823 63.2729 36.2542L61.9649 38.8705C61.8426 39.115 61.4935 39.115 61.3712 38.8705L60.0632 36.2542C58.3476 32.823 55.5654 30.0408 52.1342 28.3252L49.5179 27.0172C49.2733 26.8949 49.2733 26.5457 49.5179 26.4234L52.1342 25.1154C55.5654 23.3998 58.3476 20.6176 60.0632 17.1864L61.3712 14.5701C61.4935 14.3256 61.8426 14.3256 61.9649 14.5701L63.2729 17.1864C64.9885 20.6176 67.7707 23.3998 71.2019 25.1154L73.8182 26.4234C74.0628 26.5457 74.0628 26.8949 73.8182 27.0172Z" fill="#F4DD45"/>
<path d="M102.627 33.1346L100.447 34.2247C97.5879 35.6544 95.2696 37.9727 93.8399 40.8321L92.7499 43.0122C92.6478 43.216 92.357 43.216 92.255 43.0122L91.1649 40.8321C89.7352 37.9727 87.4167 35.6544 84.5576 34.2247L82.3775 33.1346C82.1737 33.0326 82.1737 32.7418 82.3775 32.6398L84.5576 31.5497C87.417 30.12 89.7352 27.8014 91.1649 24.9423L92.255 22.7622C92.357 22.5584 92.6478 22.5584 92.7499 22.7622L93.8399 24.9423C95.2696 27.8017 97.5879 30.12 100.447 31.5497L102.627 32.6398C102.831 32.7418 102.831 33.0326 102.627 33.1346Z" fill="#F4DD45"/>
<path d="M123.532 88.6855L93.8976 71.5759L85.4851 66.7188C85.3191 66.9327 85.1445 67.139 84.9613 67.3376L96.3365 73.9051C100.162 76.1142 101.516 80.9799 99.3797 84.847L82.1571 116.027C80.0593 119.825 76.5892 122.376 72.7114 123.411C72.8363 124.752 72.0142 127.302 72.0142 127.302L73.0265 127.836L81.7908 132.896C84.3936 134.399 87.723 133.473 89.1761 130.842L91.1348 127.296C92.5495 124.735 91.6534 121.512 89.1194 120.049L84.1418 117.175L96.2489 124.166C98.8516 125.668 102.181 124.742 103.634 122.112L105.593 118.566C107.007 116.004 106.111 112.782 103.577 111.319L96.1899 107.054L107.147 113.38C109.715 114.862 112.999 113.982 114.482 111.414L116.507 107.906C117.99 105.338 117.111 102.055 114.543 100.572L107.843 96.7018L116.243 101.553C118.866 103.067 122.222 102.114 123.657 99.4467L125.576 95.8788C126.951 93.3235 126.046 90.1369 123.532 88.6855Z" fill="#EAAC9D"/>
<path d="M87.9079 102.328L104.19 111.728C106.017 113.145 106.726 115.586 105.957 117.755L85.7399 106.083C84.7031 105.484 84.3478 104.158 84.9464 103.121C85.5448 102.084 86.8702 101.729 87.9079 102.328ZM92.3412 90.313C91.7426 91.3498 92.0979 92.6757 93.1347 93.2744L116.921 107.007C117.688 104.843 116.984 102.401 115.156 100.981L95.3027 89.5192C94.2652 88.9208 92.9396 89.2758 92.3412 90.313ZM77.5086 115.905C76.9099 116.941 77.2652 118.267 78.3021 118.866L91.4989 126.485C92.2675 124.316 91.5585 121.876 89.7325 120.458L80.47 115.111C79.4323 114.513 78.1067 114.867 77.5086 115.905Z" fill="#EAAC9D"/>
<path d="M89.7324 120.459L82.1318 116.07C81.4008 117.384 80.505 118.547 79.4849 119.549L91.4989 126.485C92.2675 124.316 91.5587 121.876 89.7324 120.459Z" fill="#DF9380"/>
<path d="M115.156 100.981L96.4367 90.1738L94.3398 93.9698L116.921 107.007C117.689 104.842 116.984 102.401 115.156 100.981Z" fill="#DF9380"/>
<path d="M104.19 111.731L89.2844 103.125L87.1875 106.921L105.957 117.758C106.726 115.589 106.016 113.148 104.19 111.731Z" fill="#DF9380"/>
<path d="M12.3313 61.7773C13.0805 61.7773 13.8093 61.3885 14.2108 60.693L25.3822 41.3438L21.6272 39.1758L10.4558 58.5248C9.8572 59.5616 10.2125 60.8876 11.2493 61.4862C11.5907 61.6836 11.9633 61.7773 12.3313 61.7773Z" fill="#DFDDE2"/>
<path d="M32.6069 100.31L40.9353 95.5014C44.4723 93.4595 45.6841 88.9368 43.6421 85.3999C41.6002 81.8629 37.0775 80.6511 33.5405 82.6931L25.2121 87.5013C22.6438 88.9842 21.7639 92.2683 23.2467 94.8363L25.2719 98.3438C26.7545 100.913 30.0386 101.793 32.6069 100.31Z" fill="#FFECE4"/>
<path d="M41.1459 112.458L46.8052 109.191C50.3422 107.149 51.5539 102.626 49.512 99.0893C47.47 95.5524 42.9474 94.3406 39.4104 96.3825L33.7511 99.6498C31.1828 101.133 30.3029 104.417 31.7858 106.985L33.811 110.492C35.2936 113.061 38.5776 113.941 41.1459 112.458Z" fill="#FFECE4"/>
<path d="M52.6186 122.912L57.8969 119.865C61.4338 117.823 62.6456 113.3 60.6037 109.763C58.5617 106.226 54.039 105.014 50.5021 107.056L45.2238 110.104C42.6555 111.587 41.7756 114.871 43.2585 117.439L45.2836 120.946C46.7662 123.515 50.0503 124.395 52.6186 122.912Z" fill="#FFECE4"/>
<path d="M65.2914 132.67L69.0446 130.503C72.5816 128.461 73.7934 123.939 71.7514 120.402C69.7095 116.865 65.1868 115.653 61.6498 117.695L57.8966 119.862C55.3283 121.345 54.4484 124.629 55.9313 127.197L57.9565 130.705C59.4391 133.273 62.7231 134.153 65.2914 132.67Z" fill="#FFECE4"/>
<path d="M43.6424 85.3998C41.7944 82.1993 37.9155 80.9025 34.5736 82.1981C34.6196 82.2715 34.6644 82.3461 34.708 82.4218C36.75 85.9588 35.5382 90.4812 32.0013 92.5231L24.4336 96.8923L25.2719 98.3443C26.7548 100.913 30.0388 101.793 32.6068 100.31L40.9353 95.5011C44.4726 93.4594 45.6846 88.9367 43.6424 85.3998Z" fill="#FFDDCE"/>
<path d="M49.5122 99.0892C47.6645 95.8887 43.7853 94.592 40.4435 95.8876C40.4894 95.961 40.5342 96.0356 40.5779 96.1113C42.6198 99.6483 41.4081 104.171 37.8711 106.213L32.9727 109.041L33.8109 110.493C35.2938 113.061 38.5779 113.941 41.1459 112.458L46.8052 109.191C50.3424 107.149 51.5542 102.626 49.5122 99.0892Z" fill="#FFDDCE"/>
<path d="M60.6039 109.763C58.7562 106.563 54.877 105.266 51.5351 106.561C51.5811 106.635 51.6259 106.709 51.6696 106.785C53.7115 110.322 52.4997 114.844 48.9628 116.887L44.4453 119.495L45.2836 120.947C46.7665 123.515 50.0505 124.395 52.6186 122.912L57.8968 119.865C61.4341 117.823 62.6458 113.3 60.6039 109.763Z" fill="#FFDDCE"/>
<path d="M71.7517 120.406C69.904 117.205 66.0248 115.909 62.6829 117.204C62.7289 117.277 62.7737 117.352 62.8173 117.428C64.8593 120.965 63.6475 125.487 60.1105 127.529L57.1182 129.257L57.9564 130.709C59.4393 133.277 62.7234 134.157 65.2914 132.674L69.0446 130.507C72.5819 128.465 73.7936 123.942 71.7517 120.406Z" fill="#FFDDCE"/>
</g>
<defs>
<clipPath id="clip0_1090_2737">
<rect width="148" height="148" fill="white"/>
</clipPath>
</defs>
</svg>
