<svg width="148" height="148" viewBox="0 0 148 148" fill="none" xmlns="http://www.w3.org/2000/svg">
<path fill-rule="evenodd" clip-rule="evenodd" d="M98.341 11.8894C102.36 12.8459 106.196 14.4362 109.71 16.6013L117.097 13.3238L125.801 22.0277L122.524 29.4152C124.689 32.9292 126.279 36.7653 127.236 40.7839L134.773 43.6853V55.9995L127.236 58.9009C126.279 62.9143 124.689 66.7504 122.524 70.2641L125.801 77.6516L117.097 86.361L109.71 83.0783C106.196 85.2434 102.36 86.8389 98.341 87.7954L95.4396 95.328H83.1254L80.224 87.7899C76.2106 86.8337 72.3745 85.2434 68.8608 83.0783L61.4733 86.361L52.7639 77.6516L56.0466 70.2696C53.8815 66.7504 52.286 62.9143 51.3295 58.9009L43.7969 55.9995V43.6853L51.3295 40.7839C52.286 36.7653 53.8815 32.9292 56.0466 29.4152L52.7639 22.0277L61.4733 13.3238L68.8553 16.6013C72.3745 14.4362 76.2106 12.8459 80.224 11.8894L83.1254 4.35156H95.4396L98.341 11.8894Z" fill="#FFE177"/>
<path fill-rule="evenodd" clip-rule="evenodd" d="M114.615 14.4254L117.097 13.3238L125.801 22.0277L122.523 29.4152C124.689 32.9292 126.279 36.7653 127.235 40.7839L134.773 43.6853V55.9995L127.235 58.9009C126.279 62.9143 124.689 66.7504 122.523 70.2641L125.801 77.6516L117.097 86.361L114.615 85.2594L122.223 77.6516L118.94 70.2641C121.105 66.7504 122.695 62.9143 123.652 58.9009L131.19 55.9995V43.6853L123.652 40.7839C122.695 36.7653 121.105 32.9292 118.94 29.4152L122.223 22.0277L114.615 14.4254ZM60.3716 14.4254L61.4732 13.3238L68.8552 16.6013C68.334 16.8915 67.8183 17.1925 67.3134 17.5093L60.3716 14.4254ZM98.3408 11.8894C102.359 12.8459 106.196 14.4362 109.71 16.6013L107.673 17.5093C104.16 15.3442 98.7758 12.8459 94.7572 11.8894L91.8558 4.35156H95.4395L98.3408 11.8894ZM68.8607 83.0783L61.4732 86.361L60.3716 85.2594L67.3134 82.1755C67.8183 82.4872 68.334 82.7881 68.8607 83.0783ZM109.71 83.0783C106.196 85.2434 102.359 86.8389 98.3408 87.7954L95.4395 95.328H91.8558L94.7572 87.7954C98.7758 86.8389 104.16 84.3406 107.678 82.1755L109.71 83.0783Z" fill="#FFD064"/>
<path fill-rule="evenodd" clip-rule="evenodd" d="M89.2827 21.3105C105.042 21.3105 117.815 34.0844 117.815 49.8432C117.815 65.5962 105.042 78.3701 89.2827 78.3701C73.5297 78.3701 60.7559 65.5962 60.7559 49.8432C60.7559 34.0844 73.5297 21.3105 89.2827 21.3105Z" fill="#ECEFF1"/>
<path fill-rule="evenodd" clip-rule="evenodd" d="M89.2827 21.3105C89.9319 21.3105 90.5753 21.3338 91.2186 21.3799C76.3641 22.3712 64.6158 34.7336 64.6158 49.8432C64.6158 64.947 76.3641 77.3094 91.2186 78.3062C90.5753 78.3468 89.9319 78.3701 89.2827 78.3701C73.5297 78.3701 60.7559 65.5962 60.7559 49.8432C60.7559 34.0844 73.5297 21.3105 89.2827 21.3105Z" fill="#D1D1D6"/>
<path fill-rule="evenodd" clip-rule="evenodd" d="M113.468 59.9923C112.263 60.3272 111 59.6429 110.629 58.4397C110.251 57.2154 110.938 55.9147 112.163 55.5369L116.376 54.2365C117.228 53.9733 118.156 54.222 118.763 54.8761L121.761 58.1086C122.632 59.0483 122.577 60.5184 121.638 61.3896C120.699 62.261 119.228 62.2056 118.357 61.2662L118.08 60.9682C113.614 72.5137 102.404 80.7039 89.2836 80.7039C74.701 80.7039 62.4913 70.5868 59.2672 56.9905C58.9715 55.7438 59.7437 54.4916 60.9904 54.1959C62.2371 53.9002 63.4893 54.6724 63.785 55.9191C66.5238 67.4686 76.8963 76.0607 89.2836 76.0607C100.165 76.0607 109.5 69.4318 113.468 59.9923Z" fill="#A79BA7"/>
<path fill-rule="evenodd" clip-rule="evenodd" d="M60.497 38.7204C64.9564 27.1746 76.1586 18.9902 89.283 18.9902C103.871 18.9902 116.097 29.1033 119.319 42.7039C119.614 43.9509 118.842 45.2028 117.595 45.4982C116.348 45.7936 115.096 45.0211 114.801 43.7741C112.064 32.2206 101.676 23.6334 89.283 23.6334C78.3966 23.6334 69.0662 30.2606 65.1059 39.7038C66.3137 39.3635 67.581 40.0483 67.9533 41.2541C68.3311 42.4784 67.6439 43.7791 66.4196 44.1569L62.2065 45.4573C61.3539 45.7205 60.4262 45.4718 59.8197 44.818L56.8211 41.5852C55.9499 40.6458 56.005 39.1757 56.9444 38.3042C57.8838 37.4328 59.3539 37.4882 60.2254 38.4276L60.497 38.7204Z" fill="#A79BA7"/>
<path fill-rule="evenodd" clip-rule="evenodd" d="M85.0614 52.6748L100.707 36.8664C102.561 35.0031 105.586 34.9935 107.449 36.8473C109.312 38.7007 109.322 41.7165 107.468 43.5894C101.12 49.9955 94.8195 56.4398 88.4422 62.8169C86.5788 64.6803 83.5536 64.6803 81.6905 62.8169L71.116 52.2332C69.253 50.3698 69.253 47.3541 71.116 45.4815C72.9794 43.6181 76.0047 43.6181 77.868 45.4815L85.0614 52.6748Z" fill="#8AC9FE"/>
<path fill-rule="evenodd" clip-rule="evenodd" d="M21.9987 112.67L42.9674 100.523C46.9048 98.2419 50.9051 96.624 55.234 98.0271C60.0562 99.5945 67.9304 102.95 75.9627 104.398C78.9456 105.364 80.8037 108.347 79.9947 111.374C79.1795 114.401 76.6264 115.962 73.0114 115.406L75.8237 115.855C79.0405 116.373 81.9918 115.931 84.8105 114.288L104.97 102.546C120.643 93.42 122.943 107.463 117.736 110.673L81.145 133.203C77.7828 135.269 74.0985 135.756 70.2812 134.732L43.7448 127.622L33.9112 133.298C32.0218 134.384 29.5949 133.733 28.5017 131.844L20.5515 118.08C19.4644 116.19 20.1153 113.763 21.9987 112.67Z" fill="#F6DCCD"/>
<path fill-rule="evenodd" clip-rule="evenodd" d="M79.5145 112.633C78.3961 114.825 76.083 115.881 73.0115 115.407C68.6699 114.257 64.3219 113.081 59.9803 111.918C58.8175 111.602 58.1285 110.408 58.4385 109.245C58.7481 108.082 59.9487 107.393 61.1115 107.703L79.5145 112.633Z" fill="#F1CBBC"/>
<path fill-rule="evenodd" clip-rule="evenodd" d="M21.9987 112.67L42.9674 100.523C46.9048 98.2419 50.9051 96.624 55.234 98.0271C57.8127 98.8614 61.2695 100.214 65.1497 101.509L24.5266 124.968L20.5515 118.08C19.4644 116.19 20.1153 113.763 21.9987 112.67Z" fill="#F1CBBC"/>
<path fill-rule="evenodd" clip-rule="evenodd" d="M24.4317 106.629L41.0652 136.016C41.8678 137.438 41.3623 139.258 39.9467 140.061L34.2841 143.265C32.8686 144.067 31.0485 143.562 30.2397 142.14L13.6123 112.753C12.8035 111.331 13.3091 109.511 14.731 108.709L20.3872 105.505C21.8092 104.702 23.6293 105.207 24.4317 106.629Z" fill="#D1D1D6"/>
<path fill-rule="evenodd" clip-rule="evenodd" d="M33.1848 126.821L36.1233 132.022L39.0369 137.166C39.8396 138.582 39.3402 140.396 37.9246 141.205L39.947 140.061C41.3625 139.258 41.8681 137.438 41.0654 136.016L38.1457 130.853L32.2811 120.489L26.4102 110.118L24.4319 106.629C23.7369 105.397 22.2769 104.854 20.9751 105.252L24.3942 111.293L30.2588 121.658L33.1784 126.815L33.1848 126.821Z" fill="#B1B1B5"/>
<path fill-rule="evenodd" clip-rule="evenodd" d="M20.2856 110.448C19.186 110.606 18.4214 111.636 18.5792 112.736C18.7438 113.842 19.7676 114.606 20.8735 114.442C21.9731 114.284 22.7377 113.26 22.5799 112.154C22.4153 111.048 21.3915 110.284 20.2856 110.448Z" fill="#685E68"/>
</svg>
