<svg width="148" height="148" viewBox="0 0 148 148" fill="none" xmlns="http://www.w3.org/2000/svg">
<path d="M133.258 112.734H20.4468C18.8503 112.734 17.5562 111.44 17.5562 109.844V26.0156C17.5562 24.4191 18.8503 23.125 20.4468 23.125H133.258C134.855 23.125 136.149 24.4191 136.149 26.0156V109.844C136.149 111.44 134.855 112.734 133.258 112.734Z" fill="#003C79"/>
<path d="M23.2603 112.734H14.7422C13.1457 112.734 11.8516 111.44 11.8516 109.844V26.0156C11.8516 24.4191 13.1457 23.125 14.7422 23.125H23.2603C21.6638 23.125 20.3697 24.4191 20.3697 26.0156V109.844C20.3697 111.44 21.6638 112.734 23.2603 112.734Z" fill="#002C5D"/>
<path d="M148 112.734C148 115.129 146.059 117.07 143.664 117.07H4.33594C1.94134 117.07 0 115.129 0 112.734C0 110.34 1.94134 108.398 4.33594 108.398H143.664C146.059 108.398 148 110.34 148 112.734Z" fill="#004B94"/>
<path d="M127.143 117.07H20.8569C18.4623 117.07 16.521 115.129 16.521 112.734C16.521 110.34 18.4623 108.398 20.8569 108.398H127.143C129.538 108.398 131.479 110.34 131.479 112.734C131.479 115.129 129.538 117.07 127.143 117.07Z" fill="#005AAF"/>
<path d="M85.1289 112.734H62.8711C61.6738 112.734 60.7031 111.764 60.7031 110.566C60.7031 109.369 61.6738 108.398 62.8711 108.398H85.1289C86.3262 108.398 87.2969 109.369 87.2969 110.566C87.2969 111.764 86.3262 112.734 85.1289 112.734Z" fill="#0573CF"/>
<path d="M130.656 101.172H17.3438V28.9062H130.656V101.172Z" fill="#D5F3F7"/>
<path d="M23.2603 101.172H17.3438V28.9062H23.2603V101.172Z" fill="#AFEAF2"/>
<path d="M80.1149 80.0657C80.1149 81.2633 79.1442 82.2337 77.9469 82.2337H76.8375C75.6402 82.2337 74.6695 81.2633 74.6695 80.0657C74.6695 78.8681 75.6402 77.8977 76.8375 77.8977H77.9469C79.1442 77.8977 80.1149 78.8684 80.1149 80.0657ZM49.6532 77.8977H48.5438C47.3465 77.8977 46.3758 78.8681 46.3758 80.0657C46.3758 81.2633 47.3465 82.2337 48.5438 82.2337H49.6532C50.8505 82.2337 51.8212 81.2633 51.8212 80.0657C51.8212 78.8681 50.8508 77.8977 49.6532 77.8977ZM68.5157 77.8977H67.4063C66.209 77.8977 65.2383 78.8681 65.2383 80.0657C65.2383 81.2633 66.209 82.2337 67.4063 82.2337H68.5157C69.713 82.2337 70.6837 81.2633 70.6837 80.0657C70.6837 78.8681 69.713 77.8977 68.5157 77.8977ZM59.0845 77.8977H57.975C56.7777 77.8977 55.8071 78.8681 55.8071 80.0657C55.8071 81.2633 56.7777 82.2337 57.975 82.2337H59.0845C60.2817 82.2337 61.2524 81.2633 61.2524 80.0657C61.2524 78.8681 60.282 77.8977 59.0845 77.8977ZM30.2129 73.0213C31.4102 73.0213 32.3809 72.0509 32.3809 70.8533V69.7022C32.3809 68.5047 31.4102 67.5343 30.2129 67.5343C29.0156 67.5343 28.0449 68.5047 28.0449 69.7022V70.8533C28.0449 72.0509 29.0153 73.0213 30.2129 73.0213ZM40.2223 77.8977H39.1125C37.9153 77.8977 36.9446 78.8681 36.9446 80.0657C36.9446 81.2633 37.9153 82.2337 39.1125 82.2337H40.2223C41.4196 82.2337 42.3902 81.2633 42.3902 80.0657C42.3902 78.8681 41.4196 77.8977 40.2223 77.8977ZM32.0074 78.2709C31.6174 77.6968 30.9592 77.3196 30.2129 77.3196C29.0156 77.3196 28.0449 78.29 28.0449 79.4876V80.0657C28.0449 81.2633 29.0156 82.2337 30.2129 82.2337H30.791C31.9883 82.2337 32.959 81.2633 32.959 80.0657C32.959 79.3193 32.5818 78.6612 32.0074 78.2709ZM87.3782 38.75H86.2688C85.0715 38.75 84.1008 39.7204 84.1008 40.918C84.1008 42.1156 85.0715 43.0859 86.2688 43.0859H87.3782C88.5755 43.0859 89.5462 42.1156 89.5462 40.918C89.5462 39.7204 88.5755 38.75 87.3782 38.75ZM115.141 49.6355C113.943 49.6355 112.973 50.6059 112.973 51.8035V52.9545C112.973 54.1521 113.943 55.1225 115.141 55.1225C116.338 55.1225 117.309 54.1521 117.309 52.9545V51.8035C117.309 50.6059 116.338 49.6355 115.141 49.6355ZM87.3782 77.8977H86.2688C85.0715 77.8977 84.1008 78.8681 84.1008 80.0657C84.1008 81.2633 85.0715 82.2337 86.2688 82.2337H87.3782C88.5755 82.2337 89.5462 81.2633 89.5462 80.0657C89.5462 78.8681 88.5755 77.8977 87.3782 77.8977ZM115.141 38.75C113.943 38.75 112.973 39.7204 112.973 40.918V42.069C112.973 43.2666 113.943 44.237 115.141 44.237C116.338 44.237 117.309 43.2666 117.309 42.069V40.918C117.309 39.7204 116.338 38.75 115.141 38.75ZM96.8094 38.75H95.7C94.5027 38.75 93.532 39.7204 93.532 40.918C93.532 42.1156 94.5027 43.0859 95.7 43.0859H96.8094C98.0067 43.0859 98.9774 42.1156 98.9774 40.918C98.9774 39.7204 98.0067 38.75 96.8094 38.75ZM106.241 38.75H105.131C103.934 38.75 102.963 39.7204 102.963 40.918C102.963 42.1156 103.934 43.0859 105.131 43.0859H106.241C107.438 43.0859 108.409 42.1156 108.409 40.918C108.409 39.7204 107.438 38.75 106.241 38.75Z" fill="#83AFE4"/>
<path d="M102.079 62.5063V89.4287C102.079 90.6026 101.127 91.5542 99.9536 91.5542C98.7797 91.5542 97.8281 90.6026 97.8281 89.4287V62.5063C97.8281 61.3325 98.7797 60.3809 99.9536 60.3809C101.127 60.3809 102.079 61.3325 102.079 62.5063ZM118.374 60.3809C117.2 60.3809 116.249 61.3325 116.249 62.5063V89.4287C116.249 90.6026 117.2 91.5542 118.374 91.5542C119.548 91.5542 120.5 90.6026 120.5 89.4287V62.5063C120.5 61.3325 119.548 60.3809 118.374 60.3809ZM109.164 60.3809C107.99 60.3809 107.038 61.3325 107.038 62.5063V89.4287C107.038 90.6026 107.99 91.5542 109.164 91.5542C110.338 91.5542 111.289 90.6026 111.289 89.4287V62.5063C111.289 61.3325 110.338 60.3809 109.164 60.3809Z" fill="#FFAA00"/>
<path d="M108.26 68.9375V82.9937C108.26 84.59 106.966 85.8844 105.369 85.8844H97.6016C96.0051 85.8844 94.7109 84.59 94.7109 82.9937V68.9375C94.7109 67.341 96.0051 66.0469 97.6016 66.0469H105.369C106.966 66.0469 108.26 67.3413 108.26 68.9375Z" fill="#FFAA00"/>
<path d="M123.617 68.9375V82.9937C123.617 84.59 122.323 85.8844 120.726 85.8844H104.094C102.497 85.8844 101.203 84.59 101.203 82.9937V68.9375C101.203 67.341 102.497 66.0469 104.094 66.0469H120.726C122.323 66.0469 123.617 67.3413 123.617 68.9375Z" fill="#FFC143"/>
<path d="M118.802 73.5371V78.396C118.802 79.9925 117.508 81.2866 115.911 81.2866H102.417C100.821 81.2866 99.5264 79.9925 99.5264 78.396V73.5371C99.5264 71.9406 100.821 70.6465 102.417 70.6465H115.911C117.508 70.6465 118.802 71.9406 118.802 73.5371Z" fill="#FFD98F"/>
<path d="M107.625 75.9647C107.625 77.3325 106.516 78.4414 105.148 78.4414C103.78 78.4414 102.671 77.3325 102.671 75.9647C102.671 74.5968 103.78 73.4883 105.148 73.4883C106.516 73.4883 107.625 74.5968 107.625 75.9647ZM113.179 73.4883C111.812 73.4883 110.703 74.5968 110.703 75.9647C110.703 77.3325 111.812 78.4414 113.179 78.4414C114.547 78.4414 115.656 77.3325 115.656 75.9647C115.656 74.5968 114.547 73.4883 113.179 73.4883Z" fill="#FFC143"/>
<path d="M84.4062 63.5938H2.89062C1.29413 63.5938 0 62.2996 0 60.7031V12.1406C0 10.5441 1.29413 9.25 2.89062 9.25H84.4062C86.0027 9.25 87.2969 10.5441 87.2969 12.1406V60.7031C87.2969 62.2996 86.0027 63.5938 84.4062 63.5938Z" fill="#4BCD5C"/>
<path d="M11.063 63.5938H2.89062C1.29413 63.5938 0 62.2996 0 60.7031V12.1406C0 10.5441 1.29413 9.25 2.89062 9.25H11.063C9.46651 9.25 8.17237 10.5441 8.17237 12.1406V60.7031C8.17237 62.2996 9.4668 63.5938 11.063 63.5938Z" fill="#00C53B"/>
<path d="M24.1731 36.0578C24.1731 37.2551 23.2024 38.2258 22.0051 38.2258H21.0518C19.8545 38.2258 18.8838 37.2551 18.8838 36.0578C18.8838 34.8605 19.8545 33.8898 21.0518 33.8898H22.0051C23.2024 33.8898 24.1731 34.8605 24.1731 36.0578ZM21.0518 30.2188H22.0051C23.2024 30.2188 24.1731 29.2481 24.1731 28.0508C24.1731 26.8535 23.2024 25.8828 22.0051 25.8828H21.0518C19.8545 25.8828 18.8838 26.8535 18.8838 28.0508C18.8838 29.2481 19.8545 30.2188 21.0518 30.2188ZM22.0051 41.8969H21.0518C19.8545 41.8969 18.8838 42.8675 18.8838 44.0648C18.8838 45.2621 19.8545 46.2328 21.0518 46.2328H22.0051C23.2024 46.2328 24.1731 45.2621 24.1731 44.0648C24.1731 42.8675 23.2024 41.8969 22.0051 41.8969Z" fill="white"/>
<path d="M56.8431 28.0547C56.8431 29.252 55.8725 30.2227 54.6752 30.2227H30.1049C28.9076 30.2227 27.9369 29.252 27.9369 28.0547C27.9369 26.8574 28.9076 25.8867 30.1049 25.8867H54.6752C55.8725 25.8867 56.8431 26.8574 56.8431 28.0547ZM43.9689 33.8938H30.1046C28.9073 33.8938 27.9366 34.8644 27.9366 36.0617C27.9366 37.259 28.9073 38.2297 30.1046 38.2297H43.9689C45.1662 38.2297 46.1368 37.259 46.1368 36.0617C46.1368 34.8644 45.1665 33.8938 43.9689 33.8938ZM60.977 33.8938H51.9285C50.7312 33.8938 49.7605 34.8644 49.7605 36.0617C49.7605 37.259 50.7312 38.2297 51.9285 38.2297H60.977C62.1743 38.2297 63.145 37.259 63.145 36.0617C63.145 34.8644 62.1743 33.8938 60.977 33.8938ZM32.7842 41.9008H30.1049C28.9076 41.9008 27.9369 42.8715 27.9369 44.0687C27.9369 45.266 28.9076 46.2367 30.1049 46.2367H32.7842C33.9815 46.2367 34.9521 45.266 34.9521 44.0687C34.9521 42.8715 33.9815 41.9008 32.7842 41.9008ZM41.0869 17.9375H16.5166C15.3193 17.9375 14.3486 18.9082 14.3486 20.1055C14.3486 21.3028 15.3193 22.2734 16.5166 22.2734H41.0869C42.2842 22.2734 43.2549 21.3028 43.2549 20.1055C43.2549 18.9082 42.2842 17.9375 41.0869 17.9375ZM24.223 50.5727H16.5166C15.3193 50.5727 14.3486 51.5433 14.3486 52.7406C14.3486 53.9379 15.3193 54.9086 16.5166 54.9086H24.223C25.4203 54.9086 26.391 53.9379 26.391 52.7406C26.391 51.5433 25.4203 50.5727 24.223 50.5727ZM40.3758 50.5727H32.6694C31.4721 50.5727 30.5014 51.5433 30.5014 52.7406C30.5014 53.9379 31.4721 54.9086 32.6694 54.9086H40.3758C41.5731 54.9086 42.5438 53.9379 42.5438 52.7406C42.5438 51.5433 41.5731 50.5727 40.3758 50.5727Z" fill="#AFE6AF"/>
<path d="M96.3644 15.1543L86.1446 25.3741C85.0158 26.5029 83.1854 26.5029 82.0566 25.3741L71.8368 15.1543C70.708 14.0255 70.708 12.1952 71.8368 11.0664L82.0566 0.846592C83.1854 -0.282197 85.0158 -0.282197 86.1446 0.846592L96.3644 11.0664C97.4934 12.1952 97.4934 14.0255 96.3644 15.1543Z" fill="#FFC143"/>
<path d="M80.9004 15.154L88.6325 22.8862L86.1446 25.3741C85.0158 26.5029 83.1854 26.5029 82.0566 25.3741L71.8368 15.1543C70.708 14.0255 70.708 12.1952 71.8368 11.0664L82.0566 0.846592C83.1854 -0.282197 85.0158 -0.282197 86.1446 0.846592L88.6325 3.33455L80.9004 11.0667C79.7716 12.1949 79.7716 14.0252 80.9004 15.154Z" fill="#FFAA00"/>
<path d="M90.849 13.112C90.849 14.3093 89.8783 15.28 88.681 15.28H86.2685V17.6925C86.2685 18.8898 85.2978 19.8605 84.1005 19.8605C82.9032 19.8605 81.9325 18.8898 81.9325 17.6925V15.28H79.52C78.3227 15.28 77.3521 14.3093 77.3521 13.112C77.3521 11.9147 78.3227 10.9441 79.52 10.9441H81.9325V8.53125C81.9325 7.33395 82.9032 6.36328 84.1005 6.36328C85.2978 6.36328 86.2685 7.33366 86.2685 8.53125V10.9441H88.681C89.8783 10.9441 90.849 11.9147 90.849 13.112Z" fill="#FFF5F5"/>
<path d="M61.7696 117.724L59.1221 122.309C58.2083 123.892 56.1843 124.434 54.6014 123.52L52.7812 122.47C51.4561 123.54 49.9628 124.41 48.3467 125.034V127.132C48.3467 128.959 46.8649 130.441 45.0372 130.441H39.7421C37.9144 130.441 36.4327 128.959 36.4327 127.132V125.034C34.8168 124.41 33.3232 123.54 31.9982 122.47L30.1779 123.52C28.595 124.434 26.571 123.892 25.6573 122.309L23.0098 117.724C22.096 116.141 22.6383 114.117 24.2212 113.203L26.0397 112.153C25.9099 111.318 25.8426 110.463 25.8426 109.592C25.8426 108.72 25.9102 107.865 26.0397 107.031L24.2212 105.98C22.6383 105.067 22.096 103.042 23.0098 101.46L25.6573 96.8741C26.571 95.2912 28.595 94.7489 30.1779 95.6629L31.9982 96.7137C33.3229 95.6433 34.8165 94.7732 36.4327 94.1494V92.0517C36.4327 90.2239 37.9144 88.7422 39.7421 88.7422H45.0372C46.8649 88.7422 48.3467 90.2239 48.3467 92.0517V94.1494C49.9625 94.7732 51.4561 95.6433 52.7812 96.7137L54.6014 95.6629C56.1843 94.7489 58.2083 95.2915 59.1221 96.8741L61.7696 101.46C62.6833 103.043 62.141 105.067 60.5581 105.98L58.7396 107.031C58.8694 107.865 58.9368 108.72 58.9368 109.592C58.9368 110.463 58.8691 111.318 58.7396 112.153L60.5581 113.203C62.1413 114.117 62.6836 116.141 61.7696 117.724Z" fill="#2DD2E3"/>
<path d="M54.3036 109.589L48.3466 119.907H36.4326L30.4756 109.589L36.4326 99.2715H48.3466L54.3036 109.589Z" fill="#00BFD8"/>
<path d="M49.6704 109.592L46.03 115.898H38.7493L35.1089 109.592L38.7493 103.287H46.03L49.6704 109.592Z" fill="#004B94"/>
<path d="M80.4208 121.729H68.9173L63.1655 131.691L68.9173 141.654H80.4208L86.1726 131.691L80.4208 121.729ZM77.2255 136.119H72.1129L69.5564 131.691L72.1129 127.263H77.2255L79.782 131.691L77.2255 136.119Z" fill="#FFF5F5"/>
</svg>
