<svg width="100" height="100" viewBox="0 0 100 100" fill="none" xmlns="http://www.w3.org/2000/svg">
<path d="M66.4631 88.6184H33.5361L37.6012 74.3906H62.398L66.4631 88.6184Z" fill="#365E7D"/>
<path d="M95.935 74.3902H4.06504C1.81992 74.3902 0 72.5703 0 70.3252V7.31699C0 5.07207 1.81992 3.25195 4.06504 3.25195H95.935C98.1801 3.25195 100 5.07188 100 7.31699V70.3252C100 72.5703 98.1801 74.3902 95.935 74.3902Z" fill="#4A80AA"/>
<path d="M95.9348 3.25195H89.4307C91.6758 3.25195 93.4957 5.07188 93.4957 7.31699V70.3252C93.4957 72.5703 91.6758 74.3902 89.4307 74.3902H95.9348C98.1799 74.3902 99.9998 72.5703 99.9998 70.3252V7.31699C99.9998 5.07207 98.1799 3.25195 95.9348 3.25195Z" fill="#407093"/>
<path d="M6.50391 59.7764V11.768C6.50391 10.6566 7.40469 9.75586 8.51602 9.75586H91.4838C92.5951 9.75586 93.4959 10.6566 93.4959 11.768V59.7764C93.4959 60.8877 92.5951 61.7885 91.4838 61.7885H8.51602C7.40469 61.7885 6.50391 60.8875 6.50391 59.7764Z" fill="white"/>
<path d="M61.7891 21.5566V17.467C61.7891 16.8002 62.3295 16.2598 62.9963 16.2598H85.785C86.4518 16.2598 86.9922 16.8002 86.9922 17.467V21.5566C86.9922 22.2234 86.4518 22.7639 85.785 22.7639H62.9963C62.3295 22.7639 61.7891 22.2232 61.7891 21.5566Z" fill="#E278B1"/>
<path d="M88.6182 61.7885V9.75586H91.4842C92.5955 9.75586 93.4963 10.6566 93.4963 11.768V59.7764C93.4963 60.8877 92.5955 61.7885 91.4842 61.7885H88.6182Z" fill="#ECECEC"/>
<path d="M71.5654 96.7473H28.435C27.3236 96.7473 26.4229 95.8465 26.4229 94.7352V92.6822C26.4229 90.4371 28.2428 88.6172 30.4879 88.6172H69.5123C71.7574 88.6172 73.5773 90.4371 73.5773 92.6822V94.7352C73.5773 95.8463 72.6766 96.7473 71.5654 96.7473Z" fill="#4A80AA"/>
<path d="M69.5123 88.6172H64.0244C66.2695 88.6172 68.0895 90.4371 68.0895 92.6822V96.7473H71.5652C72.6766 96.7473 73.5773 95.8465 73.5773 94.7352V92.6822C73.5773 90.4371 71.7574 88.6172 69.5123 88.6172Z" fill="#407093"/>
<path d="M55.6789 45.5273H59.7686C60.4354 45.5273 60.9758 46.0678 60.9758 46.7346V54.0762C60.9758 54.743 60.4354 55.2834 59.7686 55.2834H55.6789C55.0121 55.2834 54.4717 54.743 54.4717 54.0762V46.7346C54.4717 46.0678 55.0123 45.5273 55.6789 45.5273Z" fill="#A2F4C1"/>
<path d="M68.6867 37.3984H72.7764C73.4432 37.3984 73.9836 37.9389 73.9836 38.6057V54.0773C73.9836 54.7441 73.4432 55.2846 72.7764 55.2846H68.6867C68.0199 55.2846 67.4795 54.7441 67.4795 54.0773V38.6057C67.4795 37.9389 68.0199 37.3984 68.6867 37.3984Z" fill="#78D0B1"/>
<path d="M81.6955 29.2676H85.7852C86.452 29.2676 86.9924 29.808 86.9924 30.4748V54.0766C86.9924 54.7434 86.452 55.2838 85.7852 55.2838H81.6955C81.0287 55.2838 80.4883 54.7434 80.4883 54.0766V30.4748C80.4883 29.808 81.0287 29.2676 81.6955 29.2676Z" fill="#66B49D"/>
<path d="M23.1705 50.2895H13.008C12.1744 50.2895 11.499 49.6139 11.499 48.7805C11.499 47.9471 12.1746 47.2715 13.008 47.2715H23.1705C24.0041 47.2715 24.6795 47.9471 24.6795 48.7805C24.6795 49.6139 24.0039 50.2895 23.1705 50.2895Z" fill="#E4F6FF"/>
<path d="M33.3332 56.7934H13.008C12.1744 56.7934 11.499 56.1178 11.499 55.2844C11.499 54.451 12.1746 53.7754 13.008 53.7754H33.3332C34.1668 53.7754 34.8422 54.451 34.8422 55.2844C34.8422 56.1178 34.1668 56.7934 33.3332 56.7934Z" fill="#E4F6FF"/>
<path d="M36.721 36.333C36.3349 36.333 35.9486 36.1855 35.6539 35.891C35.0646 35.3016 35.0646 34.3463 35.6539 33.7566L50.1523 19.2582C50.7417 18.6691 51.697 18.6691 52.2867 19.2582C52.8759 19.8477 52.8759 20.8029 52.2867 21.3926L37.7882 35.891C37.4935 36.1857 37.1072 36.333 36.721 36.333Z" fill="#FFD064"/>
<path d="M35.3939 34.8707C35.0078 34.8707 34.6214 34.7232 34.3267 34.4287L28.9156 29.0176C28.3263 28.4281 28.3263 27.4729 28.9156 26.8832C29.505 26.2941 30.4603 26.2941 31.0499 26.8832L36.4611 32.2943C37.0503 32.8838 37.0503 33.8391 36.4611 34.4287C36.1664 34.7234 35.78 34.8707 35.3939 34.8707Z" fill="#FFD064"/>
<path d="M17.8177 37.3488C17.4316 37.3488 17.0453 37.2014 16.7505 36.9068C16.1613 36.3174 16.1613 35.3621 16.7505 34.7725L25.5031 26.0199C26.0925 25.4309 27.0478 25.4309 27.6375 26.0199C28.2267 26.6094 28.2267 27.5646 27.6375 28.1543L18.8849 36.9068C18.5902 37.2016 18.2039 37.3488 17.8177 37.3488Z" fill="#FFD064"/>
<path d="M17.0729 40.6496C19.3179 40.6496 21.1379 38.8296 21.1379 36.5846C21.1379 34.3395 19.3179 32.5195 17.0729 32.5195C14.8278 32.5195 13.0078 34.3395 13.0078 36.5846C13.0078 38.8296 14.8278 40.6496 17.0729 40.6496Z" fill="#FFE07D"/>
<path d="M27.8453 29.8781C30.0904 29.8781 31.9104 28.0581 31.9104 25.8131C31.9104 23.568 30.0904 21.748 27.8453 21.748C25.6003 21.748 23.7803 23.568 23.7803 25.8131C23.7803 28.0581 25.6003 29.8781 27.8453 29.8781Z" fill="#FFE07D"/>
<path d="M36.7887 38.8215C39.0337 38.8215 40.8537 37.0015 40.8537 34.7564C40.8537 32.5114 39.0337 30.6914 36.7887 30.6914C34.5436 30.6914 32.7236 32.5114 32.7236 34.7564C32.7236 37.0015 34.5436 38.8215 36.7887 38.8215Z" fill="#FFE07D"/>
<path d="M51.2193 24.3898C53.4644 24.3898 55.2844 22.5699 55.2844 20.3248C55.2844 18.0797 53.4644 16.2598 51.2193 16.2598C48.9743 16.2598 47.1543 18.0797 47.1543 20.3248C47.1543 22.5699 48.9743 24.3898 51.2193 24.3898Z" fill="#FFE07D"/>
</svg>
