<svg width="148" height="148" viewBox="0 0 148 148" fill="none" xmlns="http://www.w3.org/2000/svg">
<path d="M126.253 29.3741H97.9521V19.2679L106.289 17.9336H124.627C125.525 17.9336 126.254 18.662 126.254 19.5607V29.3741H126.253Z" fill="#C8EFFE"/>
<path d="M106.289 17.9336V29.3747H97.9506L93.4658 23.1359L97.9506 17.9336H106.289Z" fill="#99E6FC"/>
<path d="M97.9522 29.3741H49.1553V13.0907C49.1553 12.192 49.8837 11.4635 50.7824 11.4635L57.0499 10.4414H96.3251C97.2238 10.4414 97.9522 11.1698 97.9522 12.0685V29.3741Z" fill="#FD7F86"/>
<path d="M57.05 10.4414V29.3747H48.1162V12.0703C48.1162 11.171 48.8458 10.4414 49.7422 10.4414H57.05Z" fill="#FE656F"/>
<path d="M124.202 80.7404H50.6132L37.2334 30.5664H137.581L124.202 80.7404Z" fill="#F5F8F9"/>
<path d="M142.339 28.332H137.581H117.511H97.4413H77.3717H57.3021H33.0078L48.5348 82.9729H65.3302H80.0481H94.766H109.484H124.202C125.213 82.9729 126.099 82.2928 126.36 81.3152L139.297 32.7989H142.34C143.573 32.7989 144.573 31.799 144.573 30.5656C144.573 29.3319 143.573 28.332 142.339 28.332ZM112.931 45.0566H98.9054L99.559 32.7986H114.892L112.931 45.0566ZM126.945 61.7812H114.779L116.74 49.5232H130.214L126.945 61.7812ZM110.255 61.7812H98.0133L98.6669 49.5232H112.216L110.255 61.7812ZM44.5995 49.5235H58.0736L60.0349 61.7815H47.8682L44.5995 49.5235ZM62.5974 49.5235H76.1463L76.8002 61.7815H64.5584L62.5974 49.5235ZM80.6199 49.5235H94.1942L93.5404 61.7815H81.2734L80.6199 49.5235ZM95.086 32.7989L94.4321 45.0569H80.3814L79.7275 32.7989H95.086ZM75.2546 32.7989L75.9084 45.0569H61.8828L59.9216 32.7989H75.2546ZM55.3977 32.7989L57.359 45.0569H43.4086L40.1399 32.7989H55.3977ZM49.0595 66.2481H60.7497L62.711 78.5061H52.3282L49.0595 66.2481ZM65.2735 66.2481H77.0387L77.6925 78.5061H67.2348L65.2735 66.2481ZM82.1655 78.5061L81.5116 66.2481H93.3022L92.6483 78.5061H82.1655ZM97.1216 78.5061L97.7752 66.2481H109.54L107.579 78.5061H97.1216ZM122.485 78.5061H112.103L114.064 66.2481H125.754L122.485 78.5061ZM131.405 45.0566H117.455L119.416 32.7986H134.674L131.405 45.0566Z" fill="#E8EDF2"/>
<path d="M48.5923 85.2818C46.7938 86.2557 44.8252 86.9136 42.4101 87.3784L24.3613 25.1614C24.1946 24.5362 23.7032 24.3246 22.8308 24.3365C22.7651 24.3304 22.6998 24.3246 22.6342 24.3246H9.91256L5.10921 23.887C2.56314 23.887 0.636541 22.3711 0.517447 19.8311C0.389393 17.1183 2.42324 15.2035 5.10921 15.2035L9.38849 14.8789H22.6342C27.6223 14.8789 32.0027 18.2439 33.2862 23.0623L47.5384 76.5718L48.5923 85.2818Z" fill="#A79BA7"/>
<path d="M52.7796 82.527C49.5933 85.4601 45.0073 87.095 40.7223 87.7026L37.947 77.2802H37.9499L24.1564 25.4946C23.9749 24.8067 23.3493 24.3242 22.6348 24.3242H24.5018C27.2742 24.3242 29.7041 26.1913 30.4157 28.8715L42.8038 75.3764C42.992 76.0826 43.6305 76.5734 44.3616 76.572C45.6123 76.5694 47.3834 76.572 47.5355 76.5711L49.1227 82.527H52.7796Z" fill="#918291"/>
<path d="M10.2168 24.3249H4.85646C2.31328 24.3249 0.124504 22.3714 0.00540994 19.8311C-0.122645 17.1183 2.03925 14.8789 4.72233 14.8789H10.0827C7.39963 14.8789 5.23773 17.1183 5.36579 19.8311C5.48488 22.3714 7.67366 24.3249 10.2168 24.3249Z" fill="#918291"/>
<path d="M121.173 91.8739V82.5273H43.8984C33.2048 82.5273 24.5361 91.196 24.5361 101.89C24.5361 109.1 28.4769 115.389 34.3223 118.722L54.2665 119.401L73.8655 121.252H121.173V111.953H70.3904L41.4021 113.558C39.2326 113.558 38.8222 110.096 38.8222 110.096C36.268 108.275 34.6027 105.289 34.6027 101.914C34.6027 96.3688 39.0977 91.8739 44.6425 91.8739H121.173Z" fill="#A79BA7"/>
<path d="M73.8664 121.251H43.8999C40.4158 121.251 37.1462 120.331 34.3232 118.723C35.1034 115.471 36.6727 112.523 38.8228 110.096C40.4667 111.266 42.4734 111.954 44.6442 111.954H70.391C72.267 114.649 73.4999 117.823 73.8664 121.251Z" fill="#918291"/>
<path d="M53.8759 137.556C61.6903 137.556 68.0252 131.222 68.0252 123.407C68.0252 115.593 61.6903 109.258 53.8759 109.258C46.0614 109.258 39.7266 115.593 39.7266 123.407C39.7266 131.222 46.0614 137.556 53.8759 137.556Z" fill="#A79BA7"/>
<path d="M53.8759 128.918C56.9194 128.918 59.3866 126.451 59.3866 123.407C59.3866 120.364 56.9194 117.896 53.8759 117.896C50.8325 117.896 48.3652 120.364 48.3652 123.407C48.3652 126.451 50.8325 128.918 53.8759 128.918Z" fill="#F5F8F9"/>
<path d="M148 105.534C148 108.439 147.612 111.253 146.887 113.928C146.887 113.928 144.913 116.605 144.191 118.182C139.137 129.219 128.354 135.138 115.421 135.138C97.7354 135.138 85.918 123.219 85.918 105.534C85.918 93.4709 90.8962 83.4795 100.749 78.0194C101.406 77.6554 102.491 76.483 102.491 76.483C106.59 74.5769 111.159 73.5117 115.977 73.5117C133.663 73.5117 148 87.8483 148 105.534Z" fill="#B8EB7C"/>
<path d="M146.888 113.93C143.201 127.545 130.759 137.559 115.979 137.559C98.2934 137.559 83.9551 123.22 83.9551 105.535C83.9551 92.6675 91.5453 81.5736 102.492 76.4844C101.765 79.1585 101.379 81.9768 101.379 84.8802C101.379 102.566 115.714 116.901 133.4 116.901C138.218 116.902 142.787 115.839 146.888 113.93Z" fill="#98DB7C"/>
<path d="M112.331 118.468C111.14 118.468 109.998 117.993 109.158 117.146L100.105 108.401C98.3674 106.649 98.3793 103.82 100.132 102.082C101.884 100.345 103.832 101.576 105.571 103.328L111.957 108.679L126.382 92.8971C128.047 91.0754 130.874 90.9488 132.695 92.6135C134.517 94.2785 134.644 97.1047 132.979 98.926L119.46 113.716L115.628 117.014C114.804 117.917 113.644 118.442 112.422 118.467C112.391 118.467 112.361 118.468 112.331 118.468Z" fill="#F5F8F9"/>
<path d="M119.46 113.718L115.386 118.173C114.561 119.075 113.403 119.599 112.179 119.626H112.09C110.899 119.626 109.755 119.153 108.915 118.304L99.1031 108.408C97.3641 106.658 97.376 103.829 99.13 102.089C100.881 100.353 103.71 100.365 105.449 102.116L109.585 106.291L111.795 108.519L111.955 108.679L111.964 108.67C114.201 110.687 116.72 112.39 119.46 113.718Z" fill="#E8EDF2"/>
<path d="M111.965 108.671L111.956 108.68L111.795 108.52C111.852 108.57 111.908 108.621 111.965 108.671Z" fill="#E8EDF2"/>
</svg>
