<svg width="100" height="100" viewBox="0 0 100 100" fill="none" xmlns="http://www.w3.org/2000/svg">
<path fill-rule="evenodd" clip-rule="evenodd" d="M50 2.14844L11.85 14.9971C10.0891 15.59 8.9541 17.1699 8.9541 19.0279V54.1807C8.9541 77.1018 32.8129 86.6156 50.0002 97.8516C67.1873 86.6156 91.0461 77.1018 91.0461 54.1807V19.0279C91.0461 17.1697 89.9113 15.59 88.1502 14.9971L50 2.14844Z" fill="#2A93FC"/>
<path fill-rule="evenodd" clip-rule="evenodd" d="M50 2.14844L11.85 14.9971C10.0891 15.59 8.9541 17.1699 8.9541 19.0279V54.1807C8.9541 77.1018 32.8129 86.6156 50.0002 97.8516V2.14844H50Z" fill="#43A2FF"/>
<path fill-rule="evenodd" clip-rule="evenodd" d="M50.0002 8.33203L14.8135 20.1824V54.1812C14.8135 58.5564 15.8725 62.5416 18.1074 66.3045C24.2254 76.6059 39.0754 84.2266 49.9867 90.9166C53.7586 88.5736 57.6084 86.3518 61.3939 84.033C72.5682 77.1883 85.1867 68.7879 85.1867 54.1812V20.1824L50.0002 8.33203Z" fill="#CFCFFF"/>
<path fill-rule="evenodd" clip-rule="evenodd" d="M48.5354 8.82422L14.8135 20.1813V54.1801C14.8135 58.5553 15.8725 62.5404 18.1074 66.3033C24.0566 76.3205 38.2623 83.8027 49.0746 90.3596C52.1953 88.4627 55.3516 86.6215 58.4643 84.7149C69.6385 77.8701 82.257 69.4697 82.257 54.8631V20.1813L48.5354 8.82422Z" fill="#E9E9FF"/>
<path fill-rule="evenodd" clip-rule="evenodd" d="M50.0002 8.33203L14.8135 20.1824V54.1812C14.8135 58.5564 15.8725 62.5416 18.1074 66.3045C24.2254 76.6059 39.0754 84.2266 49.9867 90.9166L50.0002 90.9082V8.33203Z" fill="white"/>
<path d="M67.5062 64.8705C77.1805 55.1962 77.1805 39.5109 67.5062 29.8365C57.8318 20.1621 42.1465 20.1621 32.4721 29.8365C22.7977 39.5109 22.7977 55.1962 32.4721 64.8705C42.1465 74.5449 57.8318 74.5449 67.5062 64.8705Z" fill="#2DD62D"/>
<path fill-rule="evenodd" clip-rule="evenodd" d="M50 22.5762C63.6836 22.5762 74.7764 33.6689 74.7764 47.3525C74.7764 61.0361 63.6836 72.1289 50 72.1289V22.5762Z" fill="#29B933"/>
<path fill-rule="evenodd" clip-rule="evenodd" d="M64.5237 36.2239C65.6631 37.3634 65.6631 39.2276 64.5237 40.3671L46.5293 58.3614C45.7748 59.1157 44.8055 59.445 43.7477 59.3058C42.6899 59.1665 41.8387 58.5978 41.3051 57.6737L35.0123 46.7743C34.2067 45.3788 34.6891 43.578 36.0846 42.7724C37.4801 41.9667 39.2809 42.4491 40.0866 43.8446L44.7252 51.8788L60.3803 36.2237C61.5198 35.0843 63.384 35.0843 64.5235 36.2237L64.5237 36.2239Z" fill="#E9E9FF"/>
</svg>
