<svg width="148" height="148" viewBox="0 0 148 148" fill="none" xmlns="http://www.w3.org/2000/svg">
<path d="M42.9604 64.8309C60.1845 64.8309 74.1473 50.8681 74.1473 33.644C74.1473 16.4199 60.1845 2.45703 42.9604 2.45703C25.7363 2.45703 11.7734 16.4199 11.7734 33.644C11.7734 50.8681 25.7363 64.8309 42.9604 64.8309Z" fill="#FFC328"/>
<path fill-rule="evenodd" clip-rule="evenodd" d="M42.9602 2.45703C60.1843 2.45703 74.1471 16.4199 74.1471 33.644C74.1471 37.668 73.3849 41.5137 71.9971 45.0452C69.2099 45.7459 66.2927 46.1196 63.2882 46.1196C43.6213 46.1196 27.6777 30.1764 27.6777 10.5092C27.6777 9.09015 27.7633 7.69166 27.9246 6.31602C32.3837 3.85783 37.5082 2.45703 42.9602 2.45703Z" fill="#FFD54F"/>
<path d="M42.9606 55.5033C55.0336 55.5033 64.8207 45.7162 64.8207 33.6433C64.8207 21.5703 55.0336 11.7832 42.9606 11.7832C30.8877 11.7832 21.1006 21.5703 21.1006 33.6433C21.1006 45.7162 30.8877 55.5033 42.9606 55.5033Z" fill="#FFA200"/>
<path fill-rule="evenodd" clip-rule="evenodd" d="M42.9599 11.7832C55.0329 11.7832 64.82 21.5703 64.82 33.6433C64.82 38.2475 63.3952 42.5184 60.9645 46.0417C44.6969 44.9939 31.4052 33.0244 28.3438 17.389C32.2166 13.9046 37.3402 11.7832 42.9599 11.7832Z" fill="#FFB700"/>
<path fill-rule="evenodd" clip-rule="evenodd" d="M50.3307 28.3462C50.3307 29.4909 49.4026 30.4191 48.2579 30.4191C47.1132 30.4191 46.185 29.4909 46.185 28.3462C46.185 27.4617 45.8217 26.6558 45.236 26.0702C44.6507 25.4848 43.8448 25.1212 42.9599 25.1212H42.4662C41.5814 25.1212 40.7755 25.4848 40.1901 26.0702C39.6048 26.6555 39.2411 27.4614 39.2411 28.3462C39.2411 29.2311 39.6045 30.037 40.1901 30.6223C40.7755 31.2077 41.5814 31.5713 42.4662 31.5713H43.4539C45.4832 31.5713 47.3262 32.4 48.6611 33.7349C49.996 35.0698 50.8248 36.9129 50.8248 38.9421C50.8248 40.971 49.996 42.8144 48.6611 44.1493C47.6826 45.1278 46.431 45.8342 45.0331 46.1418V47.8285C45.0331 48.9732 44.1049 49.9013 42.9602 49.9013C41.8155 49.9013 40.8874 48.9734 40.8874 47.8285V46.0149C39.6886 45.6619 38.6147 45.0113 37.7531 44.1493C36.4182 42.8144 35.5894 40.9713 35.5894 38.9421C35.5894 37.7974 36.5176 36.8692 37.6623 36.8692C38.807 36.8692 39.7352 37.7971 39.7352 38.9421C39.7352 39.8269 40.0988 40.6328 40.6841 41.2182C41.2695 41.8035 42.0754 42.1672 42.9602 42.1672H43.4539C44.3388 42.1672 45.1447 41.8035 45.73 41.2182C46.3157 40.6328 46.679 39.8266 46.679 38.9421C46.679 38.0573 46.3157 37.2514 45.73 36.666C45.1444 36.0807 44.3385 35.717 43.4539 35.717H42.4662C40.4373 35.717 38.5939 34.8883 37.2593 33.5534C35.9244 32.2185 35.0957 30.3752 35.0957 28.3462C35.0957 26.3173 35.9244 24.474 37.259 23.1391C38.2375 22.1606 39.4895 21.4541 40.8871 21.1466V19.4596C40.8871 18.3149 41.8152 17.3867 42.9599 17.3867C44.1046 17.3867 45.0328 18.3149 45.0328 19.4596V21.2737C46.2315 21.6267 47.3051 22.2774 48.1668 23.1394C49.502 24.474 50.3307 26.3173 50.3307 28.3462Z" fill="#FFC328"/>
<path fill-rule="evenodd" clip-rule="evenodd" d="M50.3307 28.3459C50.3307 29.4906 49.4026 30.4188 48.2579 30.4188C47.1132 30.4188 46.185 29.4906 46.185 28.3459C46.185 27.4614 45.8217 26.6555 45.236 26.0699C44.6507 25.4845 43.8448 25.1209 42.9599 25.1209H42.4662C41.5814 25.1209 40.7755 25.4845 40.1901 26.0699C39.6048 26.6552 39.2411 27.4611 39.2411 28.3459C39.2411 29.2308 39.6045 30.0367 40.1901 30.622C40.7755 31.2074 41.5814 31.571 42.4662 31.571H43.4539C45.4832 31.571 47.3262 32.3998 48.6611 33.7346C49.996 35.0695 50.8248 36.9126 50.8248 38.9418C50.8248 40.5713 50.29 42.081 49.3878 43.3041C48.0636 42.7421 46.7802 42.1024 45.5436 41.3905C45.608 41.3353 45.6702 41.2777 45.73 41.2182C46.3157 40.6328 46.679 39.8266 46.679 38.9421C46.679 38.0573 46.3157 37.2514 45.73 36.666C45.1444 36.0807 44.3385 35.717 43.4539 35.717H42.4662C40.4373 35.717 38.5939 34.8883 37.2593 33.5534C35.9244 32.2185 35.0957 30.3752 35.0957 28.3462C35.0957 26.3173 35.9244 24.474 37.259 23.1391C38.2375 22.1606 39.4895 21.4541 40.8871 21.1466V19.4596C40.8871 18.3149 41.8152 17.3867 42.9599 17.3867C44.1046 17.3867 45.0328 18.3149 45.0328 19.4596V21.2737C46.2315 21.6267 47.3051 22.2774 48.1668 23.1394C49.502 24.4737 50.3307 26.317 50.3307 28.3459Z" fill="#FFD54F"/>
<path fill-rule="evenodd" clip-rule="evenodd" d="M13.8154 116.727H29.13C29.4479 116.727 29.7081 116.987 29.7081 117.305V144.965C29.7081 145.283 29.4479 145.543 29.13 145.543H13.8154C13.4975 145.543 13.2373 145.283 13.2373 144.965V117.305C13.2376 116.987 13.4975 116.727 13.8154 116.727Z" fill="#EB4E5C"/>
<path fill-rule="evenodd" clip-rule="evenodd" d="M13.8154 116.727H29.13C29.4479 116.727 29.7081 116.987 29.7081 117.305V127.44C24.0803 126.954 18.5789 126.03 13.2373 124.7V117.305C13.2376 116.987 13.4975 116.727 13.8154 116.727Z" fill="#FF6372"/>
<path fill-rule="evenodd" clip-rule="evenodd" d="M40.4453 100.457H55.7598C56.0784 100.457 56.338 100.717 56.338 101.035V144.966C56.338 145.284 56.0784 145.544 55.7598 145.544C50.655 145.544 45.5502 145.544 40.4453 145.544C40.1271 145.544 39.8672 145.284 39.8672 144.966C39.8672 130.322 39.8672 115.678 39.8672 101.035C39.8672 100.717 40.1268 100.457 40.4453 100.457Z" fill="#ECBE6B"/>
<path fill-rule="evenodd" clip-rule="evenodd" d="M40.4453 100.457H55.7598C56.0784 100.457 56.338 100.717 56.338 101.035V126.413C50.9727 127.3 45.4721 127.783 39.8672 127.833V101.035C39.8672 100.717 40.1268 100.457 40.4453 100.457Z" fill="#F1CB86"/>
<path fill-rule="evenodd" clip-rule="evenodd" d="M67.0742 84.1855H82.3887C82.707 84.1855 82.9669 84.4451 82.9669 84.7637V144.964C82.9669 145.283 82.7073 145.543 82.3887 145.543C77.2839 145.543 72.1788 145.543 67.0742 145.543C66.7557 145.543 66.4961 145.283 66.4961 144.964C66.4961 124.897 66.4961 104.83 66.4961 84.7637C66.4961 84.4451 66.7557 84.1855 67.0742 84.1855Z" fill="#FFC328"/>
<path fill-rule="evenodd" clip-rule="evenodd" d="M67.0742 84.1855H82.3887C82.707 84.1855 82.9669 84.4451 82.9669 84.7637V118.282C77.695 120.695 72.1895 122.683 66.4961 124.214V84.7637C66.4961 84.4451 66.7557 84.1855 67.0742 84.1855Z" fill="#FFD54F"/>
<path fill-rule="evenodd" clip-rule="evenodd" d="M93.7041 67.916H109.019C109.337 67.916 109.597 68.1756 109.597 68.4941V144.965C109.597 145.284 109.337 145.543 109.019 145.543C103.914 145.543 98.8089 145.543 93.7041 145.543C93.3856 145.543 93.126 145.284 93.126 144.965C93.126 119.475 93.126 93.9845 93.126 68.4941C93.126 68.1756 93.3856 67.916 93.7041 67.916Z" fill="#58D561"/>
<path fill-rule="evenodd" clip-rule="evenodd" d="M93.7041 67.916H109.019C109.337 67.916 109.597 68.1756 109.597 68.4941V100.832C104.523 105.377 99.0084 109.438 93.126 112.947V68.4941C93.126 68.1756 93.3856 67.916 93.7041 67.916Z" fill="#6CE75A"/>
<path fill-rule="evenodd" clip-rule="evenodd" d="M120.333 51.6465H135.648C135.966 51.6465 136.226 51.9066 136.226 52.2246V144.966C136.226 145.284 135.966 145.544 135.648 145.544H120.333C120.015 145.544 119.755 145.285 119.755 144.966V52.2243C119.755 51.9063 120.015 51.6465 120.333 51.6465Z" fill="#2891FA"/>
<path fill-rule="evenodd" clip-rule="evenodd" d="M120.333 51.6465H135.648C135.966 51.6465 136.226 51.9066 136.226 52.2246V63.9039C132.047 73.5655 126.472 82.4802 119.755 90.3973V52.2243C119.755 51.9063 120.015 51.6465 120.333 51.6465Z" fill="#43A2FF"/>
<path fill-rule="evenodd" clip-rule="evenodd" d="M112.81 26.2745C111.617 26.2557 110.666 25.2738 110.684 24.0811C110.703 22.8884 111.685 21.9368 112.878 21.9553L127.404 22.2282C128.597 22.247 129.548 23.229 129.53 24.4216L129.257 38.9479C129.238 40.1406 128.256 41.0921 127.063 41.0736C125.871 41.0549 124.919 40.0729 124.937 38.8802L125.112 29.5924C113.939 40.2579 97.676 52.6425 80.0796 64.2157C60.8015 76.8948 39.8941 88.6195 22.3119 96.0542C21.2129 96.5173 19.9462 96.0016 19.4834 94.9026C19.0204 93.8036 19.5361 92.5369 20.6351 92.0741C37.9777 84.7409 58.6361 73.1521 77.7084 60.6082C95.1083 49.1642 111.163 36.9412 122.143 26.45L112.81 26.2745Z" fill="#7E7381"/>
</svg>
