<svg width="148" height="148" viewBox="0 0 148 148" fill="none" xmlns="http://www.w3.org/2000/svg">
<g clip-path="url(#clip0_1161_4830)">
<path d="M108.864 129.11H97.7635C91.9239 129.11 87.1729 124.359 87.1729 118.519V90.2734C87.1729 89.0759 88.1435 88.1055 89.3408 88.1055C90.5381 88.1055 91.5088 89.0759 91.5088 90.2734V118.52C91.5088 121.969 94.3147 124.774 97.7635 124.774H108.864C110.061 124.774 111.032 125.745 111.032 126.942C111.032 128.14 110.061 129.11 108.864 129.11Z" fill="#7A6D79"/>
<path d="M50.2363 129.11H39.1357C37.9384 129.11 36.9678 128.14 36.9678 126.942C36.9678 125.745 37.9384 124.774 39.1357 124.774H50.2363C53.6851 124.774 56.4911 121.968 56.4911 118.519V90.2734C56.4911 89.0759 57.4617 88.1055 58.659 88.1055C59.8563 88.1055 60.827 89.0759 60.827 90.2734V118.52C60.827 124.359 56.076 129.11 50.2363 129.11Z" fill="#7A6D79"/>
<path d="M89.3408 59.8063C88.1435 59.8063 87.1729 58.836 87.1729 57.6384V29.4793C87.1729 23.6397 91.9239 18.8887 97.7635 18.8887H108.777C109.974 18.8887 110.945 19.8591 110.945 21.0566C110.945 22.2542 109.974 23.2246 108.777 23.2246H97.7635C94.3147 23.2246 91.5088 26.0305 91.5088 29.4793V57.6384C91.5088 58.836 90.5381 59.8063 89.3408 59.8063Z" fill="#7A6D79"/>
<path d="M58.6596 59.8063C57.4623 59.8063 56.4916 58.836 56.4916 57.6384V29.4793C56.4916 26.0305 53.6857 23.2246 50.2369 23.2246H39.2236C38.0263 23.2246 37.0557 22.2542 37.0557 21.0566C37.0557 19.8591 38.0263 18.8887 39.2236 18.8887H50.2369C56.0766 18.8887 60.8276 23.6397 60.8276 29.4793V57.6384C60.8276 58.836 59.8569 59.8063 58.6596 59.8063Z" fill="#7A6D79"/>
<path d="M110.699 93.252H37.3004C33.9777 93.252 31.2842 90.5586 31.2842 87.2358V60.7643C31.2842 57.4415 33.9777 54.748 37.3004 54.748H110.699C114.022 54.748 116.715 57.4415 116.715 60.7643V87.2358C116.715 90.5583 114.021 93.252 110.699 93.252Z" fill="#D8ECFE"/>
<path d="M110.699 54.748H102.878C106.201 54.748 108.894 57.4415 108.894 60.7643V87.2358C108.894 90.5586 106.201 93.252 102.878 93.252H110.699C114.022 93.252 116.715 90.5586 116.715 87.2358V60.7643C116.715 57.4418 114.022 54.748 110.699 54.748Z" fill="#C4E2FF"/>
<path d="M145.202 31.5399C146.979 28.4521 148 24.875 148 21.0568C148 9.42749 138.572 0 126.943 0C115.313 0 105.886 9.42749 105.886 21.0568C105.886 24.8747 106.907 28.4521 108.684 31.5399H145.202Z" fill="#D8ECFE"/>
<path d="M135.68 31.5398H145.202C146.979 28.452 148 24.8749 148 21.0566C148 13.9006 144.427 7.58227 138.971 3.77734C141.349 7.1877 142.748 11.3323 142.748 15.8055C142.749 22.0649 140.015 27.6828 135.68 31.5398Z" fill="#C4E2FF"/>
<path d="M126.943 20.9668C119.131 20.9668 112.318 25.2235 108.684 31.5407C112.319 37.8579 119.131 42.1146 126.943 42.1146C134.754 42.1146 141.567 37.8579 145.201 31.5407C141.567 25.2235 134.754 20.9668 126.943 20.9668Z" fill="#F07281"/>
<path d="M140.267 25.7246C136.72 32.3519 129.734 36.8619 121.692 36.8619C117.221 36.8619 113.08 35.4651 109.671 33.0896C113.476 38.5422 119.79 42.113 126.943 42.113C134.754 42.113 141.567 37.8563 145.202 31.5391C143.92 29.3122 142.243 27.3431 140.267 25.7246Z" fill="#EB5569"/>
<path d="M126.943 26.3199C131.676 26.3199 135.513 22.483 135.513 17.7498C135.513 13.0167 131.676 9.17969 126.943 9.17969C122.21 9.17969 118.373 13.0167 118.373 17.7498C118.373 22.483 122.21 26.3199 126.943 26.3199Z" fill="#FED2A4"/>
<path d="M145.202 137.427C146.979 134.339 148 130.762 148 126.944C148 115.314 138.572 105.887 126.943 105.887C115.313 105.887 105.886 115.314 105.886 126.944C105.886 130.762 106.907 134.339 108.684 137.427H145.202Z" fill="#D8ECFE"/>
<path d="M135.68 137.426H145.202C146.979 134.338 148 130.761 148 126.943C148 119.787 144.427 113.469 138.971 109.664C141.349 113.075 142.748 117.219 142.748 121.692C142.749 127.951 140.015 133.569 135.68 137.426Z" fill="#C4E2FF"/>
<path d="M126.943 126.854C119.131 126.854 112.318 131.11 108.684 137.427C112.319 143.745 119.131 148.001 126.943 148.001C134.754 148.001 141.567 143.745 145.201 137.427C141.567 131.11 134.754 126.854 126.943 126.854Z" fill="#FEB237"/>
<path d="M140.267 131.611C136.72 138.239 129.734 142.749 121.692 142.749C117.221 142.749 113.08 141.352 109.671 138.976C113.476 144.429 119.79 148 126.943 148C134.754 148 141.567 143.743 145.202 137.426C143.92 135.199 142.243 133.23 140.267 131.611Z" fill="#F6AB31"/>
<path d="M126.943 132.207C131.676 132.207 135.513 128.37 135.513 123.637C135.513 118.903 131.676 115.066 126.943 115.066C122.21 115.066 118.373 118.903 118.373 123.637C118.373 128.37 122.21 132.207 126.943 132.207Z" fill="#FED2A4"/>
<path d="M39.316 31.5399C41.0925 28.4521 42.1138 24.875 42.1138 21.0568C42.1138 9.42749 32.6863 0 21.057 0C9.42749 0 0 9.42749 0 21.0568C0 24.8747 1.02126 28.4521 2.79784 31.5399H39.316Z" fill="#D8ECFE"/>
<path d="M29.7939 31.5398H39.3162C41.0928 28.452 42.1141 24.8749 42.1141 21.0566C42.1141 13.9006 38.5413 7.58227 33.0852 3.77734C35.4636 7.1877 36.8627 11.3323 36.8627 15.8055C36.863 22.0649 34.1293 27.6828 29.7939 31.5398Z" fill="#C4E2FF"/>
<path d="M21.0568 20.9668C13.2454 20.9668 6.43252 25.2235 2.79785 31.5407C6.43281 37.8579 13.2454 42.1146 21.0568 42.1146C28.8681 42.1146 35.681 37.8579 39.3157 31.5407C35.6807 25.2235 28.8681 20.9668 21.0568 20.9668Z" fill="#80D261"/>
<path d="M34.3813 25.7246C30.8348 32.3519 23.8478 36.8619 15.8058 36.8619C11.3358 36.8619 7.19436 35.4651 3.78516 33.0896C7.59009 38.5422 13.9038 42.113 21.0569 42.113C28.8683 42.113 35.6812 37.8563 39.3158 31.5391C38.0344 29.3122 36.3567 27.3431 34.3813 25.7246Z" fill="#68CA44"/>
<path d="M21.0574 26.3199C25.7906 26.3199 29.6276 22.483 29.6276 17.7498C29.6276 13.0167 25.7906 9.17969 21.0574 9.17969C16.3243 9.17969 12.4873 13.0167 12.4873 17.7498C12.4873 22.483 16.3243 26.3199 21.0574 26.3199Z" fill="#FED2A4"/>
<path d="M39.316 137.427C41.0925 134.339 42.1138 130.762 42.1138 126.944C42.1138 115.314 32.6863 105.887 21.0568 105.887C9.42749 105.887 0 115.314 0 126.944C0 130.762 1.02126 134.339 2.79784 137.427H39.316Z" fill="#D8ECFE"/>
<path d="M29.7939 137.426H39.3162C41.0928 134.338 42.1141 130.761 42.1141 126.943C42.1141 119.787 38.5413 113.469 33.0852 109.664C35.4636 113.075 36.8627 117.219 36.8627 121.692C36.863 127.951 34.1293 133.569 29.7939 137.426Z" fill="#C4E2FF"/>
<path d="M21.0568 126.854C13.2454 126.854 6.43252 131.11 2.79785 137.427C6.43252 143.745 13.2451 148.001 21.0568 148.001C28.8684 148.001 35.681 143.745 39.3157 137.427C35.6807 131.11 28.8681 126.854 21.0568 126.854Z" fill="#60B7FF"/>
<path d="M34.3813 131.611C30.8348 138.239 23.8478 142.749 15.8058 142.749C11.3358 142.749 7.19436 141.352 3.78516 138.976C7.5898 144.429 13.9038 148 21.0569 148C28.8683 148 35.6812 143.743 39.3158 137.426C38.0344 135.199 36.3567 133.23 34.3813 131.611Z" fill="#26A6FE"/>
<path d="M21.0574 132.207C25.7906 132.207 29.6276 128.37 29.6276 123.637C29.6276 118.903 25.7906 115.066 21.0574 115.066C16.3243 115.066 12.4873 118.903 12.4873 123.637C12.4873 128.37 16.3243 132.207 21.0574 132.207Z" fill="#FED2A4"/>
<path d="M96.6675 85.7932C95.5474 85.7932 94.5571 85.0815 94.2004 84.0183C94.192 83.9932 94.1839 83.9677 94.1764 83.942L90.7452 72.313L88.6614 83.8599C88.4489 85.0384 87.3196 85.8209 86.1428 85.6085C84.9646 85.3957 84.1815 84.2681 84.3942 83.0899L87.7783 64.3418C88.0061 63.157 88.9854 62.2912 90.1645 62.2123C91.3459 62.1331 92.4302 62.8604 92.8062 63.9805C92.8146 64.006 92.823 64.0317 92.8302 64.0574L96.6392 76.9678L100.313 64.0797C100.32 64.0545 100.328 64.0297 100.336 64.0048C100.701 62.8809 101.781 62.1412 102.958 62.2094C104.137 62.2756 105.126 63.1304 105.362 64.2875L108.952 83.0679C109.176 84.2438 108.405 85.3795 107.229 85.6041C106.053 85.8328 104.917 85.0581 104.693 83.8819L102.479 72.2986L99.1668 83.9186C99.1595 83.944 99.1517 83.9692 99.1436 83.994C98.7959 85.0644 97.8064 85.7874 96.6805 85.7932C96.6765 85.7932 96.6719 85.7932 96.6675 85.7932Z" fill="#F07281"/>
<path d="M50.8028 85.7932C44.2995 85.7932 39.0088 80.5024 39.0088 73.9991C39.0088 67.4958 44.2995 62.2051 50.8028 62.2051C53.1662 62.2051 55.4469 62.902 57.3987 64.2207C58.3907 64.891 58.6517 66.2387 57.9814 67.2307C57.3111 68.2234 55.9637 68.4835 54.9711 67.8138C53.7388 66.9813 52.2976 66.5413 50.8028 66.5413C46.6903 66.5413 43.3447 69.8869 43.3447 73.9994C43.3447 78.1119 46.6903 81.4575 50.8028 81.4575C52.3369 81.4575 53.629 80.9991 54.6442 80.0952C54.8422 79.9191 55.0312 79.7237 55.2064 79.5147C55.9762 78.5975 57.3434 78.4776 58.2606 79.247C59.1778 80.0165 59.2978 81.3841 58.5283 82.3013C58.2187 82.6701 57.8823 83.0176 57.5282 83.3327C55.7206 84.9422 53.3951 85.7932 50.8028 85.7932Z" fill="#F07281"/>
<path d="M73.3813 76.3431C76.6423 75.5783 79.0707 72.7457 79.0707 69.3764C79.0707 65.4221 75.7268 62.2051 71.6163 62.2051H66.5002C65.3035 62.2051 64.3328 63.1749 64.3322 64.3716L64.3262 83.6249C64.3262 84.8225 65.2968 85.7929 66.4941 85.7929C67.6914 85.7929 68.6621 84.8225 68.6621 83.6249V77.5433L75.2753 85.0572C75.7037 85.5443 76.302 85.7929 76.9036 85.7929C77.4123 85.7929 77.9231 85.6148 78.335 85.2523C79.2337 84.4614 79.3213 83.0913 78.5301 82.1926L73.3813 76.3431ZM68.6667 66.541H71.6163C73.3068 66.541 74.7347 67.8395 74.7347 69.3764C74.7347 70.9134 73.3068 72.2121 71.6163 72.2121C70.9359 72.2121 69.7337 72.2173 68.6636 72.2222L68.6667 66.541Z" fill="#F07281"/>
</g>
<defs>
<clipPath id="clip0_1161_4830">
<rect width="148" height="148" fill="white"/>
</clipPath>
</defs>
</svg>
