<svg width="100" height="100" viewBox="0 0 100 100" fill="none" xmlns="http://www.w3.org/2000/svg">
<path fill-rule="evenodd" clip-rule="evenodd" d="M22.8945 46.5293H33.6789V67.734H22.8945V46.5293Z" fill="#DF646E"/>
<path fill-rule="evenodd" clip-rule="evenodd" d="M33.6797 38.8828H44.4697V67.7346H33.6797V38.8828Z" fill="#08A9F1"/>
<path fill-rule="evenodd" clip-rule="evenodd" d="M44.4697 42.8262H55.2598V67.734H44.4697V42.8262Z" fill="#F7DF74"/>
<path fill-rule="evenodd" clip-rule="evenodd" d="M55.2598 32.0859H66.0498V67.7334H55.2598V32.0859Z" fill="#FFB74D"/>
<path fill-rule="evenodd" clip-rule="evenodd" d="M66.0498 27.0449H76.8342V67.7344H66.0498V27.0449Z" fill="#66CC99"/>
<path d="M78.2177 1.48145V15.5207C78.2177 16.285 77.5982 16.9045 76.8339 16.9045C76.0697 16.9045 75.4501 16.285 75.4501 15.5207V4.56816L42.8412 33.635C42.5638 33.8822 42.1986 34.0086 41.8279 33.9826C41.4572 33.9578 41.1119 33.7848 40.8701 33.5025L35.0353 26.6973L22.8082 39.6258C22.5361 39.9135 22.1697 40.0586 21.8025 40.0586C21.4613 40.0586 21.1195 39.9332 20.8519 39.6803C20.2966 39.1551 20.2722 38.2793 20.7974 37.724L34.0804 23.6791C34.3498 23.3943 34.7253 23.2363 35.1195 23.2465C35.5115 23.2561 35.881 23.4314 36.1363 23.7291L42.0529 30.6301L73.2017 2.86523H62.7947C62.0304 2.86523 61.4109 2.2457 61.4109 1.48145C61.4109 0.717187 62.0304 0.0976562 62.7947 0.0976562H76.8341C77.5982 0.0976562 78.2177 0.717187 78.2177 1.48145Z" fill="#66CC99"/>
<path fill-rule="evenodd" clip-rule="evenodd" d="M71.4443 27.0449H76.8338V67.7344H71.4443V27.0449Z" fill="#4DBA83"/>
<path fill-rule="evenodd" clip-rule="evenodd" d="M60.6543 32.0859H66.0492V67.7334H60.6543V32.0859Z" fill="#F7A501"/>
<path fill-rule="evenodd" clip-rule="evenodd" d="M49.8643 42.8262H55.2592V67.734H49.8643V42.8262Z" fill="#F0CC3C"/>
<path fill-rule="evenodd" clip-rule="evenodd" d="M39.0742 38.8828H44.4693V67.7346H39.0742V38.8828Z" fill="#009FE8"/>
<path fill-rule="evenodd" clip-rule="evenodd" d="M28.29 46.5293H33.6795V67.734H28.29V46.5293Z" fill="#D82F3C"/>
<path fill-rule="evenodd" clip-rule="evenodd" d="M70.7723 69.5936L87.6576 50.8876C91.9826 46.1032 99.2207 52.6354 94.8957 57.4255L75.7695 78.6134C73.6855 80.9216 71.0019 82.1147 67.8928 82.1147C65.1141 82.1147 61.7135 82.1147 59.4725 82.1147H45.5508L34.2061 90.7366L14.29 71.1343L24.4021 62.6971C25.5059 61.7784 26.8 61.4591 28.2342 61.4702L43.7021 61.5878H67.0412C69.7248 61.5878 71.9209 63.7782 71.9209 66.4618C71.9209 67.6497 71.4895 68.7421 70.7723 69.5936Z" fill="#F7C5B8"/>
<path fill-rule="evenodd" clip-rule="evenodd" d="M14.2898 71.1348L3.77441 80.1937L23.5617 99.9025L34.2061 90.7371L14.2898 71.1348Z" fill="#08A9F1"/>
<path d="M67.0412 72.7197H43.7021C42.9379 72.7197 42.3184 72.1002 42.3184 71.3359C42.3184 70.5717 42.9379 69.9522 43.7021 69.9522H67.0412C68.9687 69.9522 70.5371 68.3863 70.5371 66.4619C70.5371 65.6977 71.1566 65.0781 71.9209 65.0781C72.6852 65.0781 73.3047 65.6977 73.3047 66.4619C73.3047 69.9123 70.4949 72.7197 67.0412 72.7197Z" fill="#FCAC8F"/>
</svg>
