<svg width="94" height="94" viewBox="0 0 94 94" fill="none" xmlns="http://www.w3.org/2000/svg">
<path d="M2.8095 68.5273H91.1906C92.2152 68.5273 93.046 67.6966 93.046 66.6719V14.0195C93.046 12.9948 92.2154 12.1641 91.1906 12.1641H2.8095C1.78486 12.1641 0.954102 12.9946 0.954102 14.0195V66.6721C0.954285 67.6966 1.78486 68.5273 2.8095 68.5273Z" fill="#F9F8F9"/>
<path d="M93.0457 64.4883V66.6712C93.0457 67.6964 92.2148 68.5273 91.1896 68.5273H2.80938C1.78529 68.5273 0.955078 67.6971 0.955078 66.673V14.0202C0.955078 12.9939 1.78492 12.1641 2.80938 12.1641H5.54492V63.5703C5.54492 64.0772 5.95599 64.4883 6.46289 64.4883H93.0457Z" fill="#E8E8E8"/>
<path d="M42.4102 67.4746H51.5898V79.3105H42.4102V67.4746Z" fill="#615260"/>
<path d="M91.5215 70.1797H2.47852C1.11184 70.1797 0 69.0678 0 67.7012V12.9902C0 11.6236 1.11184 10.5117 2.47852 10.5117H91.5215C92.8882 10.5117 94 11.6236 94 12.9902V67.7012C94 69.0678 92.8882 70.1797 91.5215 70.1797ZM2.75391 67.4258H91.2461V13.2656H2.75391V67.4258Z" fill="#736572"/>
<path d="M60.2188 83.4902H36.9024L34.1836 83.209C33.8794 83.209 33.6328 82.9624 33.6328 82.6582L33.6367 81.7558C33.6367 79.7278 35.2806 78.084 37.3085 78.084L40.1054 77.9824H57.0977C59.1257 77.9824 60.7696 79.6263 60.7696 81.6543V82.9395C60.7696 83.2437 60.5231 83.4902 60.2188 83.4902Z" fill="#736572"/>
<path d="M40.5742 77.9824C38.5455 77.9824 36.9023 79.6256 36.9023 81.6543V83.4902H33.7812C33.4765 83.4902 33.2305 83.2442 33.2305 82.9395V81.6543C33.2305 79.6256 34.8736 77.9824 36.9023 77.9824H40.5742Z" fill="#615260"/>
<path d="M20.8243 55.5372L15.1094 55.463C14.8052 55.463 14.5586 55.2164 14.5586 54.9122L14.668 47.8029C14.668 47.4987 14.9146 47.2521 15.2188 47.2521L17.4414 46.9551H21.1133C21.4175 46.9551 21.664 47.2016 21.664 47.5059V52.6465L21.3751 54.9864C21.3751 55.2906 21.1283 55.5372 20.8243 55.5372Z" fill="#FFE077"/>
<path d="M21.6641 52.6465V55.2168C21.6641 55.5216 21.418 55.7676 21.1133 55.7676H14.8711C14.5663 55.7676 14.3203 55.5216 14.3203 55.2168V47.5059C14.3203 47.2011 14.5663 46.9551 14.8711 46.9551H17.4414V52.2793C17.4414 52.4812 17.6066 52.6465 17.8086 52.6465H21.6641Z" fill="#FFD05B"/>
<path d="M33.6758 55.5372L27.9609 55.463C27.6567 55.463 27.4102 55.2164 27.4102 54.9122L27.5196 27.6076C27.5196 27.3034 27.7661 27.0568 28.0704 27.0568L30.2929 26.7598H33.9648C34.269 26.7598 34.5156 27.0063 34.5156 27.3105V52.6465L34.2266 54.9864C34.2266 55.2906 33.9799 55.5372 33.6758 55.5372Z" fill="#FF7E92"/>
<path d="M34.5156 52.6465V55.2168C34.5156 55.5216 34.2696 55.7676 33.9648 55.7676H27.7227C27.4179 55.7676 27.1719 55.5216 27.1719 55.2168V27.3105C27.1719 27.0058 27.4179 26.7598 27.7227 26.7598H30.293V52.2793C30.293 52.4813 30.4582 52.6465 30.6602 52.6465H34.5156Z" fill="#FF5F7A"/>
<path d="M46.5274 55.5372L40.8125 55.463C40.5083 55.463 40.2617 55.2164 40.2617 54.9122L40.3711 33.1154C40.3711 32.8112 40.6177 32.5646 40.9219 32.5646L43.1445 32.2676H46.8164C47.1206 32.2676 47.3672 32.5141 47.3672 32.8184V52.6465L47.0782 54.9864C47.0782 55.2906 46.8314 55.5372 46.5274 55.5372Z" fill="#B8EB7C"/>
<path d="M47.3672 52.6465V55.2168C47.3672 55.5216 47.1212 55.7676 46.8164 55.7676H40.5742C40.2695 55.7676 40.0234 55.5216 40.0234 55.2168V32.8184C40.0234 32.5136 40.2695 32.2676 40.5742 32.2676H43.1445V52.2793C43.1445 52.4813 43.3098 52.6465 43.5117 52.6465H47.3672Z" fill="#98DB7C"/>
<path d="M59.379 55.5373L53.6641 55.4631C53.3598 55.4631 53.1133 55.2165 53.1133 54.9123L53.2227 36.9142C53.2227 36.61 53.4693 36.3635 53.7735 36.3635L55.9961 36.0664H59.6679C59.9722 36.0664 60.2187 36.313 60.2187 36.6172V52.6466L59.9297 54.9865C59.9297 55.2907 59.683 55.5373 59.379 55.5373Z" fill="#B2E5FB"/>
<path d="M60.2188 52.6466V55.2169C60.2188 55.5217 59.9727 55.7677 59.668 55.7677H53.4258C53.121 55.7677 52.875 55.5217 52.875 55.2169V36.6172C52.875 36.3124 53.121 36.0664 53.4258 36.0664H55.9961V52.2794C55.9961 52.4813 56.1613 52.6466 56.3633 52.6466H60.2188Z" fill="#91DAFA"/>
<path d="M60.3105 62.6523H8.7207C7.96026 62.6523 7.34375 62.0358 7.34375 61.2754V26.7598C7.34375 25.9993 7.96026 25.3828 8.7207 25.3828C9.48115 25.3828 10.0977 25.9993 10.0977 26.7598V59.8984H60.3105C61.0712 59.8984 61.6875 60.5149 61.6875 61.2754C61.6875 62.0358 61.0712 62.6523 60.3105 62.6523Z" fill="#E8E8E8"/>
<path d="M70.2246 39.2441C71.7455 39.2441 72.9785 38.0112 72.9785 36.4902C72.9785 34.9693 71.7455 33.7363 70.2246 33.7363C68.7037 33.7363 67.4707 34.9693 67.4707 36.4902C67.4707 38.0112 68.7037 39.2441 70.2246 39.2441Z" fill="#FF7E92"/>
<path d="M70.2246 50.2598C71.7455 50.2598 72.9785 49.0268 72.9785 47.5059C72.9785 45.9849 71.7455 44.752 70.2246 44.752C68.7037 44.752 67.4707 45.9849 67.4707 47.5059C67.4707 49.0268 68.7037 50.2598 70.2246 50.2598Z" fill="#B8EB7C"/>
<path d="M70.2246 61.2754C71.7455 61.2754 72.9785 60.0424 72.9785 58.5215C72.9785 57.0005 71.7455 55.7676 70.2246 55.7676C68.7037 55.7676 67.4707 57.0005 67.4707 58.5215C67.4707 60.0424 68.7037 61.2754 70.2246 61.2754Z" fill="#B2E5FB"/>
<path d="M81.6074 35.1133H78.4863C77.7257 35.1133 77.1094 34.4968 77.1094 33.7363C77.1094 32.9759 77.7257 32.3594 78.4863 32.3594H81.6074C82.3681 32.3594 82.9844 32.9759 82.9844 33.7363C82.9844 34.4968 82.3681 35.1133 81.6074 35.1133Z" fill="#E8E8E8"/>
<path d="M81.6074 46.1289H78.4863C77.7257 46.1289 77.1094 45.5124 77.1094 44.752C77.1094 43.9915 77.7257 43.375 78.4863 43.375H81.6074C82.3681 43.375 82.9844 43.9915 82.9844 44.752C82.9844 45.5124 82.3681 46.1289 81.6074 46.1289Z" fill="#E8E8E8"/>
<path d="M81.6074 57.1445H78.4863C77.7257 57.1445 77.1094 56.528 77.1094 55.7676C77.1094 55.0071 77.7257 54.3906 78.4863 54.3906H81.6074C82.3681 54.3906 82.9844 55.0071 82.9844 55.7676C82.9844 56.528 82.3681 57.1445 81.6074 57.1445Z" fill="#E8E8E8"/>
<path d="M85.2793 40.6211H78.4863C77.7257 40.6211 77.1094 40.0046 77.1094 39.2441C77.1094 38.4837 77.7257 37.8672 78.4863 37.8672H85.2793C86.0399 37.8672 86.6562 38.4837 86.6562 39.2441C86.6562 40.0046 86.0399 40.6211 85.2793 40.6211Z" fill="#E8E8E8"/>
<path d="M85.2793 51.6367H78.4863C77.7257 51.6367 77.1094 51.0202 77.1094 50.2598C77.1094 49.4993 77.7257 48.8828 78.4863 48.8828H85.2793C86.0399 48.8828 86.6562 49.4993 86.6562 50.2598C86.6562 51.0202 86.0399 51.6367 85.2793 51.6367Z" fill="#E8E8E8"/>
<path d="M85.2793 62.6523H78.4863C77.7257 62.6523 77.1094 62.0358 77.1094 61.2754C77.1094 60.5149 77.7257 59.8984 78.4863 59.8984H85.2793C86.0399 59.8984 86.6562 60.5149 86.6562 61.2754C86.6562 62.0358 86.0399 62.6523 85.2793 62.6523Z" fill="#E8E8E8"/>
<path d="M85.1875 20.7012H67.4707C66.7101 20.7012 66.0938 20.0847 66.0938 19.3242C66.0938 18.5638 66.7101 17.9473 67.4707 17.9473H85.1875C85.9481 17.9473 86.5645 18.5638 86.5645 19.3242C86.5645 20.0847 85.9481 20.7012 85.1875 20.7012Z" fill="#E8E8E8"/>
<path d="M72.9785 26.209H67.4707C66.7101 26.209 66.0938 25.5925 66.0938 24.832C66.0938 24.0716 66.7101 23.4551 67.4707 23.4551H72.9785C73.7391 23.4551 74.3555 24.0716 74.3555 24.832C74.3555 25.5925 73.7391 26.209 72.9785 26.209Z" fill="#E8E8E8"/>
<path d="M19.9199 20.7012H8.7666C8.00616 20.7012 7.38965 20.0847 7.38965 19.3242C7.38965 18.5638 8.00616 17.9473 8.7666 17.9473H19.9199C20.6804 17.9473 21.2969 18.5638 21.2969 19.3242C21.2969 20.0847 20.6804 20.7012 19.9199 20.7012Z" fill="#E8E8E8"/>
</svg>
