<svg width="148" height="148" viewBox="0 0 148 148" fill="none" xmlns="http://www.w3.org/2000/svg">
<g clip-path="url(#clip0_1161_4976)">
<path d="M88.6436 98.9199V129.98C88.6436 131.624 89.9767 132.958 91.6215 132.958H145.022C146.666 132.958 148 131.624 148 129.98V98.9199H88.6436Z" fill="#F2FBFF"/>
<path d="M135.441 98.9199V129.98C135.441 131.624 134.108 132.958 132.463 132.958H145.022C146.667 132.958 148 131.624 148 129.98V98.9199H135.441Z" fill="#DFF6FD"/>
<path d="M124.028 118.918H100.104C98.9072 118.918 97.9365 119.889 97.9365 121.086C97.9365 122.283 98.9072 123.254 100.104 123.254H124.028C125.225 123.254 126.196 122.283 126.196 121.086C126.196 119.889 125.225 118.918 124.028 118.918Z" fill="#60B7FF"/>
<path d="M136.539 118.918H131.473C130.275 118.918 129.305 119.889 129.305 121.086C129.305 122.283 130.275 123.254 131.473 123.254H136.539C137.736 123.254 138.707 122.283 138.707 121.086C138.707 119.889 137.736 118.918 136.539 118.918Z" fill="#60B7FF"/>
<path d="M100.104 111.93H136.539C137.736 111.93 138.707 110.959 138.707 109.762C138.707 108.564 137.736 107.594 136.539 107.594H100.104C98.9072 107.594 97.9365 108.564 97.9365 109.762C97.9365 110.959 98.9072 111.93 100.104 111.93Z" fill="#60B7FF"/>
<path d="M148 99.2171H88.6436V90.4799C88.6436 88.8354 89.9767 87.502 91.6215 87.502H145.022C146.666 87.502 148 88.8351 148 90.4799L148 99.2171Z" fill="#FD4755"/>
<path d="M145.022 87.502H132.463C134.107 87.502 135.441 88.8351 135.441 90.4799V99.2171H148V90.4799C148 88.8354 146.667 87.502 145.022 87.502Z" fill="#FB2B3A"/>
<path d="M61.3953 33.2658C61.4673 33.4959 61.5037 33.7355 61.5037 33.9763V78.7506H71.2662V33.9763C71.2662 33.7355 71.3029 33.4959 71.3746 33.2658L73.1101 27.7117C73.1821 27.4816 73.2185 27.242 73.2185 27.0012V13.8581C73.2185 13.0357 72.5519 12.3691 71.7296 12.3691H61.0397C60.2174 12.3691 59.5508 13.0357 59.5508 13.8581V27.0012C59.5508 27.2423 59.5875 27.4816 59.6592 27.7117L61.3953 33.2658Z" fill="#C5D3DD"/>
<path d="M71.2663 78.7506V33.9763C71.2663 33.7355 71.3031 33.4959 71.3747 33.2658L73.1103 27.7117C73.1823 27.4816 73.2187 27.242 73.2187 27.0012V13.8581C73.2187 13.0357 72.5521 12.3691 71.7297 12.3691H67.3891C68.2115 12.3691 68.8781 13.0357 68.8781 13.8581V27.0012C68.8781 27.2423 68.8414 27.4816 68.7697 27.7117L67.0342 33.2658C66.9622 33.4959 66.9258 33.7355 66.9258 33.9763V78.7506H71.2663Z" fill="#B6C4CF"/>
<path d="M148 48.1967V40.5834C148 39.2676 146.933 38.2012 145.618 38.2012H140.861C139.847 38.2012 138.944 37.5604 138.614 36.6021C138.294 35.6742 137.919 34.7724 137.492 33.9C137.045 32.9874 137.229 31.893 137.947 31.1747L141.313 27.8088C142.244 26.8786 142.243 25.37 141.313 24.4398L135.93 19.0563C135 18.1261 133.491 18.1261 132.561 19.0563L129.195 22.4222C128.477 23.1405 127.382 23.3243 126.47 22.8777C125.597 22.4511 124.695 22.0756 123.767 21.7559C122.809 21.4258 122.168 20.5219 122.168 19.5087V14.7513C122.168 13.4355 121.102 12.3691 119.786 12.3691H112.173C110.857 12.3691 109.791 13.4358 109.791 14.7513V19.5087C109.791 20.5222 109.15 21.426 108.192 21.7559C107.264 22.0756 106.362 22.4508 105.489 22.8774C104.577 23.3237 103.482 23.1402 102.764 22.4219L99.3983 19.056C98.4678 18.1258 96.9595 18.1258 96.0293 19.056L90.6458 24.4395C89.7153 25.3697 89.7153 26.8783 90.6458 27.8085L94.0116 31.1744C94.7299 31.8927 94.9135 32.9871 94.4672 33.8997C94.0405 34.7721 93.665 35.6739 93.3453 36.6018C93.0152 37.5601 92.1113 38.2009 91.0981 38.2009H86.3402C85.0244 38.2009 83.958 39.2676 83.958 40.5831V48.1964C83.958 49.5122 85.0246 50.5786 86.3402 50.5786H91.0976C92.111 50.5786 93.0149 51.2194 93.3447 52.1777C93.6644 53.1056 94.0396 54.0074 94.4666 54.8798C94.9129 55.7924 94.7293 56.8868 94.011 57.6051L90.6452 60.971C89.7147 61.9014 89.7147 63.4098 90.6452 64.34L96.0287 69.7235C96.9592 70.6537 98.4675 70.6537 99.3977 69.7235L102.764 66.3576C103.482 65.6393 104.576 65.4558 105.489 65.9021C106.361 66.3287 107.263 66.7042 108.191 67.0239C109.149 67.354 109.79 68.2579 109.79 69.2711V74.0282C109.79 75.344 110.857 76.4104 112.172 76.4104H119.786C121.101 76.4104 122.168 75.3437 122.168 74.0282V69.2711C122.168 68.2576 122.809 67.3537 123.767 67.0239C124.695 66.7042 125.597 66.329 126.469 65.9021C127.382 65.4558 128.476 65.6393 129.194 66.3576L132.56 69.7235C133.491 70.6537 134.999 70.6537 135.929 69.7235L141.313 64.34C142.243 63.4098 142.243 61.9012 141.313 60.971L137.947 57.6051C137.228 56.8868 137.045 55.7921 137.491 54.8795C137.918 54.0071 138.293 53.1053 138.613 52.1774C138.943 51.2191 139.847 50.5783 140.86 50.5783H145.617C146.933 50.5789 148 49.5125 148 48.1967Z" fill="#C5D3DD"/>
<path d="M145.618 38.2009H140.861C139.848 38.2009 138.944 37.5601 138.614 36.6018C138.294 35.6739 137.919 34.7718 137.492 33.8997C137.046 32.9871 137.229 31.8927 137.948 31.1744L141.314 27.8083C142.244 26.8778 142.244 25.3694 141.314 24.4392L135.93 19.0557C135 18.1252 133.491 18.1252 132.561 19.0557L129.195 22.4216C128.477 23.1399 127.382 23.3237 126.47 22.8771C125.598 22.4505 124.696 22.075 123.768 21.7556C122.81 21.4255 122.169 20.5216 122.169 19.5081V14.7513C122.169 13.4355 121.102 12.3691 119.787 12.3691H112.173C110.857 12.3691 109.791 13.4358 109.791 14.7513V16.3435C116.949 20.3036 122.462 26.9333 124.953 34.8466C127.302 37.0568 128.839 40.122 129.055 43.5431C129.293 47.3093 127.904 50.9948 125.245 53.6545C125.155 53.7441 125.062 53.8291 124.97 53.9161C122.49 61.8832 116.981 68.5152 109.791 72.4655V74.0291C109.791 75.3449 110.858 76.4112 112.173 76.4112H119.787C121.102 76.4112 122.169 75.3446 122.169 74.0291V69.2717C122.169 68.2582 122.81 67.3543 123.768 67.0245C124.696 66.7048 125.598 66.3296 126.47 65.9026C127.382 65.4563 128.477 65.6399 129.195 66.3582L132.561 69.7241C133.492 70.6543 135 70.6543 135.93 69.7241L141.314 64.3406C142.244 63.4101 142.244 61.9017 141.314 60.9715L137.948 57.6057C137.229 56.8874 137.046 55.7927 137.492 54.8801C137.919 54.0077 138.294 53.1059 138.614 52.178C138.944 51.2197 139.848 50.5789 140.861 50.5789H145.618C146.934 50.5789 148 49.5122 148 48.1967V40.5834C148 39.2676 146.934 38.2009 145.618 38.2009Z" fill="#B6C4CF"/>
<path d="M123.684 52.0851C127.951 47.8059 127.948 40.8844 123.677 36.6255C119.406 32.3666 112.484 32.3829 108.217 36.6621C103.95 40.9412 103.954 47.8627 108.225 52.1217C112.496 56.3806 119.417 56.3642 123.684 52.0851Z" fill="#F5F8F9"/>
<path d="M115.963 57.4923C115.686 57.4923 115.409 57.4836 115.131 57.466C108.575 57.0517 103.317 51.7945 102.903 45.2377C102.665 41.4715 104.054 37.786 106.714 35.1263C109.374 32.4667 113.058 31.076 116.825 31.3156C123.382 31.7299 128.639 36.9867 129.054 43.5435C129.292 47.3097 127.903 50.9953 125.243 53.655C122.779 56.1186 119.436 57.492 115.963 57.4923ZM115.994 35.6253C113.667 35.6253 111.428 36.5439 109.78 38.1921C108 39.9719 107.071 42.4402 107.23 44.9643C107.507 49.3476 111.022 52.8618 115.405 53.1387C117.927 53.2965 120.397 52.3689 122.177 50.5892C123.957 48.8094 124.886 46.3411 124.726 43.817C124.449 39.4337 120.935 35.9198 116.552 35.6426C116.366 35.631 116.179 35.6253 115.994 35.6253Z" fill="#D9E7EC"/>
<path d="M23.4299 98.3393C26.6079 98.3393 29.6008 99.1452 32.2162 100.563V55.1413C29.4652 56.27 26.4937 56.8629 23.4305 56.8629C23.4302 56.8629 23.4302 56.8629 23.4296 56.8629C23.0154 56.8629 22.5948 56.8519 22.1797 56.83C19.5281 56.6906 16.9913 56.0908 14.6436 55.1152V100.563C17.259 99.1452 20.2519 98.3393 23.4299 98.3393Z" fill="#8AC9FE"/>
<path d="M32.216 100.564V55.1426C29.8075 56.1309 27.2303 56.7081 24.5703 56.8368V98.3791C27.3233 98.5476 29.9162 99.3174 32.216 100.564Z" fill="#60B7FF"/>
<path d="M31.2402 13.8594V34.4727C31.2402 36.1172 29.9071 37.4506 28.2623 37.4506H18.5981C16.9536 37.4506 15.6202 36.1175 15.6202 34.4727V13.8597C15.6202 12.7656 14.4813 12.0484 13.4909 12.5129C5.3044 16.3537 -0.297633 24.7877 0.0122422 34.4981C0.398141 46.585 10.0878 56.4929 22.1643 57.128C35.6791 57.8388 46.8603 47.0909 46.8603 33.7313C46.8603 24.3474 41.3421 16.256 33.375 12.5158C32.3823 12.0495 31.2402 12.7627 31.2402 13.8594Z" fill="#26A6FE"/>
<path d="M33.3747 12.5161C32.382 12.0501 31.2399 12.7629 31.2399 13.8597V15.7987C36.3506 20.0953 39.6014 26.5319 39.6014 33.7315C39.6014 45.4351 31.0202 55.134 19.8066 56.8808C20.581 57.0014 21.367 57.0863 22.1639 57.1283C35.6788 57.8391 46.86 47.0911 46.86 33.7315C46.86 24.3477 41.3418 16.2563 33.3747 12.5161Z" fill="#0593FC"/>
<path d="M56.7021 82.5078H76.0693V116.12H56.7021V82.5078Z" fill="#FFE177"/>
<path d="M69.5053 135.63H63.2662C59.641 135.63 56.7021 132.691 56.7021 129.066V115.832H76.0693V129.066C76.0693 132.691 73.1304 135.63 69.5053 135.63Z" fill="#FFD15B"/>
<path d="M78.1009 82.7969H54.6709C53.4736 82.7969 52.5029 81.8262 52.5029 80.6289C52.5029 79.4316 53.4736 78.4609 54.6709 78.4609H78.1009C79.2982 78.4609 80.2688 79.4316 80.2688 80.6289C80.2688 81.8262 79.2982 82.7969 78.1009 82.7969Z" fill="#FFD15B"/>
<path d="M69.0859 82.5078H76.0688V116.12H69.0859V82.5078Z" fill="#FFD15B"/>
<path d="M69.0856 115.832V129.066C69.0856 132.566 66.3455 135.426 62.8936 135.618C63.0167 135.625 63.1404 135.63 63.2653 135.63H69.5044C73.1295 135.63 76.0685 132.691 76.0685 129.066V115.832H69.0856Z" fill="#FFC344"/>
<path d="M23.4297 135.629C33.8066 135.629 42.2188 127.217 42.2188 116.84C42.2188 106.463 33.8066 98.0508 23.4297 98.0508C13.0528 98.0508 4.64062 106.463 4.64062 116.84C4.64062 127.217 13.0528 135.629 23.4297 135.629Z" fill="#26A6FE"/>
<path d="M23.4294 125.029C18.9139 125.029 15.2402 121.355 15.2402 116.84C15.2402 112.324 18.9139 108.65 23.4294 108.65C27.9448 108.65 31.6185 112.324 31.6185 116.84C31.6185 121.355 27.9448 125.029 23.4294 125.029Z" fill="white"/>
<path d="M23.4294 127.197C17.7184 127.197 13.0723 122.551 13.0723 116.84C13.0723 111.129 17.7184 106.482 23.4294 106.482C29.1404 106.482 33.7865 111.129 33.7865 116.84C33.7865 122.551 29.1404 127.197 23.4294 127.197ZM23.4294 110.819C20.1092 110.819 17.4082 113.52 17.4082 116.84C17.4082 120.16 20.1092 122.861 23.4294 122.861C26.7495 122.861 29.4505 120.16 29.4505 116.84C29.4505 113.52 26.7495 110.819 23.4294 110.819Z" fill="#8AC9FE"/>
</g>
<defs>
<clipPath id="clip0_1161_4976">
<rect width="148" height="148" fill="white"/>
</clipPath>
</defs>
</svg>
