<svg width="148" height="148" viewBox="0 0 148 148" fill="none" xmlns="http://www.w3.org/2000/svg">
<path d="M85.5842 116.459C85.5842 116.125 85.8553 115.854 86.1886 115.854H92.9986V91.2496C92.9986 90.9163 93.2698 90.6455 93.6031 90.6455H129.441V44.464C129.441 43.4439 128.919 42.4949 128.057 41.9489L66.3147 2.81616C65.3414 2.1993 64.0996 2.1993 63.1263 2.81616L1.38374 41.9486C0.522047 42.4949 0 43.4439 0 44.464V142.669C0 144.314 1.33316 145.647 2.97792 145.647H85.5842V116.459Z" fill="#FED402"/>
<path d="M12.656 49.0508C12.656 48.0307 13.1781 47.0817 14.0398 46.5357L74.6669 8.10976L66.3147 2.81616C65.3414 2.1993 64.0996 2.1993 63.1263 2.81616L1.38374 41.9486C0.522047 42.4949 0 43.4439 0 44.464V142.669C0 144.314 1.33316 145.647 2.97792 145.647H12.656V49.0508Z" fill="#FAC600"/>
<path d="M0 112.033H23.3372V116.369H0V112.033Z" fill="#E8B800"/>
<path d="M0 96.5488H23.3372V100.885H0V96.5488Z" fill="#E8B800"/>
<path d="M0 81.0645H23.3372V85.4004H0V81.0645Z" fill="#E8B800"/>
<path d="M106.104 81.0645H129.441V85.4004H106.104V81.0645Z" fill="#E8B800"/>
<path d="M0 127.52H23.3372V131.855H0V127.52Z" fill="#E8B800"/>
<path d="M85.5839 116.459C85.5839 116.125 85.8551 115.854 86.1883 115.854H92.9984V91.2496C92.9984 90.9163 93.2695 90.6455 93.6028 90.6455H106.104V72.6117C106.104 71.7012 105.365 70.9629 104.455 70.9629H24.9857C24.0752 70.9629 23.3369 71.7012 23.3369 72.6117V145.647H85.5839V116.459Z" fill="#CBC4CC"/>
<path d="M37.5326 70.9629H24.9867C24.0762 70.9629 23.3379 71.7012 23.3379 72.6117V145.647H35.8841V72.612C35.8838 71.7012 36.622 70.9629 37.5326 70.9629Z" fill="#B5ADB6"/>
<path d="M23.3369 145.647H44.4015V112.944C44.4015 112.033 43.6632 111.295 42.7527 111.295H23.3369V145.647Z" fill="#7A6D79"/>
<path d="M23.3369 111.295H35.8831V145.647H23.3369V111.295Z" fill="#685E68"/>
<path d="M23.3369 80.0155H106.104V72.6117C106.104 71.7012 105.365 70.9629 104.455 70.9629H24.9857C24.0752 70.9629 23.3369 71.7012 23.3369 72.6117V80.0155Z" fill="#0593FC"/>
<path d="M23.3369 72.6117V80.0155H35.8831V72.6117C35.8831 71.7009 36.6214 70.9629 37.5319 70.9629H24.986C24.0752 70.9626 23.3369 71.7009 23.3369 72.6117Z" fill="#0182FC"/>
<path d="M103.936 90.6455H108.272V72.6117C108.272 70.507 106.56 68.7949 104.455 68.7949H24.986C22.8814 68.7949 21.1689 70.507 21.1689 72.6117V145.647H25.5049V73.1309H103.936V90.6455H103.936Z" fill="#FAC600"/>
<path d="M32.5194 59.3235H23.2084C22.2978 59.3235 21.5596 58.5852 21.5596 57.6747V48.3637C21.5596 47.4531 22.2978 46.7148 23.2084 46.7148H32.5194C33.4299 46.7148 34.1682 47.4531 34.1682 48.3637V57.6747C34.1685 58.5852 33.4302 59.3235 32.5194 59.3235Z" fill="white"/>
<path d="M26.5505 57.6749V48.3637C26.5505 47.4531 27.2888 46.7148 28.1993 46.7148H23.2084C22.2978 46.7148 21.5596 47.4531 21.5596 48.3637V57.6749C21.5596 58.5855 22.2978 59.3238 23.2084 59.3238H28.1993C27.2888 59.324 26.5505 58.5858 26.5505 57.6749Z" fill="#F3F0F3"/>
<path d="M57.091 59.3235H47.7797C46.8691 59.3235 46.1309 58.5852 46.1309 57.6747V48.3637C46.1309 47.4531 46.8691 46.7148 47.7797 46.7148H57.0907C58.0012 46.7148 58.7395 47.4531 58.7395 48.3637V57.6747C58.7398 58.5852 58.0015 59.3235 57.091 59.3235Z" fill="white"/>
<path d="M51.1218 57.6749V48.3637C51.1218 47.4531 51.8601 46.7148 52.7706 46.7148H47.7797C46.8691 46.7148 46.1309 47.4531 46.1309 48.3637V57.6749C46.1309 58.5855 46.8691 59.3238 47.7797 59.3238H52.7706C51.8601 59.324 51.1218 58.5858 51.1218 57.6749Z" fill="#F3F0F3"/>
<path d="M81.662 59.3235H72.351C71.4404 59.3235 70.7021 58.5852 70.7021 57.6747V48.3637C70.7021 47.4531 71.4404 46.7148 72.351 46.7148H81.662C82.5725 46.7148 83.3108 47.4531 83.3108 48.3637V57.6747C83.3111 58.5852 82.5728 59.3235 81.662 59.3235Z" fill="white"/>
<path d="M75.6931 57.6749V48.3637C75.6931 47.4531 76.4314 46.7148 77.3419 46.7148H72.351C71.4404 46.7148 70.7021 47.4531 70.7021 48.3637V57.6749C70.7021 58.5855 71.4404 59.3238 72.351 59.3238H77.3419C76.4314 59.324 75.6931 58.5858 75.6931 57.6749Z" fill="#F3F0F3"/>
<path d="M106.233 59.3235H96.9223C96.0117 59.3235 95.2734 58.5852 95.2734 57.6747V48.3637C95.2734 47.4531 96.0117 46.7148 96.9223 46.7148H106.233C107.144 46.7148 107.882 47.4531 107.882 48.3637V57.6747C107.882 58.5852 107.144 59.3235 106.233 59.3235Z" fill="white"/>
<path d="M100.264 57.6749V48.3637C100.264 47.4531 101.003 46.7148 101.913 46.7148H96.9223C96.0117 46.7148 95.2734 47.4531 95.2734 48.3637V57.6749C95.2734 58.5855 96.0117 59.3238 96.9223 59.3238H101.913C101.003 59.324 100.264 58.5858 100.264 57.6749Z" fill="#F3F0F3"/>
<path d="M32.519 44.5469H23.2077C21.103 44.5469 19.3906 46.259 19.3906 48.3637V57.6747C19.3906 59.7793 21.1027 61.4917 23.2077 61.4917H32.5187C34.6234 61.4917 36.3355 59.7796 36.3355 57.6747V48.3637C36.3358 46.2593 34.6234 44.5469 32.519 44.5469ZM31.9998 57.1561H23.7269V48.8831H31.9998V57.1561Z" fill="#FAC600"/>
<path d="M57.09 44.5469H47.779C45.6743 44.5469 43.9619 46.259 43.9619 48.3637V57.6747C43.9619 59.7793 45.674 61.4917 47.779 61.4917H57.09C59.1946 61.4917 60.907 59.7796 60.907 57.6747V48.3637C60.907 46.2593 59.1946 44.5469 57.09 44.5469ZM56.5711 57.1561H48.2979V48.8831H56.5711V57.1561Z" fill="#FAC600"/>
<path d="M81.6613 44.5469H72.35C70.2453 44.5469 68.5332 46.259 68.5332 48.3637V57.6747C68.5332 59.7793 70.2453 61.4917 72.35 61.4917H81.6613C83.7659 61.4917 85.478 59.7796 85.478 57.6747V48.3637C85.478 46.2593 83.7659 44.5469 81.6613 44.5469ZM81.1421 57.1561H72.8691V48.8831H81.1421V57.1561Z" fill="#FAC600"/>
<path d="M106.233 44.5469H96.9216C94.8169 44.5469 93.1045 46.259 93.1045 48.3637V57.6747C93.1045 59.7793 94.8169 61.4917 96.9216 61.4917H106.233C108.337 61.4917 110.05 59.7796 110.05 57.6747V48.3637C110.05 46.2593 108.337 44.5469 106.233 44.5469ZM105.714 57.1561H97.4404V48.8831H105.714V57.1561Z" fill="#FAC600"/>
<path d="M139.904 90.3555H120.814L120.525 90.6445V115.854H140.797V91.249C140.797 90.7552 140.397 90.3555 139.904 90.3555Z" fill="#F6A96C"/>
<path d="M147.106 115.564H126.053L125.764 117.362V143.718L126.053 145.646H147.106C147.599 145.646 148 145.246 148 144.753V116.458C148 115.965 147.599 115.564 147.106 115.564Z" fill="#FFBD86"/>
<path d="M120.815 115.854V90.3555H93.6025C93.109 90.3555 92.709 90.7555 92.709 91.2487V115.853H120.815V115.854Z" fill="#FFBD86"/>
<path d="M100.205 115.854V91.249C100.205 90.7555 100.605 90.3555 101.098 90.3555H93.6025C93.109 90.3555 92.709 90.7555 92.709 91.249V115.854H100.205Z" fill="#F6A96C"/>
<path d="M110.12 100.735H103.404C103.075 100.735 102.809 100.469 102.809 100.14V90.3555H110.716V100.14C110.716 100.469 110.449 100.735 110.12 100.735Z" fill="#FE646F"/>
<path d="M105.682 100.14V90.3555H102.809V100.14C102.809 100.469 103.075 100.735 103.404 100.735H106.277C105.948 100.735 105.682 100.469 105.682 100.14Z" fill="#FD4755"/>
<path d="M126.053 145.646H85.2949V116.458C85.2949 115.965 85.695 115.564 86.1884 115.564H126.053V145.646H126.053Z" fill="#FED2A4"/>
<path d="M93.6537 115.564H86.1884C85.695 115.564 85.2949 115.965 85.2949 116.458V145.646H92.7602V116.458C92.7602 115.965 93.1603 115.564 93.6537 115.564Z" fill="#FFBD86"/>
<path d="M109.484 127.216H101.863C101.534 127.216 101.268 126.949 101.268 126.62V115.564H110.08V126.62C110.08 126.949 109.813 127.216 109.484 127.216Z" fill="#FE646F"/>
<path d="M104.789 126.62V115.564H101.268V126.62C101.268 126.949 101.534 127.216 101.863 127.216H105.384C105.055 127.216 104.789 126.949 104.789 126.62Z" fill="#FD4755"/>
</svg>
