<svg width="148" height="148" viewBox="0 0 148 148" fill="none" xmlns="http://www.w3.org/2000/svg">
<path d="M124.875 25.4375C130.622 25.4375 135.281 20.7785 135.281 15.0312C135.281 9.28404 130.622 4.625 124.875 4.625C119.128 4.625 114.469 9.28404 114.469 15.0312C114.469 20.7785 119.128 25.4375 124.875 25.4375Z" fill="#DCA968"/>
<path d="M143.375 57.8125V37C143.375 33.9334 142.157 30.9925 139.988 28.8241C137.82 26.6557 134.879 25.4375 131.812 25.4375H117.938C114.871 25.4375 111.93 26.6557 109.762 28.8241C107.593 30.9925 106.375 33.9334 106.375 37V57.8125H143.375Z" fill="#3B71C5"/>
<path d="M74 143.375C85.4944 143.375 94.8125 134.057 94.8125 122.562C94.8125 111.068 85.4944 101.75 74 101.75C62.5056 101.75 53.1875 111.068 53.1875 122.562C53.1875 134.057 62.5056 143.375 74 143.375Z" fill="#5FA254"/>
<path d="M69.5136 131.812C69.2076 131.811 68.905 131.749 68.6231 131.63C68.3413 131.511 68.0859 131.337 67.8717 131.119L62.1367 125.407L65.4205 122.123L69.5136 126.216L82.5792 113.312L85.863 116.596L71.1323 131.304C70.6767 131.672 70.0981 131.854 69.5136 131.812Z" fill="#F1F1F1"/>
<path d="M124.875 25.4375L120.25 39.3125L124.875 46.25L129.5 39.3125L124.875 25.4375Z" fill="#F1F1F1"/>
<path d="M4.625 6.9375H41.625V57.8125H4.625V6.9375Z" fill="#D56566"/>
<path d="M20.8125 18.5H34.6875V23.125H20.8125V18.5Z" fill="#F1F1F1"/>
<path d="M11.5625 30.0625H34.6875V34.6875H11.5625V30.0625Z" fill="#F1F1F1"/>
<path d="M11.5625 41.625H34.6875V46.25H11.5625V41.625Z" fill="#F1F1F1"/>
<path d="M11.5625 18.5H16.1875V23.125H11.5625V18.5Z" fill="#F1F1F1"/>
<path d="M129.5 69.375V120.25H119.094V112.249L104.363 122.562L119.094 132.876V124.875H131.813C132.426 124.875 133.014 124.631 133.448 124.198C133.882 123.764 134.125 123.176 134.125 122.562V69.375H129.5Z" fill="#909EB0"/>
<path d="M18.5003 84.4064H26.5015L16.1878 69.6758L5.87402 84.4064H13.8753V122.563C13.8753 123.176 14.1189 123.764 14.5526 124.198C14.9863 124.632 15.5745 124.875 16.1878 124.875H43.9378V120.25H18.5003V84.4064Z" fill="#909EB0"/>
<path d="M82.0938 30.0618H50.875V34.6868H82.0938V42.688L96.8244 32.3743L82.0938 22.0605V30.0618Z" fill="#909EB0"/>
</svg>
