<svg width="94" height="94" viewBox="0 0 94 94" fill="none" xmlns="http://www.w3.org/2000/svg">
<path d="M91.6496 13.8061L86.3925 45.179C86.2792 45.6208 85.9506 46.0739 85.4974 46.0739C85.0555 46.176 84.6137 45.9608 84.387 45.5074L79.028 35.571L50.0005 66.7285C49.6606 67.0571 49.1055 67.1705 48.6522 66.9439L29.2326 57.7893L4.21601 81.3557C4.00074 81.4689 3.77412 81.5709 3.43424 81.5709C3.21897 81.5709 2.87901 81.4689 2.76574 81.3557C2.32385 81.0158 2.21058 80.3472 2.53912 79.9054L26.4341 42.0519C26.774 41.5986 27.3292 41.3834 27.8843 41.5986L47.3153 50.7534L68.4231 24.9663L58.5887 19.7203C58.1468 19.4938 57.9202 19.0521 58.0335 18.5987C58.1468 18.1569 58.4867 17.7037 58.9286 17.7037L90.3013 12.4579C90.6412 12.3445 90.9698 12.5712 91.3097 12.7979C91.5363 13.0244 91.6496 13.4663 91.6496 13.8061Z" fill="#25AA0D"/>
</svg>
