<svg width="100" height="100" viewBox="0 0 100 100" fill="none" xmlns="http://www.w3.org/2000/svg">
<path fill-rule="evenodd" clip-rule="evenodd" d="M98.3398 92.1719C99.1488 92.1719 99.8047 92.8277 99.8047 93.6367C99.8047 94.4457 99.1488 95.1016 98.3398 95.1016H1.66016C0.851172 95.1016 0.195312 94.4457 0.195312 93.6367C0.195312 92.8277 0.851172 92.1719 1.66016 92.1719H48.5352V45.2969H51.4648V92.1719H98.3398Z" fill="#F1CB86"/>
<path fill-rule="evenodd" clip-rule="evenodd" d="M83.1158 88.9336H93.4293C93.859 88.9336 94.2105 89.2852 94.2105 89.7148V97.559C94.2105 97.9887 93.859 98.3402 93.4293 98.3402H83.1158C82.6861 98.3402 82.3346 97.9887 82.3346 97.559V89.7148C82.3346 89.2852 82.6859 88.9336 83.1158 88.9336ZM6.57129 88.9336H16.8848C17.3145 88.9336 17.666 89.2852 17.666 89.7148V97.559C17.666 97.9887 17.3145 98.3402 16.8848 98.3402H6.57129C6.1416 98.3402 5.79004 97.9887 5.79004 97.559V89.7148C5.79004 89.2852 6.14141 88.9336 6.57129 88.9336ZM39.909 88.9336H60.0914C60.5211 88.9336 60.8727 89.2852 60.8727 89.7148V97.559C60.8727 97.9887 60.5211 98.3402 60.0914 98.3402H39.909C39.4793 98.3402 39.1277 97.9887 39.1277 97.559V89.7148C39.1277 89.2852 39.4793 88.9336 39.909 88.9336Z" fill="#43A2FF"/>
<path fill-rule="evenodd" clip-rule="evenodd" d="M41.0664 46.8445C41.0664 50.0357 32.2449 52.6228 21.3633 52.6228C10.4816 52.6228 1.66016 50.0357 1.66016 46.8445V7.43848C1.66016 4.24707 10.4816 1.66016 21.3633 1.66016C32.2449 1.66016 41.0664 4.24707 41.0664 7.43848V46.8445Z" fill="#7A7785"/>
<path fill-rule="evenodd" clip-rule="evenodd" d="M1.66016 33.7096C1.66016 41.2723 41.0664 41.2723 41.0664 33.7096V20.5742C41.0664 28.192 1.66016 28.1109 1.66016 20.5742V25.5551V33.7096Z" fill="#6F6571"/>
<path fill-rule="evenodd" clip-rule="evenodd" d="M35.4264 16.5836C36.1658 16.3492 36.9553 16.7588 37.1894 17.4982C37.4238 18.2377 37.0143 19.0271 36.2748 19.2613C35.4316 19.5295 34.5133 19.774 33.5314 19.9914C32.5277 20.2137 31.4912 20.4049 30.4342 20.5613C29.6643 20.6738 28.9488 20.141 28.8363 19.3713C28.7238 18.6014 29.2566 17.8859 30.0264 17.7734C31.0844 17.6168 32.0537 17.4406 32.9252 17.2475C33.8314 17.0471 34.6685 16.8246 35.4264 16.5836ZM35.4264 42.8545C36.1658 42.6201 36.9553 43.0297 37.1894 43.7691C37.4238 44.5086 37.0143 45.298 36.2748 45.5322C35.4316 45.8004 34.5133 46.0449 33.5314 46.2623C32.5277 46.4848 31.4912 46.6758 30.4342 46.8324C29.6643 46.9449 28.9488 46.4121 28.8363 45.6424C28.7238 44.8725 29.2566 44.157 30.0264 44.0445C31.0844 43.8879 32.0537 43.7117 32.9252 43.5185C33.8314 43.318 34.6685 43.0955 35.4264 42.8545ZM12.7008 44.0445C13.4707 44.157 14.0035 44.8725 13.8908 45.6424C13.7783 46.4123 13.0629 46.9451 12.293 46.8324C11.2359 46.676 10.1994 46.4848 9.1957 46.2623C8.21386 46.0449 7.2955 45.8002 6.45234 45.5322C5.71288 45.2978 5.30331 44.5086 5.53769 43.7691C5.77206 43.0297 6.56152 42.6201 7.30078 42.8545C8.05859 43.0955 8.89589 43.318 9.80175 43.5185C10.6732 43.7117 11.6428 43.8879 12.7008 44.0445ZM35.4264 29.7191C36.1658 29.4848 36.9553 29.8943 37.1894 30.6338C37.4238 31.3732 37.0143 32.1627 36.2748 32.3969C35.4316 32.665 34.5133 32.9096 33.5314 33.1269C32.5277 33.3492 31.4912 33.5404 30.4342 33.6969C29.6643 33.8094 28.9488 33.2768 28.8363 32.5068C28.7238 31.7369 29.2566 31.0215 30.0264 30.909C31.0844 30.7523 32.0537 30.5762 32.9252 30.383C33.8314 30.1824 34.6685 29.96 35.4264 29.7191ZM12.7008 30.9092C13.4707 31.0217 14.0035 31.7371 13.8908 32.507C13.7783 33.2769 13.0629 33.8098 12.293 33.6971C11.2359 33.5406 10.1994 33.3494 9.1957 33.1271C8.21386 32.9098 7.2955 32.665 6.45234 32.3971C5.71288 32.1627 5.30331 31.3732 5.53769 30.634C5.77206 29.8945 6.56152 29.4851 7.30078 29.7193C8.05859 29.9603 8.89589 30.1826 9.80175 30.3834C10.6732 30.5762 11.6428 30.7525 12.7008 30.9092ZM12.7008 17.7736C13.4707 17.8861 14.0035 18.6016 13.8908 19.3715C13.7783 20.1412 13.0629 20.674 12.293 20.5615C11.2359 20.4051 10.1994 20.2139 9.1957 19.9916C8.21386 19.774 7.2955 19.5295 6.45234 19.2615C5.71288 19.0271 5.30331 18.2377 5.53769 17.4984C5.77206 16.759 6.56152 16.3494 7.30078 16.5838C8.05859 16.8248 8.89589 17.0473 9.80175 17.2478C10.6732 17.4408 11.6428 17.617 12.7008 17.7736Z" fill="#FFD54F"/>
<path fill-rule="evenodd" clip-rule="evenodd" d="M21.3637 17.1074C22.8422 17.1074 24.0408 18.3059 24.0408 19.7844C24.0408 21.2629 22.8422 22.4615 21.3637 22.4615C19.8852 22.4615 18.6865 21.2629 18.6865 19.7844C18.6865 18.3059 19.8852 17.1074 21.3637 17.1074ZM21.3637 43.3781C22.8422 43.3781 24.0408 44.5766 24.0408 46.0553C24.0408 47.5338 22.8422 48.7324 21.3637 48.7324C19.8852 48.7324 18.6865 47.5338 18.6865 46.0553C18.6865 44.5768 19.8852 43.3781 21.3637 43.3781ZM21.3637 30.2428C22.8422 30.2428 24.0408 31.4414 24.0408 32.9199C24.0408 34.3984 22.8422 35.5971 21.3637 35.5971C19.8852 35.5971 18.6865 34.3984 18.6865 32.9199C18.6865 31.4414 19.8852 30.2428 21.3637 30.2428Z" fill="#6CE75A"/>
<path d="M21.3633 13.2168C32.245 13.2168 41.0664 10.6298 41.0664 7.43848C41.0664 4.2472 32.245 1.66016 21.3633 1.66016C10.4815 1.66016 1.66016 4.2472 1.66016 7.43848C1.66016 10.6298 10.4815 13.2168 21.3633 13.2168Z" fill="#6F6571"/>
<path fill-rule="evenodd" clip-rule="evenodd" d="M98.3398 46.8445C98.3398 50.0357 89.5186 52.6228 78.6367 52.6228C67.7549 52.6228 58.9336 50.0357 58.9336 46.8445V7.43848C58.9336 4.24707 67.7549 1.66016 78.6367 1.66016C89.5186 1.66016 98.3398 4.24707 98.3398 7.43848V46.8445Z" fill="#7A7785"/>
<path fill-rule="evenodd" clip-rule="evenodd" d="M58.9336 33.7096C58.9336 41.2723 98.3398 41.2723 98.3398 33.7096V20.5742C98.3398 28.192 58.9336 28.1109 58.9336 20.5742V25.5551V33.7096Z" fill="#6F6571"/>
<path fill-rule="evenodd" clip-rule="evenodd" d="M92.7 16.5836C93.4394 16.3492 94.2289 16.7588 94.4631 17.4982C94.6975 18.2377 94.2879 19.0271 93.5484 19.2613C92.7053 19.5295 91.7869 19.774 90.8051 19.9914C89.8014 20.2137 88.7648 20.4049 87.7078 20.5613C86.9379 20.6738 86.2225 20.141 86.11 19.3713C85.9975 18.6014 86.5303 17.8859 87.3 17.7734C88.358 17.6168 89.3273 17.4406 90.1988 17.2475C91.1049 17.0471 91.9422 16.8246 92.7 16.5836ZM92.7 42.8545C93.4394 42.6201 94.2289 43.0297 94.4631 43.7691C94.6975 44.5086 94.2879 45.298 93.5484 45.5322C92.7053 45.8004 91.7869 46.0449 90.8051 46.2623C89.8014 46.4848 88.7648 46.6758 87.7078 46.8324C86.9379 46.9449 86.2225 46.4121 86.11 45.6424C85.9975 44.8725 86.5303 44.157 87.3 44.0445C88.358 43.8879 89.3273 43.7117 90.1988 43.5185C91.1049 43.318 91.9422 43.0955 92.7 42.8545ZM69.9742 44.0445C70.7441 44.157 71.2769 44.8725 71.1643 45.6424C71.0518 46.4123 70.3363 46.9451 69.5664 46.8324C68.5094 46.676 67.4728 46.4848 66.4691 46.2623C65.4873 46.0449 64.5689 45.8002 63.7258 45.5322C62.9863 45.2978 62.5768 44.5086 62.8111 43.7691C63.0455 43.0297 63.835 42.6201 64.5742 42.8545C65.332 43.0955 66.1693 43.318 67.0752 43.5185C67.9467 43.7117 68.9162 43.8879 69.9742 44.0445ZM92.7 29.7191C93.4394 29.4848 94.2289 29.8943 94.4631 30.6338C94.6975 31.3732 94.2879 32.1627 93.5484 32.3969C92.7053 32.665 91.7869 32.9096 90.8051 33.1269C89.8014 33.3492 88.7648 33.5404 87.7078 33.6969C86.9379 33.8094 86.2225 33.2768 86.11 32.5068C85.9975 31.7369 86.5303 31.0215 87.3 30.909C88.358 30.7523 89.3273 30.5762 90.1988 30.383C91.1049 30.1824 91.9422 29.96 92.7 29.7191ZM69.9742 30.9092C70.7441 31.0217 71.2769 31.7371 71.1643 32.507C71.0518 33.2769 70.3363 33.8098 69.5664 33.6971C68.5094 33.5406 67.4728 33.3494 66.4691 33.1271C65.4873 32.9098 64.5689 32.665 63.7258 32.3971C62.9863 32.1627 62.5768 31.3732 62.8111 30.634C63.0455 29.8945 63.835 29.4851 64.5742 29.7193C65.332 29.9603 66.1693 30.1826 67.0752 30.3834C67.9467 30.5762 68.9162 30.7525 69.9742 30.9092ZM69.9742 17.7736C70.7441 17.8861 71.2769 18.6016 71.1643 19.3715C71.0518 20.1412 70.3363 20.674 69.5664 20.5615C68.5094 20.4051 67.4728 20.2139 66.4691 19.9916C65.4873 19.774 64.5689 19.5295 63.7258 19.2615C62.9863 19.0271 62.5768 18.2377 62.8111 17.4984C63.0455 16.759 63.835 16.3494 64.5742 16.5838C65.332 16.8248 66.1693 17.0473 67.0752 17.2478C67.9467 17.4408 68.9162 17.617 69.9742 17.7736Z" fill="#FFD54F"/>
<path fill-rule="evenodd" clip-rule="evenodd" d="M78.6371 17.1074C80.1156 17.1074 81.3143 18.3059 81.3143 19.7844C81.3143 21.2629 80.1156 22.4615 78.6371 22.4615C77.1586 22.4615 75.96 21.2629 75.96 19.7844C75.96 18.3059 77.1588 17.1074 78.6371 17.1074ZM78.6371 43.3781C80.1156 43.3781 81.3143 44.5766 81.3143 46.0553C81.3143 47.5338 80.1156 48.7324 78.6371 48.7324C77.1586 48.7324 75.96 47.5338 75.96 46.0553C75.96 44.5768 77.1588 43.3781 78.6371 43.3781ZM78.6371 30.2428C80.1156 30.2428 81.3143 31.4414 81.3143 32.9199C81.3143 34.3984 80.1156 35.5971 78.6371 35.5971C77.1586 35.5971 75.96 34.3984 75.96 32.9199C75.96 31.4414 77.1588 30.2428 78.6371 30.2428Z" fill="#43A2FF"/>
<path d="M78.6367 13.2168C89.5184 13.2168 98.3398 10.6298 98.3398 7.43848C98.3398 4.2472 89.5184 1.66016 78.6367 1.66016C67.755 1.66016 58.9336 4.2472 58.9336 7.43848C58.9336 10.6298 67.755 13.2168 78.6367 13.2168Z" fill="#6F6571"/>
<path fill-rule="evenodd" clip-rule="evenodd" d="M69.7031 73.2881C69.7031 76.4793 60.8816 79.0664 50 79.0664C39.1184 79.0664 30.2969 76.4793 30.2969 73.2881V33.8818C30.2969 30.6906 39.1182 28.1035 50 28.1035C60.8818 28.1035 69.7031 30.6904 69.7031 33.8818V73.2881Z" fill="#7A7785"/>
<path fill-rule="evenodd" clip-rule="evenodd" d="M30.2969 60.1529C30.2969 67.7156 69.7031 67.7156 69.7031 60.1529V47.0176C69.7031 54.6354 30.2969 54.5543 30.2969 47.0176V51.9984V60.1529Z" fill="#6F6571"/>
<path fill-rule="evenodd" clip-rule="evenodd" d="M64.0631 43.0271C64.8025 42.7928 65.592 43.2023 65.8262 43.9418C66.0605 44.6812 65.651 45.4707 64.9115 45.7049C64.0684 45.973 63.15 46.2176 62.1682 46.435C61.1644 46.6572 60.1279 46.8484 59.0709 47.0051C58.301 47.1176 57.5855 46.5848 57.473 45.815C57.3605 45.0451 57.8934 44.3297 58.6631 44.2172C59.7211 44.0605 60.6904 43.8844 61.5619 43.6912C62.4682 43.4904 63.3053 43.268 64.0631 43.0271ZM64.0631 69.2978C64.8025 69.0635 65.592 69.473 65.8262 70.2125C66.0605 70.9519 65.651 71.7414 64.9115 71.9756C64.0684 72.2437 63.15 72.4883 62.1682 72.7057C61.1644 72.9281 60.1279 73.1191 59.0709 73.2758C58.301 73.3883 57.5855 72.8555 57.473 72.0857C57.3605 71.3158 57.8934 70.6004 58.6631 70.4879C59.7211 70.3312 60.6904 70.1551 61.5619 69.9619C62.4682 69.7613 63.3053 69.5389 64.0631 69.2978ZM41.3375 70.4879C42.1074 70.6004 42.6402 71.3158 42.5275 72.0857C42.415 72.8555 41.6996 73.3885 40.9297 73.2758C39.8727 73.1193 38.8361 72.9281 37.8324 72.7057C36.8506 72.4883 35.9322 72.2437 35.0891 71.9756C34.3496 71.7412 33.94 70.9519 34.1744 70.2125C34.4088 69.473 35.1982 69.0635 35.9375 69.2978C36.6953 69.5389 37.5326 69.7613 38.4385 69.9619C39.31 70.1551 40.2795 70.3312 41.3375 70.4879ZM64.0631 56.1625C64.8025 55.9281 65.592 56.3377 65.8262 57.0771C66.0605 57.8166 65.651 58.606 64.9115 58.8402C64.0684 59.1084 63.15 59.3529 62.1682 59.5703C61.1644 59.7926 60.1279 59.9838 59.0709 60.1402C58.301 60.2527 57.5855 59.7201 57.473 58.9502C57.3605 58.1803 57.8934 57.465 58.6631 57.3523C59.7211 57.1957 60.6904 57.0195 61.5619 56.8264C62.4682 56.6258 63.3053 56.4035 64.0631 56.1625ZM41.3375 57.3525C42.1074 57.465 42.6402 58.1805 42.5275 58.9504C42.415 59.7203 41.6996 60.2531 40.9297 60.1404C39.8727 59.984 38.8361 59.7928 37.8324 59.5705C36.8506 59.3531 35.9322 59.1084 35.0891 58.8404C34.3496 58.606 33.94 57.8166 34.1744 57.0773C34.4088 56.3379 35.1982 55.9285 35.9375 56.1627C36.6953 56.4037 37.5326 56.626 38.4385 56.8268C39.31 57.0195 40.2795 57.1959 41.3375 57.3525ZM41.3375 44.217C42.1074 44.3295 42.6402 45.0449 42.5275 45.8148C42.415 46.5846 41.6996 47.1174 40.9297 47.0049C39.8727 46.8484 38.8361 46.6572 37.8324 46.4348C36.8506 46.2172 35.9322 45.9727 35.0891 45.7047C34.3496 45.4703 33.94 44.6809 34.1744 43.9416C34.4088 43.2021 35.1982 42.7926 35.9375 43.0269C36.6953 43.268 37.5326 43.4904 38.4385 43.691C39.31 43.8842 40.2795 44.0605 41.3375 44.217Z" fill="#FFD54F"/>
<path fill-rule="evenodd" clip-rule="evenodd" d="M50.0004 43.5508C51.4789 43.5508 52.6775 44.7492 52.6775 46.2277C52.6775 47.7062 51.4789 48.9049 50.0004 48.9049C48.5219 48.9049 47.3232 47.7062 47.3232 46.2277C47.3232 44.7492 48.5219 43.5508 50.0004 43.5508ZM50.0004 69.8215C51.4789 69.8215 52.6775 71.0199 52.6775 72.4986C52.6775 73.9771 51.4789 75.1758 50.0004 75.1758C48.5219 75.1758 47.3232 73.9771 47.3232 72.4986C47.3232 71.0201 48.5219 69.8215 50.0004 69.8215ZM50.0004 56.6861C51.4789 56.6861 52.6775 57.8848 52.6775 59.3633C52.6775 60.8418 51.4789 62.0404 50.0004 62.0404C48.5219 62.0404 47.3232 60.8418 47.3232 59.3633C47.3232 57.8848 48.5219 56.6861 50.0004 56.6861Z" fill="#FF6372"/>
<path d="M50 39.6602C60.8817 39.6602 69.7031 37.0731 69.7031 33.8818C69.7031 30.6906 60.8817 28.1035 50 28.1035C39.1183 28.1035 30.2969 30.6906 30.2969 33.8818C30.2969 37.0731 39.1183 39.6602 50 39.6602Z" fill="#6F6571"/>
</svg>
