<svg width="148" height="148" viewBox="0 0 148 148" fill="none" xmlns="http://www.w3.org/2000/svg">
<path fill-rule="evenodd" clip-rule="evenodd" d="M15.455 7.56836H90.6858C97.9141 7.56836 103.828 13.4826 103.828 20.7109V116.789C103.828 124.017 97.9141 129.931 90.6858 129.931H15.455C8.22643 129.931 2.3125 124.017 2.3125 116.789V20.7109C2.3125 13.4826 8.22643 7.56836 15.455 7.56836Z" fill="#837683"/>
<path fill-rule="evenodd" clip-rule="evenodd" d="M83.1553 7.56836H90.6856C97.9142 7.56836 103.828 13.4826 103.828 20.7112V116.789C103.828 124.017 97.9142 129.931 90.6856 129.931H83.1553C90.3836 129.931 96.2978 124.017 96.2978 116.789V20.7112C96.2978 13.4826 90.3839 7.56836 83.1553 7.56836Z" fill="#685E68"/>
<path fill-rule="evenodd" clip-rule="evenodd" d="M19.8357 26.4316H86.3048C87.9689 26.4316 89.3261 27.7888 89.3261 29.4529V41.3117C89.3261 42.9758 87.9689 44.333 86.3048 44.333H19.8357C18.1716 44.333 16.8145 42.9758 16.8145 41.3117V29.4529C16.8145 27.7888 18.1716 26.4316 19.8357 26.4316Z" fill="#FFE177"/>
<path fill-rule="evenodd" clip-rule="evenodd" d="M85.5607 26.4316H86.3045C87.9686 26.4316 89.3258 27.7888 89.3258 29.4529V41.3117C89.3258 42.9758 87.9686 44.333 86.3045 44.333H19.8357C18.1716 44.333 16.8145 42.9758 16.8145 41.3117V40.568H82.5397C84.2039 40.568 85.561 39.2108 85.561 37.5467V26.4316H85.5607Z" fill="#FFD064"/>
<path fill-rule="evenodd" clip-rule="evenodd" d="M22.6121 58.7227H33.9043C35.5685 58.7227 36.9256 60.0798 36.9256 61.7439V65.6717C36.9256 67.3358 35.5685 68.693 33.9043 68.693H22.6121C20.948 68.693 19.5908 67.3358 19.5908 65.6717V61.7439C19.5908 60.0801 20.948 58.7227 22.6121 58.7227ZM72.2372 101.097H83.5294C85.1936 101.097 86.5507 102.454 86.5507 104.118V108.046C86.5507 109.71 85.1936 111.067 83.5294 111.067H72.2372C70.5731 111.067 69.2159 109.71 69.2159 108.046V104.118C69.2156 102.454 70.5731 101.097 72.2372 101.097ZM47.4244 101.097H58.7166C60.3807 101.097 61.7379 102.454 61.7379 104.118V108.046C61.7379 109.71 60.3807 111.067 58.7166 111.067H47.4244C45.7602 111.067 44.4031 109.71 44.4031 108.046V104.118C44.4034 102.454 45.7605 101.097 47.4244 101.097ZM22.6121 101.097H33.9043C35.5685 101.097 36.9256 102.454 36.9256 104.118V108.046C36.9256 109.71 35.5685 111.067 33.9043 111.067H22.6121C20.948 111.067 19.5908 109.71 19.5908 108.046V104.118C19.5908 102.454 20.948 101.097 22.6121 101.097ZM72.2372 79.9098H83.5294C85.1936 79.9098 86.5507 81.2669 86.5507 82.9311V86.8588C86.5507 88.523 85.1936 89.8801 83.5294 89.8801H72.2372C70.5731 89.8801 69.2159 88.523 69.2159 86.8588V82.9311C69.2156 81.2669 70.5731 79.9098 72.2372 79.9098ZM47.4244 79.9098H58.7166C60.3807 79.9098 61.7379 81.2669 61.7379 82.9311V86.8588C61.7379 88.523 60.3807 89.8801 58.7166 89.8801H47.4244C45.7602 89.8801 44.4031 88.523 44.4031 86.8588V82.9311C44.4034 81.2669 45.7605 79.9098 47.4244 79.9098ZM22.6121 79.9098H33.9043C35.5685 79.9098 36.9256 81.2669 36.9256 82.9311V86.8588C36.9256 88.523 35.5685 89.8801 33.9043 89.8801H22.6121C20.948 89.8801 19.5908 88.523 19.5908 86.8588V82.9311C19.5908 81.2669 20.948 79.9098 22.6121 79.9098ZM72.2372 58.7227H83.5294C85.1936 58.7227 86.5507 60.0798 86.5507 61.7439V65.6717C86.5507 67.3358 85.1936 68.693 83.5294 68.693H72.2372C70.5731 68.693 69.2159 67.3358 69.2159 65.6717V61.7439C69.2156 60.0801 70.5731 58.7227 72.2372 58.7227ZM47.4244 58.7227H58.7166C60.3807 58.7227 61.7379 60.0798 61.7379 61.7439V65.6717C61.7379 67.3358 60.3807 68.693 58.7166 68.693H47.4244C45.7602 68.693 44.4031 67.3358 44.4031 65.6717V61.7439C44.4034 60.0801 45.7605 58.7227 47.4244 58.7227Z" fill="#ECEFF1"/>
<path fill-rule="evenodd" clip-rule="evenodd" d="M34.4088 58.7656C35.8342 59.0073 36.9254 60.2523 36.9254 61.7444V65.6722C36.9254 67.3363 35.5682 68.6935 33.9041 68.6935H22.6119C21.29 68.6935 20.1618 67.837 19.7539 66.6504C19.9181 66.6781 20.0866 66.6929 20.2586 66.6929H31.5508C33.215 66.6929 34.5721 65.3357 34.5721 63.6716V59.7438C34.5721 59.4016 34.5143 59.0726 34.4088 58.7656ZM84.0339 101.14C85.4593 101.381 86.5505 102.626 86.5505 104.118V108.046C86.5505 109.71 85.1933 111.067 83.5292 111.067H72.237C70.9151 111.067 69.7869 110.211 69.379 109.025C69.5432 109.052 69.7117 109.067 69.8837 109.067H81.1759C82.8401 109.067 84.1972 107.71 84.1972 106.046V102.118C84.1972 101.776 84.1394 101.447 84.0339 101.14ZM59.2214 101.14C60.6464 101.381 61.7376 102.626 61.7376 104.118V108.046C61.7376 109.71 60.3805 111.067 58.7164 111.067H47.4241C46.1022 111.067 44.9743 110.211 44.5662 109.025C44.7304 109.052 44.8989 109.067 45.0709 109.067H56.3631C58.0272 109.067 59.3844 107.71 59.3844 106.046V102.118C59.3847 101.776 59.3269 101.447 59.2214 101.14ZM34.4088 101.14C35.8342 101.381 36.9254 102.626 36.9254 104.118V108.046C36.9254 109.71 35.5682 111.067 33.9041 111.067H22.6119C21.29 111.067 20.1618 110.211 19.7539 109.025C19.9181 109.052 20.0866 109.067 20.2586 109.067H31.5508C33.215 109.067 34.5721 107.71 34.5721 106.046V102.118C34.5721 101.776 34.5143 101.447 34.4088 101.14ZM84.0339 79.9525C85.4593 80.1938 86.5505 81.4391 86.5505 82.9312V86.859C86.5505 88.5232 85.1933 89.8803 83.5292 89.8803H72.237C70.9151 89.8803 69.7869 89.0238 69.379 87.8375C69.5432 87.8653 69.7117 87.88 69.8837 87.88H81.1759C82.8401 87.88 84.1972 86.5228 84.1972 84.8587V80.9306C84.1972 80.5887 84.1394 80.2594 84.0339 79.9525ZM59.2214 79.9525C60.6464 80.1938 61.7376 81.4391 61.7376 82.9312V86.859C61.7376 88.5232 60.3805 89.8803 58.7164 89.8803H47.4241C46.1022 89.8803 44.9743 89.0241 44.5662 87.8375C44.7304 87.8653 44.8989 87.88 45.0709 87.88H56.3631C58.0272 87.88 59.3844 86.5228 59.3844 84.8587V80.9306C59.3847 80.5887 59.3269 80.2594 59.2214 79.9525ZM34.4088 79.9525C35.8342 80.1938 36.9254 81.4391 36.9254 82.9312V86.859C36.9254 88.5232 35.5682 89.8803 33.9041 89.8803H22.6119C21.29 89.8803 20.1618 89.0238 19.7539 87.8375C19.9181 87.8653 20.0866 87.88 20.2586 87.88H31.5508C33.215 87.88 34.5721 86.5228 34.5721 84.8587V80.9306C34.5721 80.5887 34.5143 80.2594 34.4088 79.9525ZM84.0339 58.7656C85.4593 59.007 86.5505 60.2523 86.5505 61.7444V65.6722C86.5505 67.3363 85.1933 68.6935 83.5292 68.6935H72.237C70.9151 68.6935 69.7869 67.837 69.379 66.6504C69.5432 66.6781 69.7117 66.6929 69.8837 66.6929H81.1759C82.8401 66.6929 84.1972 65.3357 84.1972 63.6716V59.7438C84.1972 59.4016 84.1394 59.0726 84.0339 58.7656ZM59.2214 58.7656C60.6464 59.007 61.7376 60.2523 61.7376 61.7444V65.6722C61.7376 67.3363 60.3805 68.6935 58.7164 68.6935H47.4241C46.1022 68.6935 44.9743 67.837 44.5662 66.6504C44.7304 66.6781 44.8989 66.6929 45.0709 66.6929H56.3631C58.0272 66.6929 59.3844 65.3357 59.3844 63.6716V59.7438C59.3847 59.4016 59.3269 59.0726 59.2214 58.7656Z" fill="#D1D1D6"/>
<path fill-rule="evenodd" clip-rule="evenodd" d="M139.814 76.1975C143.045 76.1975 145.688 78.8404 145.688 82.0707V86.3827C145.688 89.6129 143.045 92.2561 139.814 92.2561C143.045 92.2561 145.688 94.899 145.688 98.1296V102.442C145.688 105.672 143.045 108.315 139.814 108.315C143.045 108.315 145.688 110.958 145.688 114.188V118.5C145.688 121.73 143.045 124.374 139.814 124.374C143.045 124.374 145.688 127.016 145.688 130.247V134.559C145.688 137.79 143.045 140.432 139.814 140.432H102.899C99.6683 140.432 97.0254 137.79 97.0254 134.559V130.247C97.0254 127.016 99.6683 124.374 102.899 124.374C99.6683 124.374 97.0254 121.731 97.0254 118.5V114.188C97.0254 110.958 99.6683 108.315 102.899 108.315C99.6683 108.315 97.0254 105.672 97.0254 102.442V98.1296C97.0254 94.899 99.6683 92.2561 102.899 92.2561C99.6683 92.2561 97.0254 89.6132 97.0254 86.3827V82.0707C97.0254 78.8404 99.6683 76.1975 102.899 76.1975C99.6683 76.1975 97.0254 73.5546 97.0254 70.3241V66.0121C97.0254 62.7816 99.6683 60.1387 102.899 60.1387H139.814C143.045 60.1387 145.688 62.7816 145.688 66.0121V70.3241C145.688 73.5546 143.045 76.1975 139.814 76.1975Z" fill="#FFD064"/>
<path fill-rule="evenodd" clip-rule="evenodd" d="M139.814 76.1975C143.045 76.1975 145.688 78.8404 145.688 82.0707V86.3827C145.688 89.6129 143.045 92.2561 139.814 92.2561C143.045 92.2561 145.688 94.899 145.688 98.1296V102.442C145.688 105.672 143.045 108.315 139.814 108.315C143.045 108.315 145.688 110.958 145.688 114.188V118.5C145.688 121.73 143.045 124.374 139.814 124.374C143.045 124.374 145.688 127.016 145.688 130.247V134.559C145.688 137.79 143.045 140.432 139.814 140.432H136.924C140.154 140.432 142.797 137.79 142.797 134.559V130.247C142.797 127.016 140.154 124.374 136.924 124.374C140.154 124.374 142.797 121.731 142.797 118.5V114.188C142.797 110.958 140.154 108.315 136.924 108.315C140.154 108.315 142.797 105.672 142.797 102.442V98.1296C142.797 94.899 140.154 92.2561 136.924 92.2561C140.154 92.2561 142.797 89.6132 142.797 86.3827V82.0707C142.797 78.8404 140.154 76.1975 136.924 76.1975C140.154 76.1975 142.797 73.5546 142.797 70.3241V66.0121C142.797 62.7816 140.154 60.1387 136.924 60.1387H139.814C143.045 60.1387 145.688 62.7816 145.688 66.0121V70.3241C145.688 73.5546 143.045 76.1975 139.814 76.1975Z" fill="#FFC338"/>
<path fill-rule="evenodd" clip-rule="evenodd" d="M102.899 76.1975H139.814C143.045 76.1975 145.688 73.5546 145.688 70.3241V66.0121C145.688 62.7816 143.045 60.1387 139.814 60.1387H102.899C99.6683 60.1387 97.0254 62.7816 97.0254 66.0121V70.3241C97.0254 73.5546 99.6683 76.1975 102.899 76.1975ZM102.899 140.432H139.814C143.045 140.432 145.688 137.79 145.688 134.559V130.247C145.688 127.016 143.045 124.374 139.814 124.374H102.899C99.6683 124.374 97.0254 127.016 97.0254 130.247V134.559C97.0254 137.79 99.6683 140.432 102.899 140.432ZM102.899 108.315H139.814C143.045 108.315 145.688 105.672 145.688 102.442V98.1296C145.688 94.899 143.045 92.2561 139.814 92.2561H102.899C99.6683 92.2561 97.0254 94.899 97.0254 98.1296V102.442C97.0254 105.672 99.6683 108.315 102.899 108.315Z" fill="#FFE177"/>
<path fill-rule="evenodd" clip-rule="evenodd" d="M136.924 76.1975H139.814C143.045 76.1975 145.688 73.5546 145.688 70.3241V66.0121C145.688 62.7816 143.045 60.1387 139.814 60.1387H136.924C140.154 60.1387 142.797 62.7816 142.797 66.0121V70.3241C142.797 73.5546 140.154 76.1975 136.924 76.1975ZM136.924 140.432H139.814C143.045 140.432 145.688 137.79 145.688 134.559V130.247C145.688 127.016 143.045 124.374 139.814 124.374H136.924C140.154 124.374 142.797 127.016 142.797 130.247V134.559C142.797 137.79 140.154 140.432 136.924 140.432ZM136.924 108.315H139.814C143.045 108.315 145.688 105.672 145.688 102.442V98.1296C145.688 94.899 143.045 92.2561 139.814 92.2561H136.924C140.154 92.2561 142.797 94.899 142.797 98.1296V102.442C142.797 105.672 140.154 108.315 136.924 108.315Z" fill="#FFD064"/>
<path d="M72.6963 140.434C92.6519 140.434 108.829 124.256 108.829 104.301C108.829 84.3452 92.6519 68.168 72.6963 68.168C52.7407 68.168 36.5635 84.3452 36.5635 104.301C36.5635 124.256 52.7407 140.434 72.6963 140.434Z" fill="#FFD064"/>
<path fill-rule="evenodd" clip-rule="evenodd" d="M71.1729 68.1995C90.4218 68.9979 105.782 84.8558 105.782 104.301C105.782 123.746 90.4218 139.603 71.1729 140.402C71.6778 140.423 72.186 140.434 72.6962 140.434C92.6519 140.434 108.829 124.257 108.829 104.301C108.829 84.3451 92.6516 68.168 72.6962 68.168C72.186 68.168 71.6778 68.1787 71.1729 68.1995Z" fill="#FFC338"/>
<path d="M72.6968 131.892C87.935 131.892 100.288 119.539 100.288 104.3C100.288 89.062 87.935 76.709 72.6968 76.709C57.4585 76.709 45.1055 89.062 45.1055 104.3C45.1055 119.539 57.4585 131.892 72.6968 131.892Z" fill="#FFC338"/>
<path fill-rule="evenodd" clip-rule="evenodd" d="M48.3962 104.3C48.3962 89.6145 59.8696 77.6085 74.3418 76.7573C73.7975 76.7252 73.2489 76.709 72.6965 76.709C57.4583 76.709 45.1055 89.0621 45.1055 104.3C45.1055 119.539 57.4583 131.892 72.6965 131.892C73.2489 131.892 73.7975 131.875 74.3418 131.843C59.8696 130.992 48.3962 118.986 48.3962 104.3Z" fill="#F5B829"/>
<path fill-rule="evenodd" clip-rule="evenodd" d="M82.9521 95.0252C83.4458 96.2025 82.892 97.5573 81.7146 98.0513C80.5373 98.5454 79.1824 97.9912 78.6884 96.8139C77.862 94.8454 76.2921 93.7088 74.5681 93.2717C73.4818 92.9965 72.3452 92.9797 71.2867 93.1931C70.2556 93.4006 69.3046 93.8218 68.5588 94.4279C67.6066 95.2021 67.0022 96.3187 67.0696 97.703C67.1317 98.9827 67.7957 99.8577 68.7216 100.462C69.9154 101.241 71.5454 101.672 73.0928 101.926C75.2367 102.278 77.5755 102.864 79.5255 104.041C81.745 105.381 83.4189 107.395 83.7944 110.489C83.8239 110.732 83.8424 111.017 83.8499 111.34C83.9173 114.163 82.6289 116.267 80.6928 117.736C79.0801 118.96 77.0257 119.695 75.0095 120.002V121.761C75.0095 123.038 73.9741 124.073 72.697 124.073C71.4199 124.073 70.3845 123.038 70.3845 121.761V119.958C68.725 119.666 67.1404 119.066 65.7763 118.157C63.7806 116.828 62.252 114.867 61.6054 112.274C61.301 111.037 62.0575 109.787 63.2947 109.483C64.5319 109.179 65.7815 109.935 66.0859 111.172C66.4287 112.547 67.2494 113.593 68.3235 114.309C69.6315 115.18 71.3061 115.595 73.0031 115.555C73.2919 115.548 73.6327 115.521 74.0227 115.474C75.4561 115.3 76.8893 114.844 77.9103 114.069C78.7263 113.45 79.2697 112.584 79.2428 111.448C79.2408 111.359 79.2284 111.221 79.2053 111.031C79.0318 109.603 78.2204 108.65 77.1405 107.998C75.7911 107.183 74.0152 106.752 72.3516 106.478C70.2816 106.138 68.0373 105.521 66.2099 104.328C64.1139 102.96 62.6087 100.937 62.4622 97.9201C62.3162 94.9176 63.6098 92.5097 65.6497 90.8511C66.9779 89.7712 68.6267 89.0303 70.3828 88.6765L70.3842 88.6762V86.8418C70.3842 85.5647 71.4197 84.5293 72.6967 84.5293C73.9738 84.5293 75.0092 85.5647 75.0092 86.8418V88.6415C75.2367 88.6846 75.4631 88.7346 75.6877 88.7915C78.7309 89.5625 81.4987 91.5631 82.9521 95.0252Z" fill="#FFE177"/>
</svg>
