<svg width="148" height="148" viewBox="0 0 148 148" fill="none" xmlns="http://www.w3.org/2000/svg">
<path fill-rule="evenodd" clip-rule="evenodd" d="M43.3164 38.5312C52.6286 38.5312 60.274 45.6618 61.0938 54.7607H25.5391C26.3588 45.6618 34.0043 38.5312 43.3164 38.5312Z" fill="#2DCFFC"/>
<path fill-rule="evenodd" clip-rule="evenodd" d="M56.1418 54.7616H25.5391C26.3094 46.2111 33.1079 39.3991 41.6526 38.6094C49.2818 40.0717 55.2157 46.6118 56.1418 54.7616Z" fill="#66DEFF"/>
<path d="M45.3266 38.2449C49.8951 37.1509 52.7118 32.5605 51.6178 27.992C50.5238 23.4234 45.9334 20.6068 41.3648 21.7008C36.7963 22.7948 33.9796 27.3852 35.0737 31.9537C36.1677 36.5223 40.7581 39.3389 45.3266 38.2449Z" fill="#FDB0A0"/>
<path fill-rule="evenodd" clip-rule="evenodd" d="M41.596 38.2994C37.7257 37.5037 34.8154 34.0777 34.8154 29.9721C34.8154 25.8666 37.7257 22.4406 41.596 21.6445C45.4662 22.4403 48.3768 25.8663 48.3768 29.9721C48.3768 34.078 45.4662 37.5037 41.596 38.2994Z" fill="#FFCEC0"/>
<path fill-rule="evenodd" clip-rule="evenodd" d="M101.023 68.441L96.7508 67.5986L94.8748 63.0754L97.3018 59.4566L92.299 54.4538L88.6802 56.8808L84.1572 55.0045L83.3146 50.7324H76.2398L75.3975 55.0045L70.8745 56.8808L67.2554 54.4538L62.2526 59.4566L64.6796 63.0754L62.8033 67.5986L58.5312 68.441V75.5158L62.8033 76.3581L64.6796 80.8813L62.2526 84.5001L67.2554 89.5029L70.8745 87.076L75.3975 88.9523L76.2398 93.2243H83.3146L84.1572 88.9523L88.6802 87.076L92.299 89.5029L97.3018 84.5001L94.8748 80.8813L96.7508 76.3581L101.023 75.5158V68.441Z" fill="#7986BF"/>
<path fill-rule="evenodd" clip-rule="evenodd" d="M98.9581 75.5158L94.6857 76.3581L92.8094 80.8813L95.2364 84.5001L91.0629 88.6739L87.8907 86.5467L82.0919 88.9523L81.2495 93.2243H76.2398L75.3975 88.9523L69.5983 86.5467L66.4264 88.6739L62.2526 84.5001L64.6796 80.8813L62.8033 76.3581L58.5312 75.5158V68.441L62.8033 67.5986L64.6796 63.0754L62.2526 59.4566L66.4264 55.2828L69.5983 57.4101L75.3975 55.0045L76.2398 50.7324H81.2495L82.0919 55.0045L87.8907 57.4101L91.0629 55.2828L95.2364 59.4566L92.8094 63.0754L94.6857 67.5986L98.9581 68.441V75.5158Z" fill="#909CD1"/>
<path d="M79.0156 82.8784C85.0337 82.3774 89.5062 77.0926 89.0052 71.0746C88.5042 65.0565 83.2194 60.584 77.2014 61.085C71.1833 61.586 66.7108 66.8708 67.2118 72.8889C67.7128 78.9069 72.9976 83.3794 79.0156 82.8784Z" fill="#7986BF"/>
<path d="M80.418 82.8735C86.418 82.5007 90.9798 77.3345 90.6071 71.3345C90.2343 65.3345 85.0682 60.7726 79.0681 61.1454C73.0681 61.5181 68.5063 66.6843 68.879 72.6843C69.2518 78.6844 74.4179 83.2462 80.418 82.8735Z" fill="#F3F3FF"/>
<path fill-rule="evenodd" clip-rule="evenodd" d="M32.5371 68.1172C41.8493 68.1172 49.4947 75.2478 50.3145 84.3466H14.7598C15.5795 75.2478 23.225 68.1172 32.5371 68.1172Z" fill="#2A92FA"/>
<path fill-rule="evenodd" clip-rule="evenodd" d="M45.3625 84.3475H14.7598C15.5301 75.7971 22.3286 68.985 30.8733 68.1953C38.5025 69.6577 44.4364 76.1977 45.3625 84.3475Z" fill="#4EB1FC"/>
<path d="M32.5368 68.0599C37.2321 68.0599 41.0384 64.2536 41.0384 59.5583C41.0384 54.8629 37.2321 51.0566 32.5368 51.0566C27.8415 51.0566 24.0352 54.8629 24.0352 59.5583C24.0352 64.2536 27.8415 68.0599 32.5368 68.0599Z" fill="#FDB0A0"/>
<path fill-rule="evenodd" clip-rule="evenodd" d="M30.8157 67.8851C26.9454 67.0893 24.0352 63.6633 24.0352 59.5578C24.0352 55.4522 26.9454 52.0263 30.8157 51.2305C34.686 52.0263 37.5965 55.4522 37.5965 59.5578C37.5965 63.6633 34.686 67.0893 30.8157 67.8851Z" fill="#FFCEC0"/>
<path fill-rule="evenodd" clip-rule="evenodd" d="M79.7773 24.7617C89.0895 24.7617 96.7349 31.8923 97.5547 40.9911H62C62.8198 31.8923 70.4652 24.7617 79.7773 24.7617Z" fill="#2DCFFC"/>
<path fill-rule="evenodd" clip-rule="evenodd" d="M92.6028 40.9901H62C62.7704 32.4397 69.5688 25.6276 78.1135 24.8379C85.7427 26.3003 91.6766 32.8403 92.6028 40.9901Z" fill="#66DEFF"/>
<path d="M81.7993 24.4558C86.3678 23.3618 89.1845 18.7714 88.0905 14.2029C86.9964 9.63436 82.406 6.81769 77.8375 7.9117C73.269 9.00571 70.4523 13.5961 71.5463 18.1647C72.6403 22.7332 77.2307 25.5499 81.7993 24.4558Z" fill="#FDB0A0"/>
<path fill-rule="evenodd" clip-rule="evenodd" d="M78.0559 24.5296C74.1857 23.7338 71.2754 20.3079 71.2754 16.2023C71.2754 12.0968 74.1857 8.67079 78.0559 7.875C81.9262 8.67079 84.8368 12.0968 84.8368 16.2023C84.8368 20.3079 81.9262 23.7338 78.0559 24.5296Z" fill="#FFCEC0"/>
<path fill-rule="evenodd" clip-rule="evenodd" d="M116.238 38.5312C125.55 38.5312 133.196 45.6618 134.016 54.7607H98.4609C99.2807 45.6618 106.926 38.5312 116.238 38.5312Z" fill="#2DCFFC"/>
<path fill-rule="evenodd" clip-rule="evenodd" d="M129.064 54.7616H98.4609C99.2313 46.2111 106.03 39.3991 114.574 38.6094C122.204 40.0717 128.138 46.6118 129.064 54.7616Z" fill="#66DEFF"/>
<path d="M122.234 35.9931C125.554 32.6735 125.554 27.2914 122.234 23.9718C118.914 20.6522 113.532 20.6522 110.213 23.9718C106.893 27.2914 106.893 32.6735 110.213 35.9931C113.532 39.3127 118.914 39.3127 122.234 35.9931Z" fill="#FDB0A0"/>
<path fill-rule="evenodd" clip-rule="evenodd" d="M114.518 38.2994C110.648 37.5037 107.737 34.0777 107.737 29.9721C107.737 25.8666 110.648 22.4406 114.518 21.6445C118.388 22.4403 121.299 25.8663 121.299 29.9721C121.299 34.078 118.388 37.5037 114.518 38.2994Z" fill="#FFCEC0"/>
<path fill-rule="evenodd" clip-rule="evenodd" d="M127.019 68.1172C136.331 68.1172 143.976 75.2478 144.796 84.3466H109.241C110.061 75.2478 117.706 68.1172 127.019 68.1172Z" fill="#2A92FA"/>
<path fill-rule="evenodd" clip-rule="evenodd" d="M139.844 84.3475H109.241C110.012 75.7971 116.81 68.985 125.355 68.1953C132.984 69.6577 138.918 76.1977 139.844 84.3475Z" fill="#4EB1FC"/>
<path d="M128.346 67.8953C132.98 67.1487 136.131 62.7867 135.385 58.1524C134.638 53.5181 130.276 50.3665 125.642 51.1131C121.008 51.8596 117.856 56.2217 118.603 60.8559C119.349 65.4902 123.711 68.6418 128.346 67.8953Z" fill="#FDB0A0"/>
<path fill-rule="evenodd" clip-rule="evenodd" d="M125.296 67.8851C121.426 67.0893 118.516 63.6633 118.516 59.5578C118.516 55.4522 121.426 52.0263 125.296 51.2305C129.166 52.0263 132.077 55.4522 132.077 59.5578C132.077 63.6633 129.166 67.0893 125.296 67.8851Z" fill="#FFCEC0"/>
<path fill-rule="evenodd" clip-rule="evenodd" d="M85.6693 107.298C87.8606 103.61 85.0848 98.9396 80.7989 99.1015C45.5766 99.1015 45.5141 70.4611 12.5674 112.833L30.0025 131.111C37.7681 123.28 46.9996 122.918 57.1819 123.527C62.7356 123.859 69.3638 124.661 75.4448 124.527C83.9415 124.339 89.1487 122.033 96.61 118.08C105.104 113.581 119.868 104.619 122.443 101.233C126.129 96.3874 121.371 91.8237 115.748 95.0696C109.136 98.887 91.6286 107.237 82.6093 109.752C83.9742 109.161 85.0403 108.356 85.6693 107.298Z" fill="#FDB0A0"/>
<path fill-rule="evenodd" clip-rule="evenodd" d="M85.6693 107.298C87.8606 103.61 85.0848 98.9396 80.7989 99.1015C45.5766 99.1015 45.5141 70.4611 12.5674 112.833L26.0258 126.942C34.1627 118.917 43.8093 118.548 54.439 119.184C60.2939 119.534 67.2811 120.38 73.6917 120.238C82.6488 120.04 88.1384 117.609 96.0038 113.442C104.87 108.745 120.214 99.4376 123.151 95.7902C121.932 93.9203 118.984 93.2017 115.748 95.0696C109.136 98.887 91.6286 107.237 82.6093 109.752C83.9742 109.161 85.0403 108.356 85.6693 107.298Z" fill="#FFCEC0"/>
<path fill-rule="evenodd" clip-rule="evenodd" d="M85.6693 107.298C87.3788 104.422 86.0653 100.947 83.3706 99.6348C85.3212 101.771 84.0127 104.804 80.9538 105.917C79.2608 106.533 76.9792 106.823 74.4999 106.884C68.0243 107.043 60.574 105.524 57.6279 103.99C56.5893 103.45 55.3096 103.855 54.7696 104.893C54.2297 105.932 54.6341 107.211 55.6727 107.751C59.077 109.523 67.458 111.284 74.5993 111.109C77.5489 111.037 80.3387 110.628 82.6093 109.753C83.9742 109.161 85.0403 108.357 85.6693 107.298Z" fill="#FDB0A0"/>
<path fill-rule="evenodd" clip-rule="evenodd" d="M3.2041 115.348L11.2759 107.276C12.8605 105.692 15.4534 105.692 17.0378 107.276L36.2278 126.466C37.8124 128.05 37.8121 130.644 36.2278 132.228L28.156 140.3L3.2041 115.348Z" fill="#F2671F"/>
<path fill-rule="evenodd" clip-rule="evenodd" d="M3.2041 115.348L11.2759 107.276C12.8597 105.692 15.4511 105.692 17.0357 107.274L17.0378 107.276L32.1502 122.389C33.7349 123.973 33.7346 126.566 32.1502 128.151L24.0785 136.223L3.2041 115.348Z" fill="#FF8748"/>
</svg>
