<svg width="148" height="148" viewBox="0 0 148 148" fill="none" xmlns="http://www.w3.org/2000/svg">
<path d="M20.3832 133.028C23.5089 133.028 26.0427 130.494 26.0427 127.369C26.0427 124.243 23.5089 121.709 20.3832 121.709C17.2575 121.709 14.7236 124.243 14.7236 127.369C14.7236 130.494 17.2575 133.028 20.3832 133.028Z" fill="#F8F5F6"/>
<path d="M92.5079 38.849L89.3251 39.3384C88.0185 39.5392 86.7683 38.7576 86.3576 37.5014C85.7916 35.7699 85.0946 34.0976 84.2786 32.496C83.6829 31.327 84.0312 29.8984 85.0891 29.1226L87.6893 27.2156C89.0184 26.2409 89.1658 24.3109 88.0003 23.1456L78.2219 13.3672C77.0564 12.2017 75.1266 12.3495 74.1519 13.6783L72.2449 16.2784C71.4688 17.3364 70.0406 17.6847 68.8716 17.0889C67.2702 16.2729 65.598 15.576 63.8662 15.01C62.6096 14.5992 61.828 13.349 62.0292 12.0425L62.5186 8.8596C62.7692 7.23073 61.5086 5.76172 59.8606 5.76172H46.0319C44.3837 5.76172 43.1233 7.23073 43.374 8.8596L43.8633 12.0425C44.0642 13.349 43.2826 14.5992 42.0264 15.01C40.2949 15.576 38.6226 16.2729 37.0212 17.0889C35.8523 17.6847 34.4237 17.3364 33.6479 16.2784L31.7409 13.6783C30.7662 12.3492 28.8361 12.2017 27.6709 13.3672L17.8917 23.1454C16.7262 24.3109 16.8739 26.2406 18.2027 27.2154L20.8028 29.1223C21.8608 29.8984 22.2091 31.3267 21.6133 32.4957C20.7973 34.0971 20.1004 35.7693 19.5344 37.5011C19.1236 38.7576 17.8734 39.5393 16.5669 39.3381L13.384 38.8487C11.7551 38.5981 10.2861 39.8587 10.2861 41.5066V55.3354C10.2861 56.9836 11.7551 58.2439 13.384 57.9933L16.5669 57.5039C17.8734 57.303 19.1236 58.0846 19.5344 59.3412C20.1004 61.0727 20.7973 62.7449 21.6133 64.3466C22.2091 65.5156 21.8608 66.9441 20.8028 67.72L18.2027 69.6269C16.8736 70.6016 16.7262 72.5317 17.8917 73.6969L27.6701 83.4753C28.8356 84.6408 30.7653 84.4931 31.7401 83.1643L33.647 80.5642C34.4231 79.5062 35.8514 79.1579 37.0204 79.7536C38.6218 80.5696 40.294 81.2666 42.0255 81.8326C43.282 82.2433 44.0637 83.4935 43.8625 84.8001L43.3731 87.9829C43.1225 89.6118 44.3831 91.0808 46.031 91.0808H59.8598C61.508 91.0808 62.7683 89.6118 62.5177 87.9829L62.0283 84.8001C61.8274 83.4935 62.609 82.2433 63.8653 81.8326C65.5968 81.2666 67.269 80.5696 68.8707 79.7536C70.0397 79.1579 71.4682 79.5062 72.2441 80.5642L74.151 83.1643C75.1257 84.4934 77.0558 84.6408 78.221 83.4753L87.9994 73.6969C89.1649 72.5314 89.0172 70.6016 87.6884 69.6269L85.0883 67.72C84.0303 66.9438 83.682 65.5156 84.2777 64.3466C85.0938 62.7452 85.7907 61.073 86.3567 59.3412C86.7675 58.0846 88.0176 57.303 89.3242 57.5039L92.5071 57.9933C94.1359 58.2439 95.6049 56.9833 95.6049 55.3354V41.5066C95.6058 39.859 94.1368 38.5984 92.5079 38.849ZM52.946 69.5254C41.2904 69.5254 31.8418 60.0769 31.8418 48.4213C31.8418 36.7657 41.2904 27.3171 52.946 27.3171C64.6016 27.3171 74.0501 36.7657 74.0501 48.4213C74.0501 60.0769 64.6016 69.5254 52.946 69.5254Z" fill="#75797F"/>
<path d="M73.7073 44.6367C73.9307 45.8649 74.0507 47.1293 74.0507 48.422C74.0507 60.0776 64.6021 69.5264 52.9465 69.5264C52.5791 69.5264 52.214 69.5169 51.8516 69.4981V91.0821H59.8612C61.5094 91.0821 62.7697 89.6131 62.5191 87.9842L62.0297 84.8014C61.8288 83.4948 62.6102 82.2443 63.8667 81.8339C65.5982 81.2679 67.2704 80.5709 68.8721 79.7549C70.0411 79.1592 71.4697 79.5072 72.2455 80.5654L74.1524 83.1656C75.1272 84.4947 77.0572 84.6421 78.2224 83.4766L88.0009 73.6982C89.1663 72.5327 89.0186 70.6029 87.6898 69.6282L85.0897 67.721C84.0317 66.9448 83.6834 65.5166 84.2792 64.3473C85.0952 62.7459 85.7921 61.0737 86.3581 59.3422C86.7689 58.0856 88.0191 57.304 89.3256 57.5049L92.5085 57.9943C94.1374 58.2449 95.6064 56.9846 95.6064 55.3364V44.6367H73.7073Z" fill="#666A6F"/>
<path d="M136.325 112.499H61.4785V56.0013C61.4785 54.5531 62.6527 53.3789 64.1009 53.3789H133.703C135.151 53.3789 136.325 54.5531 136.325 56.0013L136.325 112.499Z" fill="#E3A55C"/>
<path d="M133.623 53.3789H125.604V80.7762C125.604 92.211 116.335 101.481 104.9 101.481H61.4785V119.2L136.325 121.709V56.0805C136.325 54.5886 135.115 53.3789 133.623 53.3789Z" fill="#D3955B"/>
<path d="M104.894 75.0467H92.9091C92.015 75.0467 91.29 74.3218 91.29 73.4277V53.3789H106.513V73.4277C106.513 74.3218 105.788 75.0467 104.894 75.0467Z" fill="#E3A55C"/>
<path d="M104.894 75.0467H92.9091C92.015 75.0467 91.29 74.3218 91.29 73.4277V53.3789H106.513V73.4277C106.513 74.3218 105.788 75.0467 104.894 75.0467Z" fill="#FCE9C7"/>
<path d="M105.313 87.1814H92.4911C91.2574 87.1814 90.2578 86.1816 90.2578 84.9481C90.2578 83.7147 91.2577 82.7148 92.4911 82.7148H105.313C106.546 82.7148 107.546 83.7147 107.546 84.9481C107.546 86.1813 106.546 87.1814 105.313 87.1814Z" fill="#C38548"/>
<path d="M136.325 60.5996H121.48C120.247 60.5996 119.247 61.5995 119.247 62.8329C119.247 64.0663 120.247 65.0662 121.48 65.0662H136.325V60.5996Z" fill="#C38548"/>
<path d="M136.325 73.2656H123.223C121.989 73.2656 120.989 74.2655 120.989 75.4989C120.989 76.7324 121.989 77.7322 123.223 77.7322H136.325V73.2656Z" fill="#C38548"/>
<path d="M104.701 97.951H93.1024C91.8687 97.951 90.8691 96.9511 90.8691 95.7177C90.8691 94.4842 91.869 93.4844 93.1024 93.4844H104.701C105.935 93.4844 106.935 94.4842 106.935 95.7177C106.935 96.9511 105.935 97.951 104.701 97.951Z" fill="#C38548"/>
<path d="M36.17 104.262H12.538C11.3046 104.262 10.3047 103.262 10.3047 102.028C10.3047 100.795 11.3046 99.7949 12.538 99.7949H36.1703C37.404 99.7949 38.4036 100.795 38.4036 102.028C38.4036 103.261 37.4037 104.262 36.17 104.262Z" fill="#C4F0FF"/>
<path d="M21.9082 94.3631H12.538C11.3046 94.3631 10.3047 93.3632 10.3047 92.1298C10.3047 90.8963 11.3046 89.8965 12.538 89.8965H21.9085C23.1422 89.8965 24.1418 90.8963 24.1418 92.1298C24.1418 93.3632 23.142 94.3631 21.9082 94.3631Z" fill="#C4F0FF"/>
<path d="M133.566 142.239H14.4338C6.46228 142.239 0 135.776 0 127.805V126.934C0 118.962 6.46228 112.5 14.4338 112.5H133.566C141.538 112.5 148 118.962 148 126.934V127.805C148 135.776 141.538 142.239 133.566 142.239Z" fill="#54AFFF"/>
<path d="M41.8295 133.028C44.9552 133.028 47.489 130.494 47.489 127.369C47.489 124.243 44.9552 121.709 41.8295 121.709C38.7038 121.709 36.1699 124.243 36.1699 127.369C36.1699 130.494 38.7038 133.028 41.8295 133.028Z" fill="#F8F5F6"/>
<path d="M63.2767 133.028C66.4024 133.028 68.9363 130.494 68.9363 127.369C68.9363 124.243 66.4024 121.709 63.2767 121.709C60.1511 121.709 57.6172 124.243 57.6172 127.369C57.6172 130.494 60.1511 133.028 63.2767 133.028Z" fill="#F8F5F6"/>
<path d="M84.723 133.028C87.8487 133.028 90.3826 130.494 90.3826 127.369C90.3826 124.243 87.8487 121.709 84.723 121.709C81.5973 121.709 79.0635 124.243 79.0635 127.369C79.0635 130.494 81.5973 133.028 84.723 133.028Z" fill="#F8F5F6"/>
<path d="M106.17 133.028C109.296 133.028 111.83 130.494 111.83 127.369C111.83 124.243 109.296 121.709 106.17 121.709C103.045 121.709 100.511 124.243 100.511 127.369C100.511 130.494 103.045 133.028 106.17 133.028Z" fill="#F8F5F6"/>
<path d="M127.617 133.028C130.742 133.028 133.276 130.494 133.276 127.369C133.276 124.243 130.742 121.709 127.617 121.709C124.491 121.709 121.957 124.243 121.957 127.369C121.957 130.494 124.491 133.028 127.617 133.028Z" fill="#F8F5F6"/>
</svg>
