<svg width="94" height="94" viewBox="0 0 94 94" fill="none" xmlns="http://www.w3.org/2000/svg">
<path d="M46.9948 88.2862C46.4557 88.2862 46.0195 87.8495 46.0195 87.311V6.69205C46.0195 6.15338 46.4557 5.7168 46.9948 5.7168C47.5338 5.7168 47.97 6.15357 47.97 6.69205V87.311C47.97 87.8497 47.5338 88.2862 46.9948 88.2862Z" fill="url(#paint0_linear_1150_4215)"/>
<path d="M12.0939 68.13C11.7569 68.13 11.4291 67.9552 11.2481 67.6424C10.9786 67.1763 11.1385 66.5796 11.6052 66.3099L81.4182 26.0004C81.882 25.7303 82.4801 25.8904 82.7507 26.3575C83.0202 26.8236 82.8603 27.4203 82.3936 27.69L12.5806 67.9995C12.4273 68.0882 12.2597 68.13 12.0939 68.13Z" fill="url(#paint1_linear_1150_4215)"/>
<path d="M81.9047 68.1301C81.7389 68.1301 81.5713 68.0882 81.418 67.9995L11.6052 27.6901C11.1385 27.4205 10.9786 26.8239 11.2481 26.3575C11.5167 25.8903 12.1149 25.7304 12.5806 26.0004L82.3935 66.3099C82.8602 66.5794 83.0201 67.1761 82.7505 67.6424C82.5695 67.9553 82.2418 68.1301 81.9047 68.1301Z" fill="url(#paint2_linear_1150_4215)"/>
<path d="M46.995 88.2862C46.4969 88.2862 48.7578 89.3986 11.6058 68.001C11.304 67.8267 11.1182 67.5047 11.1182 67.1562V26.8468C11.1182 26.4981 11.304 26.1763 11.6058 26.002L46.5071 5.84713C46.8081 5.67381 47.1815 5.6729 47.4824 5.84713C83.956 27.1251 82.8811 25.7738 82.8811 26.8466C82.6898 69.0726 83.3225 67.4645 82.3935 68.001C45.2172 89.4069 47.4932 88.2862 46.995 88.2862ZM13.0685 66.5933L46.9948 86.1846L80.9306 66.5933V27.4097L46.995 7.81819L13.0687 27.4095L13.0685 66.5933Z" fill="url(#paint3_linear_1150_4215)"/>
<path d="M87.4346 26.8404C87.4346 29.9018 84.9623 32.3741 81.9009 32.3741C78.8492 32.3741 76.377 29.9018 76.377 26.8404C76.377 23.7887 78.8492 21.3164 81.9009 21.3164C84.9625 21.3164 87.4346 23.7887 87.4346 26.8404Z" fill="url(#paint4_linear_1150_4215)"/>
<path d="M87.4346 26.8404C87.4346 29.9018 84.9623 32.3741 81.9009 32.3741C78.8492 32.3741 76.377 29.9018 76.377 26.8404C76.377 23.7887 78.8492 21.3164 81.9009 21.3164C84.9625 21.3164 87.4346 23.7887 87.4346 26.8404Z" fill="url(#paint5_linear_1150_4215)"/>
<path d="M52.5284 6.68608C52.5284 9.7475 50.0561 12.2198 46.9947 12.2198C43.943 12.2198 41.4707 9.7475 41.4707 6.68608C41.4707 3.63438 43.943 1.16211 46.9947 1.16211C50.0563 1.16229 52.5284 3.63457 52.5284 6.68608Z" fill="url(#paint6_linear_1150_4215)"/>
<path d="M52.5284 6.68608C52.5284 9.7475 50.0561 12.2198 46.9947 12.2198C43.943 12.2198 41.4707 9.7475 41.4707 6.68608C41.4707 3.63438 43.943 1.16211 46.9947 1.16211C50.0563 1.16229 52.5284 3.63457 52.5284 6.68608Z" fill="url(#paint7_linear_1150_4215)"/>
<path d="M52.5284 46.9966C52.5284 50.0581 50.0561 52.5303 46.9947 52.5303C43.943 52.5303 41.4707 50.0581 41.4707 46.9966C41.4707 43.9449 43.943 41.4727 46.9947 41.4727C50.0563 41.4727 52.5284 43.9449 52.5284 46.9966Z" fill="url(#paint8_linear_1150_4215)"/>
<path d="M52.5284 46.9966C52.5284 50.0581 50.0561 52.5303 46.9947 52.5303C43.943 52.5303 41.4707 50.0581 41.4707 46.9966C41.4707 43.9449 43.943 41.4727 46.9947 41.4727C50.0563 41.4727 52.5284 43.9449 52.5284 46.9966Z" fill="url(#paint9_linear_1150_4215)"/>
<path d="M87.4346 67.1509C87.4346 70.2123 84.9623 72.6846 81.9009 72.6846C78.8492 72.6846 76.377 70.2123 76.377 67.1509C76.377 64.0992 78.8492 61.627 81.9009 61.627C84.9625 61.627 87.4346 64.0992 87.4346 67.1509Z" fill="url(#paint10_linear_1150_4215)"/>
<path d="M87.4346 67.1509C87.4346 70.2123 84.9623 72.6846 81.9009 72.6846C78.8492 72.6846 76.377 70.2123 76.377 67.1509C76.377 64.0992 78.8492 61.627 81.9009 61.627C84.9625 61.627 87.4346 64.0992 87.4346 67.1509Z" fill="url(#paint11_linear_1150_4215)"/>
<path d="M52.5284 87.3052C52.5284 90.3666 50.0561 92.8389 46.9947 92.8389C43.943 92.8389 41.4707 90.3666 41.4707 87.3052C41.4707 84.2535 43.943 81.7812 46.9947 81.7812C50.0563 81.7812 52.5284 84.2535 52.5284 87.3052Z" fill="url(#paint12_linear_1150_4215)"/>
<path d="M52.5284 87.3052C52.5284 90.3666 50.0561 92.8389 46.9947 92.8389C43.943 92.8389 41.4707 90.3666 41.4707 87.3052C41.4707 84.2535 43.943 81.7812 46.9947 81.7812C50.0563 81.7812 52.5284 84.2535 52.5284 87.3052Z" fill="url(#paint13_linear_1150_4215)"/>
<path d="M17.6221 67.1509C17.6221 70.2123 15.1498 72.6846 12.0884 72.6846C9.03673 72.6846 6.56445 70.2123 6.56445 67.1509C6.56445 64.0992 9.03673 61.627 12.0884 61.627C15.15 61.627 17.6221 64.0992 17.6221 67.1509Z" fill="url(#paint14_linear_1150_4215)"/>
<path d="M17.6221 67.1509C17.6221 70.2123 15.1498 72.6846 12.0884 72.6846C9.03673 72.6846 6.56445 70.2123 6.56445 67.1509C6.56445 64.0992 9.03673 61.627 12.0884 61.627C15.15 61.627 17.6221 64.0992 17.6221 67.1509Z" fill="url(#paint15_linear_1150_4215)"/>
<path d="M18.4405 26.8404C18.4405 29.9018 15.9682 32.3741 12.9068 32.3741C9.85509 32.3741 7.38281 29.9018 7.38281 26.8404C7.38281 23.7887 9.85509 21.3164 12.9068 21.3164C15.9682 21.3164 18.4405 23.7887 18.4405 26.8404Z" fill="url(#paint16_linear_1150_4215)"/>
<path d="M18.4405 26.8404C18.4405 29.9018 15.9682 32.3741 12.9068 32.3741C9.85509 32.3741 7.38281 29.9018 7.38281 26.8404C7.38281 23.7887 9.85509 21.3164 12.9068 21.3164C15.9682 21.3164 18.4405 23.7887 18.4405 26.8404Z" fill="url(#paint17_linear_1150_4215)"/>
<defs>
<linearGradient id="paint0_linear_1150_4215" x1="46.9948" y1="88.2862" x2="46.9948" y2="5.7168" gradientUnits="userSpaceOnUse">
<stop stop-color="#41262F"/>
<stop offset="1" stop-color="#543843"/>
</linearGradient>
<linearGradient id="paint1_linear_1150_4215" x1="46.9995" y1="68.13" x2="46.9995" y2="25.8693" gradientUnits="userSpaceOnUse">
<stop stop-color="#41262F"/>
<stop offset="1" stop-color="#543843"/>
</linearGradient>
<linearGradient id="paint2_linear_1150_4215" x1="46.9993" y1="68.1301" x2="46.9993" y2="25.8694" gradientUnits="userSpaceOnUse">
<stop stop-color="#41262F"/>
<stop offset="1" stop-color="#543843"/>
</linearGradient>
<linearGradient id="paint3_linear_1150_4215" x1="47.0174" y1="88.2963" x2="47.0174" y2="5.71677" gradientUnits="userSpaceOnUse">
<stop stop-color="#41262F"/>
<stop offset="1" stop-color="#543843"/>
</linearGradient>
<linearGradient id="paint4_linear_1150_4215" x1="81.9059" y1="32.3739" x2="81.9059" y2="21.3164" gradientUnits="userSpaceOnUse">
<stop stop-color="#F79808"/>
<stop offset="1" stop-color="#ECBD0B"/>
</linearGradient>
<linearGradient id="paint5_linear_1150_4215" x1="81.9059" y1="32.3739" x2="81.9059" y2="21.3164" gradientUnits="userSpaceOnUse">
<stop stop-color="#F9403E"/>
<stop offset="1" stop-color="#F77953"/>
</linearGradient>
<linearGradient id="paint6_linear_1150_4215" x1="46.9996" y1="12.2198" x2="46.9996" y2="1.16229" gradientUnits="userSpaceOnUse">
<stop stop-color="#F79808"/>
<stop offset="1" stop-color="#ECBD0B"/>
</linearGradient>
<linearGradient id="paint7_linear_1150_4215" x1="46.9996" y1="12.2198" x2="46.9996" y2="1.16229" gradientUnits="userSpaceOnUse">
<stop stop-color="#0969DB"/>
<stop offset="1" stop-color="#4F8AFF"/>
</linearGradient>
<linearGradient id="paint8_linear_1150_4215" x1="46.9996" y1="52.5301" x2="46.9996" y2="41.4727" gradientUnits="userSpaceOnUse">
<stop stop-color="#F79808"/>
<stop offset="1" stop-color="#ECBD0B"/>
</linearGradient>
<linearGradient id="paint9_linear_1150_4215" x1="46.9996" y1="52.5301" x2="46.9996" y2="41.4727" gradientUnits="userSpaceOnUse">
<stop stop-color="#F79808"/>
<stop offset="1" stop-color="#ECBD0B"/>
</linearGradient>
<linearGradient id="paint10_linear_1150_4215" x1="81.9059" y1="72.6844" x2="81.9059" y2="61.627" gradientUnits="userSpaceOnUse">
<stop stop-color="#F79808"/>
<stop offset="1" stop-color="#ECBD0B"/>
</linearGradient>
<linearGradient id="paint11_linear_1150_4215" x1="81.9059" y1="72.6844" x2="81.9059" y2="61.627" gradientUnits="userSpaceOnUse">
<stop stop-color="#20C59D"/>
<stop offset="0.3103" stop-color="#38CE8C"/>
<stop offset="0.9631" stop-color="#75E461"/>
<stop offset="1" stop-color="#79E55E"/>
</linearGradient>
<linearGradient id="paint12_linear_1150_4215" x1="46.9996" y1="92.8389" x2="46.9996" y2="81.7812" gradientUnits="userSpaceOnUse">
<stop stop-color="#F79808"/>
<stop offset="1" stop-color="#ECBD0B"/>
</linearGradient>
<linearGradient id="paint13_linear_1150_4215" x1="46.9996" y1="92.8389" x2="46.9996" y2="81.7812" gradientUnits="userSpaceOnUse">
<stop stop-color="#F79808"/>
<stop offset="1" stop-color="#ECBD0B"/>
</linearGradient>
<linearGradient id="paint14_linear_1150_4215" x1="12.0934" y1="72.6844" x2="12.0934" y2="61.627" gradientUnits="userSpaceOnUse">
<stop stop-color="#F79808"/>
<stop offset="1" stop-color="#ECBD0B"/>
</linearGradient>
<linearGradient id="paint15_linear_1150_4215" x1="12.0934" y1="72.6844" x2="12.0934" y2="61.627" gradientUnits="userSpaceOnUse">
<stop stop-color="#20C59D"/>
<stop offset="0.3103" stop-color="#38CE8C"/>
<stop offset="0.9631" stop-color="#75E461"/>
<stop offset="1" stop-color="#79E55E"/>
</linearGradient>
<linearGradient id="paint16_linear_1150_4215" x1="12.9116" y1="32.3739" x2="12.9116" y2="21.3164" gradientUnits="userSpaceOnUse">
<stop stop-color="#F79808"/>
<stop offset="1" stop-color="#ECBD0B"/>
</linearGradient>
<linearGradient id="paint17_linear_1150_4215" x1="12.9116" y1="32.3739" x2="12.9116" y2="21.3164" gradientUnits="userSpaceOnUse">
<stop stop-color="#F9403E"/>
<stop offset="1" stop-color="#F77953"/>
</linearGradient>
</defs>
</svg>
