<svg width="148" height="148" viewBox="0 0 148 148" fill="none" xmlns="http://www.w3.org/2000/svg">
<path d="M77.1666 91.4663C77.1666 89.9271 77.9948 88.4924 79.3279 87.7227L95.2359 78.5383V75.6211H95.0882C92.7893 75.6211 90.9193 73.7508 90.9193 71.4519V38.6954C90.9193 36.3964 92.7896 34.5262 95.0882 34.5262H95.2359V2.97792C95.2359 1.33316 93.9027 0 92.258 0H4.92295C3.27847 0 1.94531 1.33316 1.94531 2.97792V112.45C1.94531 114.094 3.27847 115.428 4.92323 115.428H77.1669L77.1666 91.4663Z" fill="#F3F0F3"/>
<path d="M77.1748 90.7779C77.1748 90.612 77.1898 90.4487 77.2138 90.2871H43.1943C41.9967 90.2871 41.0264 91.2578 41.0264 92.4551C41.0264 93.6524 41.9967 94.623 43.1943 94.623H77.1748V90.7779Z" fill="#B5ADB6"/>
<path d="M95.2358 75.6211H95.0881C92.7892 75.6211 90.9192 73.7508 90.9192 71.4519V38.6954C90.9192 36.3964 92.7895 34.5262 95.0881 34.5262H95.2358V2.97792C95.2358 1.33316 93.9027 0 92.2579 0H84.4229V84.6459L95.2358 78.403V75.6211Z" fill="#E2DEE2"/>
<path d="M77.1753 106.459H1.94531V112.45C1.94531 114.095 3.27847 115.428 4.92323 115.428H77.1753V106.459Z" fill="#E2DEE2"/>
<path d="M143.749 87.4715L123.237 75.6289H120.106C118.583 75.6289 117.142 76.366 116.25 77.6003L112.452 82.8598C112.224 83.176 111.869 83.3573 111.479 83.3573C111.085 83.3573 110.727 83.1723 110.499 82.8497L106.819 77.6405C105.93 76.3808 104.478 75.6289 102.935 75.6289H99.6947L79.1828 87.4715C77.756 88.2953 76.877 89.8178 76.877 91.4655V126.08C76.877 127.728 77.756 129.25 79.1828 130.074L109.16 147.381C110.587 148.205 112.345 148.205 113.772 147.381L143.749 130.074C145.175 129.25 146.055 127.728 146.055 126.08V91.4655C146.055 89.8178 145.176 88.2953 143.749 87.4715Z" fill="#FFE177"/>
<path d="M145.437 89.1602L111.466 108.773L110.795 110.893V144.518L111.466 148C112.263 148 113.059 147.794 113.772 147.382L143.749 130.074C145.176 129.251 146.055 127.728 146.055 126.08V91.466C146.055 90.6422 145.835 89.8499 145.437 89.1602Z" fill="#FFC344"/>
<path d="M111.467 108.773L77.4957 89.1602C77.0976 89.8496 76.8779 90.6422 76.8779 91.466V126.081C76.8779 127.728 77.757 129.251 79.1838 130.075L109.161 147.382C109.874 147.794 110.67 148 111.467 148V108.773Z" fill="#FFD15B"/>
<path d="M24.1928 59.6108C23.6265 59.6108 23.0813 59.3891 22.6749 58.9907L16.8717 53.3011C16.0169 52.4628 16.0034 51.0904 16.8416 50.2353C17.6802 49.38 19.053 49.3673 19.9074 50.205L24.03 54.2466L30.5996 46.3428C31.3647 45.4219 32.7314 45.2961 33.6527 46.0613C34.5736 46.8267 34.6993 48.1934 33.9342 49.1143L25.8604 58.828C25.473 59.294 24.9085 59.5767 24.3035 59.6073C24.2662 59.6096 24.2295 59.6108 24.1928 59.6108Z" fill="#00C27A"/>
<path d="M78.7919 54.7539H43.1953C41.9977 54.7539 41.0273 53.7832 41.0273 52.5859C41.0273 51.3886 41.9977 50.418 43.1953 50.418H78.7922C79.9898 50.418 80.9602 51.3886 80.9602 52.5859C80.9602 53.7832 79.9895 54.7539 78.7919 54.7539Z" fill="#B5ADB6"/>
<path d="M24.1928 79.5092C23.6265 79.5092 23.0813 79.2875 22.6749 78.8892L16.8717 73.1996C16.0169 72.3613 16.0034 70.9888 16.8416 70.1338C17.6802 69.2784 19.053 69.2657 19.9074 70.1034L24.03 74.1451L30.5996 66.2412C31.3647 65.3203 32.7314 65.1946 33.6527 65.9597C34.5736 66.7251 34.6993 68.0918 33.9342 69.0128L25.8604 78.7264C25.473 79.1924 24.9085 79.4751 24.3035 79.5057C24.2662 79.5084 24.2295 79.5092 24.1928 79.5092Z" fill="#00C27A"/>
<path d="M78.7919 74.6523H43.1953C41.9977 74.6523 41.0273 73.6817 41.0273 72.4844C41.0273 71.2871 41.9977 70.3164 43.1953 70.3164H78.7922C79.9898 70.3164 80.9602 71.2871 80.9602 72.4844C80.9602 73.6817 79.9895 74.6523 78.7919 74.6523Z" fill="#B5ADB6"/>
<path d="M24.1928 99.4797C23.6265 99.4797 23.0813 99.258 22.6749 98.8596L16.8717 93.1703C16.0169 92.332 16.0034 90.9595 16.8416 90.1045C17.6802 89.2492 19.053 89.2364 19.9074 90.0741L24.03 94.1158L30.5996 86.212C31.3647 85.2913 32.7314 85.165 33.6527 85.9304C34.5736 86.6959 34.6993 88.0626 33.9342 88.9835L25.8604 98.6972C25.473 99.1631 24.9085 99.4458 24.3035 99.4765C24.2662 99.4788 24.2295 99.4797 24.1928 99.4797Z" fill="#00C27A"/>
<path d="M52.7034 27.4162C51.7865 26.6464 50.4192 26.7658 49.6492 27.6824C49.5165 27.8405 49.3743 27.9874 49.2254 28.1197C48.4652 28.797 47.4907 29.1404 46.3287 29.1404C43.1649 29.1404 40.5908 26.5663 40.5908 23.4022C40.5908 20.2385 43.1646 17.6644 46.3287 17.6644C47.4789 17.6644 48.5877 18.0028 49.5356 18.6428C50.5279 19.3135 51.8755 19.0524 52.5456 18.0601C53.2156 17.0677 52.9549 15.7204 51.9625 15.0498C50.2952 13.9236 48.3472 13.3281 46.3287 13.3281C40.7741 13.3281 36.2549 17.8473 36.2549 23.402C36.2549 28.9569 40.7741 33.4761 46.3287 33.4761C48.5545 33.4761 50.5536 32.7433 52.1088 31.3578C52.4132 31.0873 52.7028 30.7887 52.9699 30.4704C53.7397 29.5535 53.6206 28.1859 52.7034 27.4162Z" fill="#00C27A"/>
<path d="M31.6677 28.7453C32.6418 27.1953 33.2075 25.3638 33.2075 23.402C33.2075 17.8473 28.6883 13.3281 23.1334 13.3281C17.5788 13.3281 13.0596 17.8473 13.0596 23.402C13.0596 28.9569 17.5788 33.4761 23.1334 33.4761C25.16 33.4761 27.047 32.8725 28.6288 31.8388L29.5674 32.7774C29.9908 33.2009 30.5455 33.4125 31.1005 33.4125C31.6553 33.4125 32.2103 33.2009 32.6337 32.7774C33.4804 31.9307 33.4804 30.5583 32.6337 29.7116L31.6677 28.7453ZM23.1334 29.1401C19.9696 29.1401 17.3955 26.566 17.3955 23.402C17.3955 20.2382 19.9693 17.6641 23.1334 17.6641C26.2975 17.6641 28.8716 20.2382 28.8716 23.402C28.8716 24.1555 28.7216 24.8739 28.4565 25.5338L27.5754 24.6527C26.7285 23.8061 25.356 23.8058 24.5093 24.6527C23.6627 25.4994 23.6627 26.8719 24.5093 27.7185L25.4419 28.651C24.7345 28.9635 23.9546 29.1401 23.1334 29.1401Z" fill="#00C27A"/>
<path d="M78.792 23.9883H67.4072C66.2096 23.9883 65.2393 23.0176 65.2393 21.8203C65.2393 20.623 66.2096 19.6523 67.4072 19.6523H78.792C79.9895 19.6523 80.9599 20.623 80.9599 21.8203C80.9599 23.0176 79.9895 23.9883 78.792 23.9883Z" fill="#B5ADB6"/>
<path d="M78.792 33.4766H67.4072C66.2096 33.4766 65.2393 32.5059 65.2393 31.3086C65.2393 30.1113 66.2096 29.1406 67.4072 29.1406H78.792C79.9895 29.1406 80.9599 30.1113 80.9599 31.3086C80.9599 32.5059 79.9895 33.4766 78.792 33.4766Z" fill="#B5ADB6"/>
<path d="M127.845 34.2285H95.088C92.6211 34.2285 90.6211 36.2282 90.6211 38.6954V71.452C90.6211 73.9188 92.6208 75.9188 95.088 75.9188H102.935C104.386 75.9188 105.747 76.6236 106.584 77.8084L110.263 83.0176C110.853 83.8522 112.089 83.8585 112.687 83.0304L116.485 77.7709C117.325 76.608 118.672 75.9191 120.106 75.9191H127.845C130.312 75.9191 132.312 73.9194 132.312 71.4522V38.6957C132.311 36.2285 130.312 34.2285 127.845 34.2285Z" fill="#46CC8D"/>
<path d="M127.844 34.2285H123.73V62.6838C123.73 65.1507 121.731 67.1507 119.263 67.1507H90.6211V71.452C90.6211 73.9188 92.6208 75.9188 95.088 75.9188H102.935C104.386 75.9188 105.746 76.6236 106.583 77.8084L110.263 83.0176C110.853 83.8522 112.088 83.8585 112.686 83.0304L116.485 77.7709C117.324 76.608 118.671 75.9191 120.106 75.9191H127.845C130.311 75.9191 132.311 73.9194 132.311 71.4522V38.6957C132.311 36.2285 130.311 34.2285 127.844 34.2285Z" fill="#00C27A"/>
<path d="M109.882 64.0162C109.316 64.0162 108.771 63.7945 108.364 63.3962L100.27 55.4602C99.4154 54.622 99.4018 53.2495 100.24 52.3944C101.079 51.5394 102.451 51.5264 103.306 52.3641L109.72 58.6524L119.477 46.9132C120.242 45.9923 121.609 45.8663 122.53 46.6317C123.451 47.3968 123.577 48.7638 122.812 49.6848L111.55 63.234C111.163 63.7 110.598 63.9827 109.993 64.0133C109.956 64.0153 109.919 64.0162 109.882 64.0162Z" fill="white"/>
</svg>
