<svg width="86" height="83" viewBox="0 0 86 83" fill="none" xmlns="http://www.w3.org/2000/svg">
<path d="M33.7812 14.6875H27.9062C27.0944 14.6875 26.4375 14.0299 26.4375 13.2188C26.4375 12.4076 27.0944 11.75 27.9062 11.75H33.7812C34.5931 11.75 35.25 12.4076 35.25 13.2188C35.25 14.0299 34.5931 14.6875 33.7812 14.6875Z" fill="#6E6E7C"/>
<path d="M57.2812 70.5H51.4062C50.5944 70.5 49.9375 69.8424 49.9375 69.0312C49.9375 68.2201 50.5944 67.5625 51.4062 67.5625H57.2812C58.0931 67.5625 58.75 68.2201 58.75 69.0312C58.75 69.8424 58.0931 70.5 57.2812 70.5Z" fill="#6E6E7C"/>
<path d="M69.7656 42.5937H61.6875C60.8757 42.5937 60.2188 41.9361 60.2188 41.125C60.2188 40.3139 60.8757 39.6562 61.6875 39.6562H69.7656C76.649 39.6562 82.25 34.0559 82.25 27.1719C82.25 20.2878 76.649 14.6875 69.7656 14.6875H69.0312C68.2194 14.6875 67.5625 14.0299 67.5625 13.2188C67.5625 12.4076 68.2194 11.75 69.0312 11.75H69.7656C78.2697 11.75 85.1875 18.6685 85.1875 27.1719C85.1875 35.6753 78.2697 42.5937 69.7656 42.5937Z" fill="#6E6E7C"/>
<path d="M16.1562 70.5H15.4219C6.91775 70.5 0 63.5815 0 55.0781C0 46.5747 6.91775 39.6562 15.4219 39.6562H26.4375C27.2493 39.6562 27.9062 40.3139 27.9062 41.125C27.9062 41.9361 27.2493 42.5937 26.4375 42.5937H15.4219C8.53855 42.5937 2.9375 48.1941 2.9375 55.0781C2.9375 61.9622 8.53855 67.5625 15.4219 67.5625H16.1562C16.9681 67.5625 17.625 68.2201 17.625 69.0312C17.625 69.8424 16.9681 70.5 16.1562 70.5Z" fill="#6E6E7C"/>
<path d="M61.6875 33.7812V48.4688C61.6875 49.2765 61.0265 49.9375 60.2188 49.9375H27.9062C27.0985 49.9375 26.4375 49.2765 26.4375 48.4688V33.7812C26.4375 32.9735 27.0985 32.3125 27.9062 32.3125H60.2188C61.0265 32.3125 61.6875 32.9735 61.6875 33.7812Z" fill="#FFD62C"/>
<path d="M69.0312 5.875V20.5625C69.0312 21.3703 68.4291 22.0312 67.68 22.0312H35.1325C34.3834 22.0312 33.7812 21.3703 33.7812 20.5625V5.875C33.7812 5.0672 34.3834 4.40625 35.1325 4.40625H67.68C68.4291 4.40625 69.0312 5.0672 69.0312 5.875Z" fill="#3BA9FE"/>
<path d="M51.4062 61.6875V76.375C51.4062 77.1828 50.7453 77.8438 49.9375 77.8438H17.625C16.8172 77.8438 16.1562 77.1828 16.1562 76.375V61.6875C16.1562 60.8797 16.8172 60.2188 17.625 60.2188H49.9375C50.7453 60.2188 51.4062 60.8797 51.4062 61.6875Z" fill="#ED294A"/>
<path d="M61.6875 33.7812V48.4688C61.6875 49.2765 61.0265 49.9375 60.2188 49.9375H27.9062C27.0985 49.9375 26.4375 49.2765 26.4375 48.4688H58.75C59.5578 48.4688 60.2188 47.8078 60.2188 47V32.3125C61.0265 32.3125 61.6875 32.9735 61.6875 33.7812Z" fill="#F7CF28"/>
<path d="M69.0312 5.875V20.5625C69.0312 21.3703 68.4291 22.0312 67.68 22.0312H35.1325C34.3834 22.0312 33.7812 21.3703 33.7812 20.5625H66.2113C66.9604 20.5625 67.5625 19.9015 67.5625 19.0938V4.40625H67.68C68.4291 4.40625 69.0312 5.0672 69.0312 5.875Z" fill="#33A5F2"/>
<path d="M51.4062 61.6875V76.375C51.4062 77.1828 50.7453 77.8438 49.9375 77.8438H17.625C16.8172 77.8438 16.1562 77.1828 16.1562 76.375H48.4688C49.2765 76.375 49.9375 75.714 49.9375 74.9062V60.2188C50.7453 60.2188 51.4062 60.8797 51.4062 61.6875Z" fill="#E22750"/>
<path d="M70.5 82.25C77.8005 82.25 83.7188 76.3318 83.7188 69.0312C83.7188 61.7307 77.8005 55.8125 70.5 55.8125C63.1995 55.8125 57.2812 61.7307 57.2812 69.0312C57.2812 76.3318 63.1995 82.25 70.5 82.25Z" fill="#91D834"/>
<path d="M79.0775 58.9844C81.0515 61.294 82.2501 64.2858 82.2501 67.5617C82.2501 74.8614 76.331 80.7805 69.0314 80.7805C65.7555 80.7805 62.7637 79.5817 60.4541 77.6077C62.8787 80.4446 66.4764 82.2492 70.5001 82.2492C77.7998 82.2492 83.7189 76.3301 83.7189 69.0305C83.7189 65.0067 81.9143 61.409 79.0775 58.9844Z" fill="#92CE34"/>
<path d="M23.9975 8.67466L25.7171 6.46006C25.9441 6.16771 25.9181 5.75211 25.6564 5.49038L22.417 2.25099C22.1548 1.98879 21.7382 1.96319 21.4459 2.19133L19.233 3.91826C18.7834 4.2691 18.123 3.99601 18.0525 3.43013L17.7052 0.643562C17.6594 0.275934 17.3469 0 16.9765 0H12.3985C12.0281 0 11.7156 0.275934 11.6698 0.643562L11.3225 3.43013C11.252 3.99601 10.5916 4.2691 10.142 3.91826L7.92909 2.19133C7.63675 1.96319 7.22021 1.98879 6.95801 2.25099L3.71863 5.49038C3.45689 5.75211 3.43085 6.16771 3.65786 6.46006L5.37748 8.67466C5.72666 9.12434 5.45347 9.78314 4.88853 9.85375L2.11203 10.2008C1.74454 10.2468 1.46875 10.5592 1.46875 10.9295V15.508C1.46875 15.8783 1.74454 16.1907 2.11205 16.2367L4.88851 16.5837C5.45345 16.6543 5.72666 17.3131 5.37748 17.7628L3.65785 19.9775C3.43084 20.2698 3.45689 20.6854 3.71863 20.9471L6.95913 24.1876C7.22086 24.4493 7.63644 24.4753 7.9288 24.2483L10.1434 22.5288C10.5931 22.1796 11.2519 22.4528 11.3225 23.0177L11.6696 25.7942C11.7155 26.1617 12.0279 26.4375 12.3983 26.4375H16.9767C17.3471 26.4375 17.6595 26.1617 17.7054 25.7942L18.0525 23.0177C18.1231 22.4528 18.7819 22.1796 19.2316 22.5287L21.4462 24.2483C21.7386 24.4753 22.1541 24.4493 22.4159 24.1876L25.6564 20.9471C25.9181 20.6854 25.9441 20.2698 25.7172 19.9774L23.9975 17.7628C23.6483 17.3131 23.9215 16.6543 24.4865 16.5837L27.263 16.2366C27.6305 16.1907 27.9062 15.8783 27.9062 15.5079V10.9295C27.9062 10.5592 27.6305 10.2468 27.263 10.2008L24.4865 9.85374C23.9215 9.78314 23.6483 9.12434 23.9975 8.67466ZM14.6875 17.625C12.2494 17.625 10.2812 15.6568 10.2812 13.2188C10.2812 10.7806 12.2494 8.8125 14.6875 8.8125C17.1256 8.8125 19.0938 10.7806 19.0938 13.2188C19.0938 15.6568 17.1256 17.625 14.6875 17.625Z" fill="#757483"/>
<path d="M48.4688 11.75H38.1875C37.3757 11.75 36.7188 12.4076 36.7188 13.2188C36.7188 14.0299 37.3757 14.6875 38.1875 14.6875H48.4688C49.2806 14.6875 49.9375 14.0299 49.9375 13.2188C49.9375 12.4076 49.2806 11.75 48.4688 11.75Z" fill="#E1E1EA"/>
<path d="M55.8125 11.75H54.3438C53.5319 11.75 52.875 12.4076 52.875 13.2188C52.875 14.0299 53.5319 14.6875 54.3438 14.6875H55.8125C56.6243 14.6875 57.2812 14.0299 57.2812 13.2188C57.2812 12.4076 56.6243 11.75 55.8125 11.75Z" fill="#E1E1EA"/>
<path d="M63.1562 11.75H61.6875C60.8757 11.75 60.2188 12.4076 60.2188 13.2188C60.2188 14.0299 60.8757 14.6875 61.6875 14.6875H63.1562C63.9681 14.6875 64.625 14.0299 64.625 13.2188C64.625 12.4076 63.9681 11.75 63.1562 11.75Z" fill="#E1E1EA"/>
<path d="M39.6562 42.5937H41.125C41.9368 42.5937 42.5938 41.9361 42.5938 41.125C42.5938 40.3139 41.9368 39.6562 41.125 39.6562H39.6562C38.8444 39.6562 38.1875 40.3139 38.1875 41.125C38.1875 41.9361 38.8444 42.5937 39.6562 42.5937Z" fill="#E1E1EA"/>
<path d="M32.3125 42.5937H33.7812C34.5931 42.5937 35.25 41.9361 35.25 41.125C35.25 40.3139 34.5931 39.6562 33.7812 39.6562H32.3125C31.5007 39.6562 30.8438 40.3139 30.8438 41.125C30.8438 41.9361 31.5007 42.5937 32.3125 42.5937Z" fill="#E1E1EA"/>
<path d="M38.1875 67.5625H36.7188C35.9069 67.5625 35.25 68.2201 35.25 69.0312C35.25 69.8424 35.9069 70.5 36.7188 70.5H38.1875C38.9993 70.5 39.6562 69.8424 39.6562 69.0312C39.6562 68.2201 38.9993 67.5625 38.1875 67.5625Z" fill="#E1E1EA"/>
<path d="M45.5312 67.5625H44.0625C43.2507 67.5625 42.5938 68.2201 42.5938 69.0312C42.5938 69.8424 43.2507 70.5 44.0625 70.5H45.5312C46.3431 70.5 47 69.8424 47 69.0312C47 68.2201 46.3431 67.5625 45.5312 67.5625Z" fill="#E1E1EA"/>
<path d="M75.2462 63.6845L68.9323 71.2613L65.6635 67.9918C65.0897 67.418 64.1603 67.418 63.5866 67.9918C63.0128 68.5648 63.0128 69.495 63.5866 70.0687L67.9928 74.4756C68.2682 74.7518 68.6426 74.9059 69.0313 74.9059C69.0528 74.9059 69.0757 74.9052 69.0972 74.9045C69.5103 74.8859 69.8947 74.6944 70.1601 74.3774L77.5038 65.5649C78.023 64.9417 77.9384 64.0158 77.3159 63.4966C76.6906 62.9767 75.7654 63.0627 75.2462 63.6845Z" fill="#E1E1EA"/>
<path d="M47 42.5937H55.8125C56.6243 42.5937 57.2812 41.9361 57.2812 41.125C57.2812 40.3139 56.6243 39.6562 55.8125 39.6562H47C46.1882 39.6562 45.5312 40.3139 45.5312 41.125C45.5312 41.9361 46.1882 42.5937 47 42.5937Z" fill="#E1E1EA"/>
<path d="M30.8438 67.5625H22.0312C21.2194 67.5625 20.5625 68.2201 20.5625 69.0312C20.5625 69.8424 21.2194 70.5 22.0312 70.5H30.8438C31.6556 70.5 32.3125 69.8424 32.3125 69.0312C32.3125 68.2201 31.6556 67.5625 30.8438 67.5625Z" fill="#E1E1EA"/>
</svg>
