<svg width="100" height="100" viewBox="0 0 100 100" fill="none" xmlns="http://www.w3.org/2000/svg">
<g clip-path="url(#clip0_1173_5161)">
<path d="M100 48.5912L82.6588 46.6381L80.7057 29.2969H70.6055L68.6523 64.6484L70.6055 100H100V48.5912Z" fill="#E4EBF2"/>
<path d="M80.7061 48.5912H100L80.7061 29.2969V48.5912Z" fill="#FFF4F4"/>
<path d="M23.9994 77.2059L19.8563 81.349L24.1771 85.6699H11.7188V76.5625H5.85938V91.5293H24.1771L19.8563 95.8502L23.9994 99.9934L35.3932 88.5996L23.9994 77.2059Z" fill="#00B5B4"/>
<path d="M92.1795 77.61L88.0363 73.4668L82.8572 78.6459L77.6783 73.4668L73.5352 77.61L78.7143 82.7891L73.5352 87.9682L77.6783 92.1111L82.8572 86.9322L88.0363 92.1111L92.1795 87.9682L87.0004 82.7891L92.1795 77.61Z" fill="#FF0076"/>
<path d="M41.2109 29.2969H70.6055V100H41.2109V29.2969Z" fill="#FFF4F4"/>
<path d="M58.7891 19.2943L41.4479 17.3412L39.4947 0H29.3945L27.4414 35.3516L29.3945 70.7031H58.7891V19.2943Z" fill="#FFBC74"/>
<path d="M39.4951 19.2943H58.7895L39.4951 0V19.2943Z" fill="#FFDC00"/>
<path d="M0 0H29.3945V70.7031H0V0Z" fill="#FFDC00"/>
</g>
<defs>
<clipPath id="clip0_1173_5161">
<rect width="100" height="100" fill="white"/>
</clipPath>
</defs>
</svg>
