<svg width="100" height="100" viewBox="0 0 100 100" fill="none" xmlns="http://www.w3.org/2000/svg">
<g clip-path="url(#clip0_1189_59)">
<path d="M42.1875 100C18.925 100 0 81.075 0 57.8125C0 34.55 18.925 15.625 42.1875 15.625C65.45 15.625 84.375 34.55 84.375 57.8125C84.375 81.075 65.45 100 42.1875 100Z" fill="#E94B35"/>
<path d="M42.1875 84.375C27.5406 84.375 15.625 72.4594 15.625 57.8125C15.625 43.1656 27.5406 31.25 42.1875 31.25C56.8344 31.25 68.75 43.1656 68.75 57.8125C68.75 72.4594 56.8344 84.375 42.1875 84.375Z" fill="#EBEBEB"/>
<path d="M42.1875 68.75C36.1562 68.75 31.25 63.8438 31.25 57.8125C31.25 51.7812 36.1562 46.875 42.1875 46.875C48.2188 46.875 53.125 51.7812 53.125 57.8125C53.125 63.8438 48.2188 68.75 42.1875 68.75Z" fill="#E94B35"/>
<path d="M43.0252 60.1008C42.2252 60.1008 41.4252 59.7945 40.8158 59.1852C39.5939 57.9633 39.5939 55.9883 40.8158 54.7664L74.3533 21.2289C75.5752 20.007 77.5502 20.007 78.7721 21.2289C79.9939 22.4508 79.9939 24.4258 78.7721 25.6477L45.2346 59.1852C44.6221 59.7977 43.8221 60.1008 43.0252 60.1008Z" fill="#323232"/>
<path d="M85.9377 28.1247C85.7659 28.1247 85.5909 28.1122 85.4159 28.0809L76.1721 26.5184C74.8721 26.2997 73.8502 25.2872 73.619 23.9934L71.9252 14.6184C71.7409 13.6091 72.0659 12.5778 72.7909 11.8528L83.7284 0.915307C84.5534 0.0871817 85.7721 -0.212818 86.8909 0.149682C88.0065 0.505932 88.8284 1.45593 89.019 2.61218L90.2159 9.78406L97.3877 10.9809C98.5409 11.1747 99.4909 11.9934 99.8502 13.1091C100.21 14.2247 99.9127 15.4466 99.0846 16.2716L88.1471 27.2091C87.5565 27.7997 86.7596 28.1247 85.9377 28.1247Z" fill="#05A9E3"/>
</g>
<defs>
<clipPath id="clip0_1189_59">
<rect width="100" height="100" fill="white"/>
</clipPath>
</defs>
</svg>
