<svg width="100" height="100" viewBox="0 0 100 100" fill="none" xmlns="http://www.w3.org/2000/svg">
<g clip-path="url(#clip0_1189_11)">
<path d="M93.9639 77.5568H6.03613C2.70254 77.5568 0 74.8545 0 71.5207V14.6963C0 11.3625 2.70254 8.66016 6.03613 8.66016H93.9637C97.2975 8.66016 99.9998 11.3627 99.9998 14.6963V71.5207C100 74.8545 97.2975 77.5568 93.9639 77.5568Z" fill="#506D90"/>
<path d="M93.9639 8.66016H87.9277C91.2615 8.66016 93.9639 11.3627 93.9639 14.6963V71.5207C93.9639 74.8545 91.2613 77.5568 87.9277 77.5568H93.9639C97.2977 77.5568 100 74.8543 100 71.5207V14.6963C100 11.3627 97.2975 8.66016 93.9639 8.66016Z" fill="#455F7E"/>
<path d="M6.03613 67.6967V15.5002C6.03613 15.0557 6.39648 14.6953 6.84102 14.6953H93.159C93.6035 14.6953 93.9639 15.0557 93.9639 15.5002V67.6967C93.9639 68.1412 93.6035 68.5016 93.159 68.5016H6.84102C6.39648 68.5016 6.03613 68.1412 6.03613 67.6967Z" fill="#ECF5FF"/>
<path d="M6.03613 67.6967V15.5002C6.03613 15.0557 6.39648 14.6953 6.84102 14.6953H93.159C93.6035 14.6953 93.9639 15.0557 93.9639 15.5002V67.6967C93.9639 68.1412 93.6035 68.5016 93.159 68.5016H6.84102C6.39648 68.5016 6.03613 68.1412 6.03613 67.6967Z" fill="#ECF5FF"/>
<path d="M93.1592 14.6953H87.123C87.5676 14.6953 87.9279 15.0557 87.9279 15.5002V67.6967C87.9279 68.1412 87.5676 68.5016 87.123 68.5016H93.1592C93.6037 68.5016 93.9641 68.1412 93.9641 67.6967V15.5002C93.9641 15.0557 93.6037 14.6953 93.1592 14.6953Z" fill="#DBEAFD"/>
<path d="M59.9685 99.999H40.0317L43.0499 77.5566H56.9503L59.9685 99.999Z" fill="#455F7E"/>
<path d="M56.9502 77.5566H50.9141L53.9322 99.999H59.9684L56.9502 77.5566Z" fill="#405972"/>
<path d="M63.0571 90.2967L65.1823 97.9598C65.4667 98.9853 64.6954 99.9996 63.6311 99.9996H36.3685C35.3042 99.9996 34.5329 98.9853 34.8173 97.9598L36.9425 90.2967C37.1358 89.5996 37.7702 89.1172 38.4936 89.1172H61.5061C62.2294 89.1172 62.864 89.5998 63.0571 90.2967Z" fill="#506D90"/>
<path d="M65.1827 97.9598L63.0575 90.2967C62.8642 89.5996 62.2298 89.1172 61.5063 89.1172H55.4702C56.1935 89.1172 56.828 89.5996 57.0214 90.2967L59.1466 97.9598C59.431 98.9852 58.6597 99.9996 57.5954 99.9996H63.6315C64.6958 99.9996 65.4671 98.9853 65.1827 97.9598Z" fill="#455F7E"/>
<path d="M18.0103 12.0723H81.9901V68.5031H18.0103V12.0723Z" fill="#F9F6F6"/>
<path d="M75.9536 12.0723H81.9897V68.5031H75.9536V12.0723Z" fill="#E2D8EC"/>
<path d="M66.1039 56.4316H33.8961C32.1877 56.4316 30.8027 55.0467 30.8027 53.3383V21.2027C30.8027 19.4943 32.1877 18.1094 33.8961 18.1094H66.1039C67.8123 18.1094 69.1973 19.4943 69.1973 21.2027V53.3383C69.1975 55.0467 67.8123 56.4316 66.1039 56.4316Z" fill="#BCD7FD"/>
<path d="M66.104 18.1094H60.0679C61.7763 18.1094 63.1612 19.4943 63.1612 21.2027V53.3383C63.1612 55.0467 61.7763 56.4316 60.0679 56.4316H66.104C67.8124 56.4316 69.1974 55.0467 69.1974 53.3383V21.2029C69.1974 19.4943 67.8124 18.1094 66.104 18.1094Z" fill="#9BC6FD"/>
<path d="M75.9535 63.977H24.0461C23.2127 63.977 22.5371 63.3014 22.5371 62.468C22.5371 61.6346 23.2127 60.959 24.0461 60.959H75.9535C76.7871 60.959 77.4625 61.6346 77.4625 62.468C77.4625 63.3014 76.7871 63.977 75.9535 63.977Z" fill="#D5C6E4"/>
<path d="M76.5575 0H20.4247C19.0913 0 18.0103 1.08105 18.0103 2.41445V12.0725H81.9901L78.972 2.41445C78.972 1.08105 77.8909 0 76.5575 0Z" fill="#455F7E"/>
<path d="M79.5752 0H73.5391C74.8725 0 75.9535 1.08105 75.9535 2.41445V12.0725H81.9896V2.41445C81.9896 1.08105 80.9088 0 79.5752 0Z" fill="#405972"/>
<path d="M77.4461 21.4104C87.1505 11.7061 93.4571 2.27886 91.5324 0.354139C89.6077 -1.57058 80.1804 4.73606 70.4761 14.4404C60.7717 24.1448 54.4651 33.572 56.3898 35.4967C58.3145 37.4215 67.7417 31.1148 77.4461 21.4104Z" fill="#CF9772"/>
<path d="M91.545 0.345528C90.7488 -0.450761 88.6679 0.162716 85.8156 1.84123C85.3007 5.33225 79.5544 13.2707 71.4202 21.4049C65.729 27.0961 60.1339 31.6178 56.0902 33.9977C55.9906 34.6721 56.0853 35.1817 56.397 35.4934C58.322 37.4184 67.7507 31.1108 77.4564 21.4049C87.162 11.699 93.4699 2.27053 91.545 0.345528Z" fill="#C88556"/>
<path d="M68.6667 22.4627C66.9786 20.9713 65.0237 20.8895 64.486 20.8848C58.3512 28.0164 54.9067 34.0041 56.3969 35.4945C57.8727 36.9703 63.7594 33.6068 70.7999 27.583C70.8159 27.202 70.8848 24.4223 68.6667 22.4627Z" fill="#D8AB89"/>
<path d="M56.5663 35.6273C58.512 36.818 64.8292 32.6398 70.1966 28.0937C70.3956 27.9264 70.5952 27.7572 70.796 27.5854C70.7973 27.5842 70.7987 27.583 70.8001 27.5818C70.8137 27.2535 70.8653 25.148 69.4643 23.3184C64.4643 28.1057 59.6706 31.8902 56.0917 33.9967C56.0245 34.4881 55.9772 35.2668 56.5663 35.6273Z" fill="#CF9772"/>
<path d="M60.2433 28.7302C57.4861 27.9729 53.9187 29.3577 52.509 31.8739C51.182 34.2425 52.5744 36.0222 51.1929 38.5663C50.4232 39.9839 49.1943 40.8985 48.0461 41.4954C47.4881 41.7854 47.4824 42.5753 48.0349 42.8755C49.7545 43.8097 52.9963 45.0435 56.5234 43.6841C60.7465 42.0563 62.9031 37.6649 62.7181 34.0124C62.6816 33.2905 62.7082 29.4069 60.2433 28.7302Z" fill="#F7E07F"/>
<path d="M62.7181 34.0124C62.6815 33.2905 62.7081 29.4069 60.2433 28.73C58.6683 28.2973 56.8292 28.5647 55.2786 29.3419C56.663 30.6632 56.6515 33.4159 56.6817 34.0124C56.8667 37.6649 54.7101 42.0565 50.487 43.6841C50.387 43.7225 50.2874 43.7585 50.188 43.7929C51.9233 44.3409 54.1589 44.5954 56.5233 43.6841C60.7464 42.0565 62.903 37.6651 62.7181 34.0124Z" fill="#F0D16F"/>
<path d="M24.0461 7.54531C24.8795 7.54531 25.5551 6.86972 25.5551 6.03633C25.5551 5.20294 24.8795 4.52734 24.0461 4.52734C23.2127 4.52734 22.5371 5.20294 22.5371 6.03633C22.5371 6.86972 23.2127 7.54531 24.0461 7.54531Z" fill="#D5707E"/>
<path d="M30.0822 7.54531C30.9156 7.54531 31.5912 6.86972 31.5912 6.03633C31.5912 5.20294 30.9156 4.52734 30.0822 4.52734C29.2488 4.52734 28.5732 5.20294 28.5732 6.03633C28.5732 6.86972 29.2488 7.54531 30.0822 7.54531Z" fill="#F0D16F"/>
<path d="M36.1184 7.54531C36.9517 7.54531 37.6273 6.86972 37.6273 6.03633C37.6273 5.20294 36.9517 4.52734 36.1184 4.52734C35.285 4.52734 34.6094 5.20294 34.6094 6.03633C34.6094 6.86972 35.285 7.54531 36.1184 7.54531Z" fill="#A4D9A6"/>
</g>
<defs>
<clipPath id="clip0_1189_11">
<rect width="100" height="100" fill="white"/>
</clipPath>
</defs>
</svg>
